<?xml version="1.0" encoding="utf-8"?>
<!-- Generator: Adobe Illustrator 26.3.1, SVG Export Plug-In . SVG Version: 6.00 Build 0)  -->
<svg version="1.1" id="Layer_1" xmlns="http://www.w3.org/2000/svg" xmlns:xlink="http://www.w3.org/1999/xlink" x="0px" y="0px"
	 viewBox="0 0 180 180" style="enable-background:new 0 0 180 180;" xml:space="preserve">
<style type="text/css">
	.st0{fill:#C0C0C0;}
	.st1{fill:#9B1C3C;}
	.st2{fill:none;stroke:#000000;stroke-width:0.72;stroke-linejoin:round;stroke-miterlimit:10;}
	.st3{fill:#808080;}
</style>
<g>
	<path class="st0" d="M145.13,174.76c-0.36,0-0.64-0.1-0.83-0.3c-0.19-0.2-0.29-0.49-0.29-0.87v-2.79h-0.55
		c-0.05,0-0.09-0.01-0.12-0.04s-0.05-0.07-0.05-0.13v-0.32l0.75-0.09l0.18-1.41c0.01-0.04,0.03-0.08,0.06-0.11s0.07-0.04,0.12-0.04
		h0.41v1.57h1.32v0.58h-1.32v2.74c0,0.19,0.05,0.33,0.14,0.43c0.09,0.09,0.21,0.14,0.36,0.14c0.08,0,0.16-0.01,0.22-0.03
		s0.11-0.05,0.16-0.07c0.04-0.03,0.08-0.05,0.12-0.07c0.03-0.02,0.06-0.03,0.08-0.03c0.04,0,0.08,0.03,0.11,0.08l0.23,0.38
		c-0.14,0.13-0.3,0.23-0.5,0.3C145.54,174.72,145.34,174.76,145.13,174.76z"/>
	<path class="st0" d="M148.89,170.05c0.33,0,0.63,0.06,0.9,0.17c0.27,0.11,0.5,0.27,0.68,0.47c0.19,0.2,0.33,0.45,0.43,0.74
		c0.1,0.29,0.15,0.61,0.15,0.97c0,0.36-0.05,0.68-0.15,0.97s-0.25,0.53-0.43,0.74c-0.19,0.2-0.42,0.36-0.68,0.47
		c-0.27,0.11-0.57,0.17-0.9,0.17c-0.34,0-0.64-0.06-0.91-0.17s-0.5-0.27-0.69-0.47c-0.19-0.2-0.33-0.45-0.43-0.74
		s-0.15-0.61-0.15-0.97c0-0.36,0.05-0.68,0.15-0.97c0.1-0.29,0.25-0.54,0.43-0.74c0.19-0.2,0.42-0.36,0.69-0.47
		S148.55,170.05,148.89,170.05z M148.89,174.12c0.45,0,0.79-0.15,1.01-0.45c0.22-0.3,0.33-0.72,0.33-1.26
		c0-0.54-0.11-0.97-0.33-1.27c-0.22-0.3-0.56-0.46-1.01-0.46c-0.23,0-0.43,0.04-0.6,0.12c-0.17,0.08-0.31,0.19-0.42,0.34
		c-0.11,0.15-0.2,0.33-0.25,0.54c-0.06,0.21-0.08,0.46-0.08,0.73c0,0.54,0.11,0.96,0.34,1.26
		C148.09,173.97,148.43,174.12,148.89,174.12z"/>
	<path class="st0" d="M153.47,174.76c-0.36,0-0.64-0.1-0.83-0.3c-0.19-0.2-0.29-0.49-0.29-0.87v-2.79h-0.55
		c-0.05,0-0.09-0.01-0.12-0.04s-0.05-0.07-0.05-0.13v-0.32l0.75-0.09l0.18-1.41c0.01-0.04,0.03-0.08,0.06-0.11s0.07-0.04,0.12-0.04
		h0.41v1.57h1.32v0.58h-1.32v2.74c0,0.19,0.05,0.33,0.14,0.43c0.09,0.09,0.21,0.14,0.36,0.14c0.08,0,0.16-0.01,0.22-0.03
		s0.11-0.05,0.16-0.07c0.04-0.03,0.08-0.05,0.12-0.07c0.03-0.02,0.06-0.03,0.08-0.03c0.04,0,0.08,0.03,0.11,0.08l0.23,0.38
		c-0.14,0.13-0.3,0.23-0.5,0.3C153.88,174.72,153.68,174.76,153.47,174.76z"/>
	<path class="st0" d="M158.21,174.68c-0.08,0-0.14-0.01-0.18-0.04s-0.08-0.08-0.1-0.15l-0.09-0.43c-0.12,0.11-0.24,0.2-0.35,0.29
		c-0.12,0.08-0.24,0.16-0.36,0.22s-0.26,0.1-0.4,0.13c-0.14,0.03-0.3,0.05-0.47,0.05c-0.18,0-0.34-0.03-0.5-0.07
		c-0.16-0.05-0.29-0.12-0.41-0.22c-0.12-0.1-0.21-0.22-0.27-0.38s-0.1-0.33-0.1-0.54c0-0.18,0.05-0.35,0.15-0.52
		c0.1-0.17,0.26-0.31,0.48-0.44c0.22-0.13,0.51-0.23,0.87-0.32c0.36-0.08,0.79-0.13,1.31-0.14v-0.36c0-0.35-0.08-0.62-0.23-0.8
		c-0.15-0.18-0.38-0.27-0.67-0.27c-0.2,0-0.36,0.02-0.5,0.07c-0.13,0.05-0.25,0.1-0.35,0.17s-0.18,0.12-0.25,0.17
		c-0.07,0.05-0.14,0.07-0.21,0.07c-0.05,0-0.1-0.01-0.14-0.04s-0.07-0.06-0.1-0.11l-0.14-0.26c0.25-0.24,0.52-0.42,0.81-0.54
		c0.29-0.12,0.61-0.18,0.97-0.18c0.25,0,0.48,0.04,0.68,0.13c0.2,0.08,0.37,0.2,0.5,0.35c0.13,0.15,0.24,0.33,0.31,0.54
		c0.07,0.21,0.1,0.45,0.1,0.7v2.92H158.21z M156.49,174.19c0.14,0,0.27-0.01,0.39-0.04c0.12-0.03,0.23-0.07,0.33-0.12
		c0.1-0.05,0.2-0.12,0.3-0.19c0.09-0.08,0.19-0.16,0.28-0.26v-0.94c-0.37,0.01-0.68,0.04-0.94,0.09c-0.26,0.05-0.47,0.11-0.63,0.18
		c-0.16,0.08-0.28,0.16-0.36,0.27c-0.07,0.1-0.11,0.22-0.11,0.34c0,0.12,0.02,0.22,0.06,0.31s0.09,0.16,0.16,0.21
		s0.15,0.1,0.24,0.12C156.28,174.18,156.38,174.19,156.49,174.19z"/>
	<path class="st0" d="M160.64,168.06v6.63h-0.8v-6.63H160.64z"/>
</g>
<g>
	<path class="st0" d="M161.84,170.81c0-0.08,0.01-0.15,0.04-0.22c0.03-0.07,0.07-0.13,0.12-0.18c0.05-0.05,0.11-0.09,0.18-0.12
		c0.07-0.03,0.14-0.04,0.22-0.04s0.15,0.01,0.22,0.04c0.07,0.03,0.13,0.07,0.18,0.12c0.05,0.05,0.09,0.11,0.12,0.18
		c0.03,0.07,0.04,0.14,0.04,0.22c0,0.08-0.01,0.16-0.04,0.22s-0.07,0.13-0.12,0.18c-0.05,0.05-0.11,0.09-0.18,0.12
		c-0.07,0.03-0.14,0.04-0.22,0.04s-0.15-0.01-0.22-0.04c-0.07-0.03-0.13-0.07-0.18-0.12c-0.05-0.05-0.09-0.11-0.12-0.18
		S161.84,170.9,161.84,170.81z M161.84,174.19c0-0.08,0.01-0.15,0.04-0.22c0.03-0.07,0.07-0.13,0.12-0.18
		c0.05-0.05,0.11-0.09,0.18-0.12c0.07-0.03,0.14-0.04,0.22-0.04s0.15,0.01,0.22,0.04c0.07,0.03,0.13,0.07,0.18,0.12
		c0.05,0.05,0.09,0.11,0.12,0.18c0.03,0.07,0.04,0.14,0.04,0.22c0,0.08-0.01,0.16-0.04,0.22s-0.07,0.13-0.12,0.18
		c-0.05,0.05-0.11,0.09-0.18,0.12c-0.07,0.03-0.14,0.04-0.22,0.04s-0.15-0.01-0.22-0.04c-0.07-0.03-0.13-0.07-0.18-0.12
		c-0.05-0.05-0.09-0.11-0.12-0.18S161.84,174.27,161.84,174.19z"/>
	<path class="st0" d="M169.83,172.36h0.98v0.46c0,0.05-0.01,0.09-0.04,0.12s-0.07,0.05-0.13,0.05h-0.8v1.7h-0.7v-1.7h-2.86
		c-0.06,0-0.11-0.02-0.16-0.05c-0.04-0.03-0.07-0.08-0.08-0.13l-0.08-0.41l3.14-4.16h0.75V172.36z M169.13,169.7
		c0-0.08,0-0.16,0.01-0.25c0-0.09,0.01-0.19,0.03-0.28l-2.35,3.2h2.31V169.7z"/>
	<path class="st0" d="M176.01,171.46c0,0.56-0.06,1.05-0.18,1.46c-0.12,0.41-0.29,0.75-0.5,1.02c-0.21,0.27-0.46,0.47-0.75,0.6
		c-0.29,0.13-0.59,0.2-0.92,0.2c-0.33,0-0.64-0.07-0.92-0.2c-0.28-0.13-0.53-0.33-0.74-0.6c-0.21-0.27-0.38-0.61-0.5-1.02
		c-0.12-0.41-0.18-0.9-0.18-1.46c0-0.56,0.06-1.05,0.18-1.47c0.12-0.41,0.29-0.76,0.5-1.03s0.46-0.47,0.74-0.61
		c0.28-0.13,0.59-0.2,0.92-0.2c0.33,0,0.63,0.07,0.92,0.2c0.29,0.13,0.54,0.33,0.75,0.61s0.38,0.61,0.5,1.03
		C175.95,170.41,176.01,170.9,176.01,171.46z M175.18,171.46c0-0.49-0.04-0.91-0.12-1.24c-0.08-0.33-0.19-0.6-0.33-0.81
		c-0.14-0.2-0.3-0.35-0.48-0.44c-0.18-0.09-0.37-0.13-0.57-0.13s-0.39,0.04-0.57,0.13c-0.18,0.09-0.34,0.23-0.48,0.44
		c-0.14,0.2-0.25,0.47-0.33,0.81c-0.08,0.33-0.12,0.75-0.12,1.24s0.04,0.9,0.12,1.24c0.08,0.33,0.19,0.6,0.33,0.81
		c0.14,0.2,0.3,0.35,0.48,0.44c0.18,0.09,0.37,0.13,0.57,0.13s0.39-0.04,0.57-0.13c0.18-0.09,0.34-0.23,0.48-0.44
		c0.14-0.2,0.25-0.47,0.33-0.81C175.14,172.37,175.18,171.96,175.18,171.46z"/>
</g>
<g>
</g>
<path class="st1" d="M128.76,141h29.94v-8.1h-29.94V141z M74.88,141h29.94v-36.36H74.88V141z M21,141h29.94V24H21V141z"/>
<line class="st2" x1="9" y1="141" x2="170.64" y2="141"/>
<g>
	<path class="st3" d="M31.97,9.15c0.45,0,0.86,0.07,1.23,0.2c0.38,0.13,0.7,0.32,0.97,0.57c0.27,0.24,0.49,0.54,0.64,0.89
		c0.15,0.35,0.23,0.74,0.23,1.18c0,0.37-0.05,0.72-0.16,1.03c-0.11,0.32-0.26,0.62-0.44,0.91c-0.19,0.29-0.4,0.57-0.65,0.84
		c-0.25,0.27-0.51,0.55-0.79,0.83l-2.43,2.49c0.2-0.05,0.4-0.09,0.6-0.13c0.2-0.03,0.4-0.05,0.58-0.05h2.96
		c0.16,0,0.29,0.05,0.38,0.14c0.09,0.1,0.14,0.22,0.14,0.37v0.91h-6.81v-0.51c0-0.1,0.02-0.21,0.06-0.32
		c0.04-0.11,0.11-0.21,0.2-0.31l3.13-3.14c0.27-0.27,0.5-0.52,0.71-0.76c0.21-0.24,0.38-0.48,0.53-0.73
		c0.15-0.24,0.26-0.49,0.34-0.74c0.08-0.25,0.12-0.51,0.12-0.79c0-0.27-0.04-0.5-0.12-0.7s-0.19-0.37-0.34-0.5s-0.31-0.23-0.51-0.3
		c-0.2-0.07-0.42-0.1-0.65-0.1c-0.23,0-0.44,0.03-0.63,0.1s-0.37,0.16-0.52,0.27c-0.15,0.12-0.28,0.26-0.38,0.42
		s-0.17,0.34-0.22,0.53c-0.07,0.19-0.16,0.32-0.27,0.38s-0.27,0.08-0.48,0.04l-0.79-0.14c0.07-0.48,0.2-0.89,0.4-1.25
		s0.44-0.66,0.73-0.9c0.29-0.24,0.63-0.42,1.01-0.55S31.52,9.15,31.97,9.15z"/>
	<path class="st3" d="M40.66,15.38c0.09-0.12,0.18-0.23,0.26-0.33c0.08-0.1,0.16-0.21,0.23-0.32c-0.25,0.18-0.52,0.31-0.82,0.4
		c-0.3,0.09-0.62,0.13-0.95,0.13c-0.36,0-0.71-0.06-1.05-0.19c-0.34-0.12-0.63-0.31-0.9-0.55c-0.26-0.24-0.47-0.55-0.63-0.91
		c-0.16-0.36-0.23-0.78-0.23-1.25c0-0.44,0.08-0.86,0.25-1.25c0.17-0.39,0.4-0.73,0.7-1.02c0.3-0.29,0.65-0.52,1.07-0.69
		c0.42-0.17,0.87-0.25,1.38-0.25c0.5,0,0.95,0.08,1.36,0.24c0.41,0.16,0.75,0.39,1.03,0.68c0.28,0.29,0.5,0.64,0.66,1.04
		c0.15,0.4,0.23,0.85,0.23,1.33c0,0.3-0.03,0.59-0.08,0.86c-0.05,0.27-0.13,0.53-0.23,0.79c-0.1,0.25-0.22,0.5-0.36,0.75
		s-0.3,0.49-0.48,0.74l-2.37,3.4c-0.07,0.1-0.17,0.19-0.31,0.25c-0.14,0.06-0.29,0.1-0.46,0.1h-1.38L40.66,15.38z M41.81,12.27
		c0-0.29-0.05-0.56-0.14-0.79c-0.09-0.23-0.22-0.43-0.38-0.59c-0.17-0.16-0.36-0.29-0.59-0.37c-0.23-0.09-0.48-0.13-0.75-0.13
		c-0.28,0-0.54,0.05-0.77,0.14c-0.23,0.09-0.42,0.22-0.59,0.39c-0.16,0.17-0.29,0.36-0.38,0.59s-0.13,0.47-0.13,0.74
		c0,0.6,0.16,1.05,0.48,1.37c0.32,0.32,0.77,0.48,1.34,0.48c0.31,0,0.58-0.05,0.81-0.15c0.24-0.1,0.43-0.23,0.6-0.4
		s0.29-0.36,0.37-0.58C41.77,12.76,41.81,12.52,41.81,12.27z"/>
</g>
<g>
</g>
<g>
	<path class="st3" d="M90.52,96.1c0.09-0.12,0.18-0.23,0.26-0.33s0.16-0.21,0.23-0.32c-0.25,0.18-0.52,0.31-0.82,0.4
		c-0.3,0.09-0.62,0.13-0.95,0.13c-0.36,0-0.71-0.06-1.05-0.18c-0.34-0.12-0.63-0.31-0.9-0.55c-0.26-0.24-0.47-0.55-0.63-0.91
		c-0.16-0.36-0.23-0.78-0.23-1.25c0-0.44,0.08-0.86,0.25-1.25c0.17-0.39,0.4-0.73,0.7-1.02s0.65-0.52,1.07-0.69
		c0.42-0.17,0.87-0.25,1.38-0.25c0.5,0,0.95,0.08,1.36,0.24c0.41,0.16,0.75,0.39,1.04,0.68c0.28,0.29,0.5,0.64,0.66,1.04
		s0.23,0.85,0.23,1.33c0,0.3-0.03,0.59-0.08,0.86c-0.05,0.27-0.13,0.53-0.23,0.79s-0.22,0.5-0.36,0.75
		c-0.14,0.25-0.3,0.49-0.48,0.74l-2.37,3.4c-0.07,0.1-0.17,0.19-0.31,0.25c-0.14,0.07-0.29,0.1-0.46,0.1h-1.38L90.52,96.1z
		 M91.66,92.99c0-0.29-0.04-0.56-0.14-0.79c-0.09-0.23-0.22-0.43-0.38-0.59c-0.16-0.16-0.36-0.29-0.59-0.37s-0.48-0.13-0.75-0.13
		c-0.28,0-0.54,0.05-0.77,0.14c-0.23,0.09-0.42,0.22-0.59,0.39c-0.16,0.17-0.29,0.36-0.38,0.59c-0.09,0.23-0.13,0.47-0.13,0.74
		c0,0.6,0.16,1.05,0.48,1.37c0.32,0.32,0.77,0.48,1.34,0.48c0.31,0,0.58-0.05,0.81-0.15c0.23-0.1,0.43-0.23,0.6-0.4
		c0.16-0.17,0.29-0.36,0.37-0.58C91.62,93.48,91.66,93.25,91.66,92.99z"/>
</g>
<g>
</g>
<g>
	<path class="st3" d="M143.79,118c0.45,0,0.86,0.07,1.23,0.2s0.7,0.32,0.97,0.57c0.27,0.25,0.49,0.54,0.64,0.89
		c0.15,0.35,0.23,0.74,0.23,1.18c0,0.37-0.05,0.72-0.16,1.04c-0.11,0.32-0.26,0.62-0.44,0.91s-0.4,0.57-0.65,0.84
		s-0.51,0.55-0.79,0.83l-2.43,2.49c0.2-0.05,0.4-0.09,0.6-0.13c0.2-0.04,0.39-0.05,0.58-0.05h2.96c0.16,0,0.29,0.05,0.38,0.14
		c0.09,0.1,0.14,0.22,0.14,0.37v0.91h-6.81v-0.51c0-0.1,0.02-0.21,0.06-0.32c0.04-0.11,0.11-0.21,0.2-0.31l3.13-3.14
		c0.27-0.27,0.5-0.52,0.71-0.76c0.21-0.24,0.38-0.48,0.53-0.73c0.15-0.24,0.26-0.49,0.33-0.74c0.08-0.25,0.12-0.51,0.12-0.79
		c0-0.27-0.04-0.5-0.12-0.7c-0.08-0.2-0.19-0.37-0.34-0.5c-0.14-0.13-0.31-0.23-0.51-0.3s-0.42-0.1-0.65-0.1
		c-0.23,0-0.44,0.03-0.63,0.1c-0.19,0.07-0.37,0.16-0.52,0.27c-0.15,0.12-0.28,0.25-0.38,0.42c-0.1,0.16-0.17,0.34-0.22,0.53
		c-0.07,0.19-0.16,0.32-0.27,0.38c-0.11,0.06-0.27,0.08-0.48,0.04l-0.79-0.14c0.07-0.47,0.2-0.89,0.39-1.25
		c0.19-0.36,0.44-0.66,0.73-0.9c0.29-0.24,0.63-0.42,1.01-0.54S143.35,118,143.79,118z"/>
</g>
<g>
</g>
<g>
	<path class="st3" d="M21.19,149.66v1.32h-4.63v3.03h3.7v1.28h-3.7v3.11h4.64l-0.01,1.32h-6.28v-10.07H21.19z"/>
	<path class="st3" d="M24.12,152.6v4.54c0,0.48,0.11,0.85,0.33,1.12s0.56,0.4,1.01,0.4c0.33,0,0.64-0.08,0.93-0.23
		s0.56-0.36,0.81-0.63v-5.2h1.5v7.13h-0.91c-0.2,0-0.33-0.1-0.38-0.29l-0.11-0.66c-0.3,0.32-0.64,0.57-1,0.77
		c-0.37,0.2-0.79,0.29-1.28,0.29c-0.39,0-0.74-0.07-1.03-0.2c-0.3-0.13-0.55-0.31-0.75-0.55c-0.2-0.24-0.36-0.52-0.46-0.86
		s-0.15-0.7-0.15-1.1v-4.54H24.12z"/>
	<path class="st3" d="M30.54,159.73v-7.13h0.87c0.16,0,0.27,0.03,0.33,0.09c0.06,0.06,0.1,0.16,0.13,0.3l0.08,0.93
		c0.23-0.45,0.5-0.81,0.82-1.07c0.32-0.26,0.7-0.39,1.14-0.39c0.15,0,0.3,0.02,0.43,0.05s0.26,0.09,0.36,0.16l-0.1,1.13
		c-0.02,0.08-0.05,0.13-0.09,0.17s-0.09,0.04-0.16,0.04c-0.07,0-0.17-0.01-0.3-0.04s-0.27-0.04-0.41-0.04
		c-0.21,0-0.4,0.03-0.56,0.09s-0.31,0.15-0.43,0.27c-0.13,0.12-0.24,0.26-0.34,0.43c-0.1,0.17-0.19,0.36-0.27,0.57v4.43H30.54z"/>
	<path class="st3" d="M38.78,152.49c0.53,0,1,0.09,1.43,0.26c0.43,0.17,0.79,0.42,1.09,0.73c0.3,0.32,0.53,0.7,0.7,1.15
		c0.16,0.45,0.24,0.96,0.24,1.52c0,0.56-0.08,1.07-0.24,1.52c-0.16,0.45-0.4,0.84-0.7,1.16c-0.3,0.32-0.66,0.57-1.09,0.74
		c-0.43,0.17-0.9,0.26-1.43,0.26c-0.53,0-1.01-0.09-1.44-0.26c-0.43-0.17-0.79-0.42-1.09-0.74c-0.3-0.32-0.54-0.7-0.7-1.16
		s-0.24-0.96-0.24-1.52c0-0.56,0.08-1.07,0.24-1.52s0.4-0.84,0.7-1.15c0.3-0.32,0.67-0.56,1.09-0.73
		C37.77,152.57,38.25,152.49,38.78,152.49z M38.78,158.66c0.64,0,1.12-0.22,1.44-0.65c0.31-0.43,0.47-1.05,0.47-1.85
		c0-0.8-0.16-1.42-0.47-1.86c-0.31-0.44-0.79-0.65-1.44-0.65c-0.65,0-1.14,0.22-1.45,0.65s-0.48,1.05-0.48,1.86
		c0,0.8,0.16,1.42,0.48,1.85C37.65,158.44,38.13,158.66,38.78,158.66z"/>
	<path class="st3" d="M43.68,162.1v-9.5h0.91c0.21,0,0.34,0.1,0.39,0.29l0.12,0.75c0.15-0.17,0.31-0.33,0.48-0.47
		c0.17-0.14,0.35-0.27,0.54-0.37s0.4-0.18,0.62-0.24c0.22-0.06,0.46-0.08,0.71-0.08c0.4,0,0.76,0.08,1.09,0.24
		c0.33,0.16,0.61,0.39,0.84,0.7c0.23,0.31,0.41,0.69,0.54,1.14c0.13,0.45,0.19,0.97,0.19,1.56c0,0.53-0.07,1.02-0.21,1.47
		s-0.35,0.85-0.61,1.18s-0.59,0.59-0.96,0.78c-0.38,0.19-0.8,0.28-1.28,0.28c-0.42,0-0.78-0.07-1.07-0.2s-0.56-0.32-0.79-0.56v3.02
		H43.68z M46.95,153.67c-0.39,0-0.72,0.08-0.99,0.25c-0.27,0.17-0.53,0.4-0.77,0.71v3.31c0.21,0.27,0.44,0.46,0.69,0.57
		c0.25,0.11,0.53,0.16,0.83,0.16c0.59,0,1.04-0.21,1.37-0.64c0.33-0.43,0.49-1.07,0.49-1.92c0-0.44-0.04-0.81-0.11-1.12
		c-0.07-0.31-0.18-0.56-0.32-0.76c-0.14-0.2-0.31-0.34-0.51-0.43C47.42,153.72,47.2,153.67,46.95,153.67z"/>
	<path class="st3" d="M54.59,152.49c0.44,0,0.84,0.07,1.22,0.21c0.37,0.14,0.69,0.35,0.96,0.63c0.27,0.28,0.48,0.61,0.63,1.01
		s0.23,0.85,0.23,1.36c0,0.23-0.03,0.39-0.08,0.47c-0.05,0.08-0.14,0.12-0.28,0.12h-4.58c0.02,0.41,0.08,0.76,0.19,1.05
		c0.11,0.3,0.25,0.54,0.43,0.74c0.18,0.2,0.39,0.34,0.64,0.44c0.25,0.1,0.53,0.14,0.83,0.14c0.29,0,0.55-0.03,0.76-0.1
		c0.21-0.07,0.4-0.14,0.56-0.22c0.16-0.08,0.29-0.16,0.41-0.22s0.21-0.1,0.31-0.1c0.12,0,0.21,0.05,0.28,0.14l0.43,0.55
		c-0.18,0.21-0.38,0.39-0.6,0.53s-0.46,0.26-0.71,0.35c-0.25,0.09-0.51,0.16-0.78,0.2c-0.27,0.04-0.52,0.06-0.78,0.06
		c-0.49,0-0.95-0.08-1.37-0.25c-0.42-0.17-0.79-0.41-1.1-0.73c-0.31-0.32-0.55-0.72-0.73-1.2c-0.17-0.47-0.26-1.02-0.26-1.64
		c0-0.49,0.08-0.96,0.23-1.38s0.38-0.8,0.67-1.12c0.29-0.32,0.65-0.57,1.06-0.75C53.59,152.58,54.06,152.49,54.59,152.49z
		 M54.61,153.58c-0.54,0-0.97,0.16-1.29,0.47c-0.31,0.31-0.51,0.75-0.59,1.31h3.54c0-0.25-0.04-0.49-0.11-0.7
		c-0.07-0.22-0.18-0.41-0.32-0.57c-0.14-0.16-0.31-0.29-0.52-0.38C55.12,153.62,54.89,153.58,54.61,153.58z"/>
</g>
<g>
</g>
<g>
	<path class="st3" d="M130.85,152.49c0.53,0,1,0.09,1.43,0.26c0.43,0.17,0.79,0.42,1.09,0.73c0.3,0.32,0.53,0.7,0.7,1.15
		s0.24,0.96,0.24,1.52c0,0.56-0.08,1.07-0.24,1.52s-0.4,0.84-0.7,1.16c-0.3,0.32-0.66,0.57-1.09,0.74c-0.43,0.17-0.9,0.26-1.43,0.26
		c-0.53,0-1.01-0.09-1.44-0.26c-0.43-0.17-0.79-0.42-1.09-0.74c-0.3-0.32-0.54-0.7-0.7-1.16s-0.24-0.96-0.24-1.52
		c0-0.56,0.08-1.07,0.24-1.52s0.4-0.84,0.7-1.15c0.3-0.32,0.67-0.56,1.09-0.73C129.84,152.57,130.32,152.49,130.85,152.49z
		 M130.85,158.66c0.64,0,1.12-0.22,1.44-0.65c0.31-0.43,0.47-1.05,0.47-1.85c0-0.8-0.16-1.42-0.47-1.86s-0.79-0.65-1.44-0.65
		c-0.65,0-1.14,0.22-1.45,0.65c-0.32,0.44-0.47,1.05-0.47,1.86c0,0.8,0.16,1.42,0.47,1.85C129.72,158.44,130.2,158.66,130.85,158.66
		z"/>
	<path class="st3" d="M138.04,159.84c-0.59,0-1.05-0.17-1.37-0.5s-0.48-0.8-0.48-1.41v-4.15h-0.78c-0.08,0-0.16-0.03-0.22-0.08
		c-0.06-0.05-0.09-0.13-0.09-0.24v-0.61l1.15-0.17l0.33-2.06c0.02-0.08,0.06-0.14,0.12-0.19c0.06-0.05,0.13-0.07,0.22-0.07h0.77
		v2.34h1.98v1.08h-1.98v4.05c0,0.26,0.06,0.45,0.19,0.59c0.13,0.14,0.29,0.2,0.5,0.2c0.12,0,0.22-0.02,0.3-0.05s0.16-0.06,0.22-0.1
		s0.11-0.07,0.16-0.1c0.04-0.03,0.09-0.05,0.13-0.05c0.08,0,0.15,0.05,0.2,0.14l0.45,0.73c-0.23,0.21-0.51,0.36-0.83,0.47
		C138.7,159.78,138.38,159.84,138.04,159.84z"/>
	<path class="st3" d="M140.86,159.73v-10.34h1.5v4.06c0.29-0.29,0.61-0.52,0.96-0.7s0.76-0.26,1.22-0.26c0.39,0,0.74,0.06,1.03,0.2
		s0.54,0.31,0.75,0.55c0.2,0.24,0.35,0.52,0.46,0.86s0.15,0.7,0.15,1.1v4.54h-1.5v-4.54c0-0.48-0.11-0.85-0.33-1.12
		s-0.56-0.4-1.01-0.4c-0.34,0-0.65,0.08-0.93,0.23c-0.29,0.15-0.56,0.36-0.81,0.63v5.19H140.86z"/>
	<path class="st3" d="M151.71,152.49c0.44,0,0.84,0.07,1.22,0.21c0.37,0.14,0.69,0.35,0.96,0.63c0.27,0.28,0.48,0.61,0.63,1.01
		s0.23,0.85,0.23,1.36c0,0.23-0.03,0.39-0.08,0.47c-0.05,0.08-0.14,0.12-0.28,0.12h-4.58c0.02,0.41,0.08,0.76,0.19,1.05
		c0.11,0.3,0.25,0.54,0.43,0.74c0.18,0.2,0.39,0.34,0.64,0.44s0.53,0.14,0.84,0.14c0.29,0,0.55-0.03,0.76-0.1
		c0.21-0.07,0.4-0.14,0.56-0.22c0.16-0.08,0.29-0.16,0.41-0.22c0.11-0.07,0.21-0.1,0.31-0.1c0.12,0,0.21,0.05,0.28,0.14l0.43,0.55
		c-0.18,0.21-0.38,0.39-0.6,0.53s-0.46,0.26-0.71,0.35c-0.25,0.09-0.51,0.16-0.78,0.2c-0.27,0.04-0.52,0.06-0.78,0.06
		c-0.49,0-0.95-0.08-1.37-0.25c-0.42-0.17-0.79-0.41-1.1-0.73c-0.31-0.32-0.55-0.72-0.73-1.2c-0.17-0.47-0.26-1.02-0.26-1.64
		c0-0.49,0.08-0.96,0.23-1.38c0.16-0.43,0.38-0.8,0.67-1.12c0.29-0.32,0.64-0.57,1.06-0.75
		C150.71,152.58,151.18,152.49,151.71,152.49z M151.73,153.58c-0.55,0-0.97,0.16-1.29,0.47c-0.31,0.31-0.51,0.75-0.59,1.31h3.54
		c0-0.25-0.04-0.49-0.11-0.7s-0.18-0.41-0.32-0.57c-0.14-0.16-0.31-0.29-0.52-0.38C152.24,153.62,152,153.58,151.73,153.58z"/>
	<path class="st3" d="M156.16,159.73v-7.13h0.87c0.16,0,0.27,0.03,0.33,0.09c0.06,0.06,0.1,0.16,0.13,0.3l0.08,0.93
		c0.23-0.45,0.5-0.81,0.82-1.07c0.32-0.26,0.7-0.39,1.14-0.39c0.15,0,0.3,0.02,0.43,0.05c0.14,0.04,0.26,0.09,0.36,0.16l-0.11,1.13
		c-0.02,0.08-0.05,0.13-0.09,0.17c-0.04,0.03-0.09,0.04-0.16,0.04c-0.07,0-0.17-0.01-0.3-0.04s-0.27-0.04-0.41-0.04
		c-0.21,0-0.4,0.03-0.56,0.09s-0.31,0.15-0.43,0.27c-0.13,0.12-0.24,0.26-0.33,0.43s-0.19,0.36-0.27,0.57v4.43H156.16z"/>
</g>
<g>
</g>
<g>
	<path class="st3" d="M85.96,158.41c0.39,0,0.73-0.07,1.04-0.2c0.31-0.13,0.56-0.31,0.78-0.55c0.21-0.23,0.37-0.51,0.49-0.84
		s0.17-0.69,0.17-1.09v-6.07h1.63v6.07c0,0.59-0.09,1.14-0.28,1.64c-0.19,0.5-0.46,0.94-0.81,1.3c-0.35,0.37-0.78,0.65-1.29,0.86
		c-0.51,0.21-1.08,0.31-1.71,0.31s-1.2-0.1-1.71-0.31c-0.51-0.21-0.94-0.49-1.29-0.86c-0.35-0.37-0.63-0.8-0.81-1.3
		c-0.19-0.5-0.28-1.05-0.28-1.64v-6.07h1.64v6.06c0,0.4,0.06,0.76,0.17,1.09c0.11,0.33,0.27,0.61,0.48,0.85
		c0.21,0.24,0.47,0.42,0.77,0.55C85.23,158.34,85.57,158.41,85.96,158.41z"/>
	<path class="st3" d="M97.58,151.38c-0.05,0.08-0.11,0.15-0.16,0.18c-0.06,0.04-0.13,0.06-0.21,0.06c-0.09,0-0.19-0.04-0.3-0.11
		c-0.11-0.08-0.24-0.16-0.41-0.25c-0.16-0.09-0.35-0.17-0.57-0.25c-0.22-0.08-0.48-0.12-0.78-0.12c-0.28,0-0.53,0.04-0.74,0.1
		c-0.21,0.07-0.39,0.17-0.54,0.29s-0.25,0.27-0.33,0.44c-0.07,0.17-0.11,0.36-0.11,0.56c0,0.26,0.07,0.47,0.2,0.64
		s0.31,0.32,0.54,0.44c0.22,0.12,0.47,0.23,0.76,0.32s0.57,0.19,0.87,0.29s0.59,0.22,0.87,0.35c0.28,0.13,0.54,0.3,0.76,0.5
		c0.22,0.2,0.4,0.45,0.54,0.73c0.13,0.29,0.2,0.64,0.2,1.06c0,0.45-0.08,0.87-0.23,1.26c-0.15,0.39-0.38,0.73-0.67,1.02
		c-0.29,0.29-0.65,0.52-1.08,0.69c-0.43,0.17-0.91,0.25-1.46,0.25c-0.32,0-0.63-0.03-0.94-0.09c-0.3-0.06-0.6-0.15-0.87-0.27
		s-0.54-0.25-0.78-0.42s-0.46-0.34-0.65-0.54l0.47-0.78c0.04-0.07,0.1-0.12,0.16-0.15c0.07-0.04,0.14-0.06,0.22-0.06
		c0.11,0,0.23,0.05,0.36,0.15c0.13,0.1,0.29,0.21,0.47,0.33c0.18,0.12,0.41,0.23,0.67,0.33c0.26,0.1,0.57,0.15,0.94,0.15
		c0.59,0,1.05-0.14,1.37-0.43c0.32-0.29,0.49-0.69,0.49-1.2c0-0.28-0.07-0.52-0.2-0.7c-0.13-0.18-0.31-0.33-0.53-0.45
		c-0.22-0.12-0.47-0.22-0.76-0.31s-0.57-0.17-0.87-0.27c-0.29-0.1-0.58-0.21-0.87-0.34c-0.28-0.13-0.54-0.3-0.76-0.5
		c-0.22-0.21-0.4-0.46-0.53-0.77c-0.14-0.3-0.2-0.69-0.2-1.14c0-0.36,0.07-0.71,0.21-1.06c0.14-0.34,0.35-0.64,0.62-0.91
		c0.27-0.26,0.61-0.47,1.01-0.63c0.4-0.16,0.86-0.24,1.37-0.24c0.58,0,1.11,0.09,1.59,0.27c0.48,0.18,0.9,0.44,1.25,0.78
		L97.58,151.38z"/>
</g>
<g>
</g>
</svg>
