<?xml version="1.0" encoding="utf-8"?>
<!-- Generator: Adobe Illustrator 26.3.1, SVG Export Plug-In . SVG Version: 6.00 Build 0)  -->
<svg version="1.1" id="Layer_1" xmlns="http://www.w3.org/2000/svg" xmlns:xlink="http://www.w3.org/1999/xlink" x="0px" y="0px"
	 viewBox="0 0 180 180" style="enable-background:new 0 0 180 180;" xml:space="preserve">
<style type="text/css">
	.st0{fill:#9B1C3C;}
	.st1{fill:none;stroke:#000000;stroke-width:0.72;stroke-linejoin:round;stroke-miterlimit:10;}
	.st2{fill:#808080;}
	.st3{fill:#C0C0C0;}
</style>
<path class="st0" d="M88.14,156.48h25.8v-13.92h-25.8V156.48z M88.14,131.46h20.64V117.6H88.14V131.46z M88.14,106.44h20.64V92.58
	H88.14V106.44z M88.14,81.48h30.96V67.56H88.14V81.48z M88.14,56.46h46.38V42.6H88.14V56.46z M88.14,31.44H150V17.58H88.14V31.44z"
	/>
<line class="st1" x1="88.14" y1="12" x2="88.14" y2="162"/>
<g>
	<path class="st2" d="M155.62,29.06h2.1v-6.31c0-0.22,0.01-0.45,0.02-0.69l-1.61,1.36c-0.07,0.06-0.14,0.09-0.21,0.11
		c-0.07,0.02-0.14,0.02-0.2,0c-0.06-0.01-0.12-0.04-0.17-0.07s-0.09-0.06-0.12-0.1l-0.47-0.66l3.03-2.61h1.22v8.95h1.89v1.14h-5.49
		V29.06z"/>
	<path class="st2" d="M166.19,20.02c0.45,0,0.86,0.07,1.23,0.2s0.7,0.32,0.97,0.57s0.49,0.54,0.64,0.89
		c0.15,0.35,0.23,0.74,0.23,1.18c0,0.37-0.05,0.72-0.16,1.03c-0.11,0.32-0.26,0.62-0.44,0.91c-0.19,0.29-0.4,0.57-0.65,0.84
		c-0.25,0.27-0.51,0.55-0.79,0.83l-2.43,2.49c0.2-0.05,0.4-0.09,0.6-0.13c0.2-0.03,0.39-0.05,0.58-0.05h2.96
		c0.16,0,0.29,0.05,0.38,0.14c0.09,0.1,0.14,0.22,0.14,0.37v0.91h-6.81v-0.51c0-0.1,0.02-0.21,0.06-0.32
		c0.04-0.11,0.11-0.21,0.2-0.31l3.13-3.14c0.27-0.27,0.5-0.52,0.71-0.76c0.21-0.24,0.38-0.48,0.53-0.73
		c0.15-0.24,0.26-0.49,0.33-0.74c0.08-0.25,0.12-0.51,0.12-0.79c0-0.27-0.04-0.5-0.12-0.7c-0.08-0.2-0.19-0.37-0.34-0.5
		c-0.14-0.13-0.31-0.23-0.51-0.3s-0.42-0.1-0.65-0.1c-0.23,0-0.44,0.03-0.63,0.1s-0.37,0.16-0.52,0.27
		c-0.15,0.12-0.28,0.26-0.38,0.42c-0.1,0.16-0.17,0.34-0.22,0.53c-0.07,0.19-0.16,0.32-0.27,0.38c-0.11,0.07-0.27,0.08-0.48,0.04
		l-0.79-0.14c0.07-0.48,0.2-0.89,0.39-1.25s0.44-0.66,0.73-0.9c0.29-0.24,0.63-0.42,1.01-0.55S165.74,20.02,166.19,20.02z"/>
</g>
<g>
</g>
<g>
	<path class="st2" d="M143.13,51.25c0.09-0.12,0.18-0.23,0.26-0.33c0.08-0.1,0.16-0.21,0.23-0.32c-0.25,0.18-0.52,0.31-0.82,0.4
		c-0.3,0.09-0.61,0.13-0.95,0.13c-0.36,0-0.71-0.06-1.05-0.19c-0.33-0.12-0.63-0.31-0.89-0.55s-0.47-0.55-0.63-0.91
		c-0.16-0.36-0.23-0.78-0.23-1.25c0-0.44,0.08-0.86,0.25-1.25c0.17-0.39,0.4-0.73,0.7-1.02c0.3-0.29,0.65-0.52,1.07-0.69
		s0.87-0.25,1.38-0.25c0.5,0,0.95,0.08,1.36,0.24c0.41,0.16,0.75,0.39,1.03,0.68c0.28,0.29,0.5,0.64,0.66,1.04
		c0.15,0.4,0.23,0.85,0.23,1.33c0,0.3-0.03,0.59-0.08,0.86c-0.05,0.27-0.13,0.53-0.23,0.79c-0.1,0.25-0.22,0.5-0.36,0.75
		c-0.14,0.24-0.3,0.49-0.48,0.74l-2.37,3.4c-0.07,0.1-0.17,0.19-0.31,0.25c-0.14,0.06-0.29,0.1-0.46,0.1h-1.38L143.13,51.25z
		 M144.28,48.14c0-0.29-0.05-0.56-0.14-0.79c-0.09-0.23-0.22-0.43-0.38-0.59c-0.17-0.16-0.36-0.29-0.59-0.37
		c-0.23-0.09-0.48-0.13-0.75-0.13c-0.28,0-0.54,0.05-0.77,0.14c-0.23,0.09-0.42,0.22-0.59,0.39c-0.16,0.17-0.29,0.36-0.38,0.59
		c-0.09,0.23-0.13,0.47-0.13,0.74c0,0.6,0.16,1.05,0.48,1.37s0.77,0.48,1.34,0.48c0.31,0,0.58-0.05,0.81-0.15
		c0.24-0.1,0.43-0.23,0.6-0.4s0.29-0.36,0.37-0.58C144.24,48.63,144.28,48.4,144.28,48.14z"/>
</g>
<g>
</g>
<g>
	<path class="st2" d="M126.53,73.83c-0.08,0.09-0.15,0.18-0.21,0.27c-0.07,0.09-0.13,0.17-0.2,0.26c0.21-0.13,0.45-0.22,0.7-0.29
		s0.53-0.1,0.83-0.1c0.39,0,0.77,0.06,1.13,0.19c0.36,0.13,0.67,0.32,0.95,0.57s0.49,0.57,0.65,0.94s0.25,0.81,0.25,1.3
		c0,0.47-0.08,0.9-0.25,1.31c-0.17,0.41-0.41,0.76-0.72,1.06s-0.68,0.54-1.11,0.71c-0.43,0.17-0.91,0.26-1.43,0.26
		c-0.52,0-0.99-0.08-1.41-0.25c-0.42-0.17-0.78-0.4-1.07-0.71s-0.52-0.67-0.68-1.1c-0.16-0.43-0.24-0.91-0.24-1.43
		c0-0.46,0.1-0.93,0.29-1.43c0.2-0.5,0.5-1.02,0.91-1.57l2.47-3.32c0.07-0.1,0.18-0.18,0.33-0.25c0.14-0.07,0.3-0.1,0.48-0.1h1.33
		L126.53,73.83z M125.15,77.05c0,0.3,0.04,0.57,0.13,0.82c0.08,0.25,0.21,0.46,0.37,0.63s0.36,0.31,0.6,0.41
		c0.24,0.1,0.52,0.15,0.83,0.15c0.3,0,0.58-0.05,0.83-0.15s0.47-0.24,0.65-0.42c0.18-0.18,0.32-0.39,0.42-0.63s0.15-0.51,0.15-0.79
		c0-0.31-0.05-0.58-0.14-0.83c-0.1-0.24-0.23-0.45-0.41-0.62s-0.38-0.3-0.63-0.39c-0.24-0.09-0.51-0.14-0.81-0.14
		c-0.3,0-0.58,0.05-0.82,0.15c-0.24,0.1-0.45,0.24-0.63,0.42c-0.17,0.18-0.31,0.38-0.4,0.62C125.19,76.54,125.15,76.79,125.15,77.05
		z"/>
</g>
<g>
</g>
<g>
	<path class="st2" d="M118.97,101.47h1.39v0.87c0,0.08-0.03,0.16-0.08,0.22s-0.13,0.09-0.24,0.09h-1.07v2.54h-1.31v-2.54h-4.36
		c-0.11,0-0.2-0.03-0.28-0.09c-0.08-0.06-0.13-0.14-0.15-0.23l-0.15-0.77l4.83-6.43h1.41V101.47z M117.66,97.79
		c0-0.14,0-0.29,0.01-0.45s0.03-0.33,0.05-0.51l-3.38,4.64h3.32V97.79z"/>
</g>
<g>
</g>
<g>
	<path class="st2" d="M118.97,126.47h1.39v0.87c0,0.08-0.03,0.16-0.08,0.22s-0.13,0.09-0.24,0.09h-1.07v2.54h-1.31v-2.54h-4.36
		c-0.11,0-0.2-0.03-0.28-0.09c-0.08-0.06-0.13-0.14-0.15-0.23l-0.15-0.77l4.83-6.43h1.41V126.47z M117.66,122.79
		c0-0.14,0-0.29,0.01-0.45s0.03-0.33,0.05-0.51l-3.38,4.64h3.32V122.79z"/>
</g>
<g>
</g>
<g>
	<path class="st2" d="M124.75,145.76c0,0.21-0.07,0.39-0.2,0.52c-0.14,0.14-0.36,0.2-0.68,0.2h-2.95l-0.41,2.34
		c0.48-0.1,0.92-0.15,1.33-0.15c0.53,0,0.99,0.08,1.39,0.23s0.74,0.37,1.01,0.65c0.27,0.28,0.48,0.6,0.62,0.97
		c0.14,0.37,0.21,0.77,0.21,1.21c0,0.54-0.09,1.02-0.28,1.46c-0.19,0.44-0.44,0.81-0.78,1.12c-0.33,0.31-0.72,0.55-1.17,0.72
		c-0.45,0.17-0.94,0.25-1.46,0.25c-0.31,0-0.6-0.03-0.88-0.09c-0.28-0.06-0.54-0.14-0.78-0.25c-0.24-0.1-0.47-0.23-0.67-0.36
		s-0.39-0.28-0.55-0.43l0.46-0.64c0.1-0.14,0.23-0.21,0.39-0.21c0.1,0,0.21,0.04,0.33,0.11c0.12,0.08,0.26,0.16,0.42,0.24
		c0.16,0.09,0.35,0.17,0.57,0.24c0.22,0.08,0.48,0.11,0.78,0.11c0.33,0,0.63-0.05,0.89-0.16c0.26-0.11,0.48-0.26,0.66-0.45
		s0.32-0.42,0.41-0.7c0.09-0.27,0.14-0.57,0.14-0.89c0-0.29-0.04-0.56-0.13-0.79c-0.09-0.23-0.21-0.43-0.38-0.59
		c-0.17-0.16-0.38-0.29-0.64-0.37c-0.26-0.09-0.55-0.13-0.89-0.13c-0.25,0-0.5,0.02-0.76,0.06s-0.52,0.11-0.79,0.2l-0.94-0.27
		l0.82-4.81h4.87V145.76z"/>
</g>
<g>
</g>
<g>
	<path class="st2" d="M50.26,120.12v1.32h-4.63v3.22h3.94v1.32h-3.94v4.2h-1.64v-10.07H50.26z"/>
	<path class="st2" d="M53.54,126.54v3.64h-1.64v-10.07h3.13c0.66,0,1.23,0.08,1.71,0.23c0.48,0.15,0.88,0.37,1.2,0.65
		c0.31,0.28,0.55,0.61,0.7,1c0.15,0.39,0.23,0.82,0.23,1.29c0,0.48-0.08,0.92-0.25,1.32s-0.41,0.74-0.73,1.03
		c-0.32,0.29-0.72,0.51-1.2,0.67c-0.48,0.16-1.03,0.24-1.67,0.24H53.54z M53.54,125.25h1.5c0.36,0,0.68-0.05,0.96-0.14
		c0.28-0.09,0.51-0.22,0.69-0.39s0.32-0.38,0.42-0.62c0.09-0.24,0.14-0.51,0.14-0.81c0-0.29-0.05-0.56-0.14-0.79
		c-0.09-0.23-0.23-0.43-0.41-0.59c-0.18-0.16-0.41-0.29-0.69-0.37s-0.6-0.13-0.98-0.13h-1.5V125.25z"/>
	<path class="st2" d="M63.91,120.01c0.39,0,0.74,0.06,1.06,0.18c0.31,0.12,0.58,0.29,0.81,0.49c0.23,0.21,0.4,0.44,0.53,0.71
		c0.13,0.27,0.2,0.54,0.23,0.83l-0.95,0.2c-0.08,0.02-0.16,0.01-0.23-0.03c-0.07-0.04-0.13-0.11-0.16-0.21
		c-0.04-0.12-0.09-0.24-0.16-0.36c-0.07-0.12-0.16-0.22-0.26-0.32c-0.1-0.09-0.22-0.17-0.37-0.23c-0.14-0.06-0.31-0.09-0.49-0.09
		c-0.21,0-0.41,0.04-0.58,0.11c-0.17,0.07-0.31,0.17-0.43,0.29c-0.12,0.12-0.21,0.27-0.27,0.43c-0.06,0.16-0.09,0.34-0.09,0.52
		c0,0.15,0.02,0.29,0.05,0.43c0.03,0.14,0.09,0.28,0.16,0.42c0.07,0.14,0.17,0.28,0.28,0.43c0.11,0.15,0.25,0.3,0.42,0.47l2.78,2.86
		c0.16-0.3,0.29-0.62,0.39-0.96c0.1-0.33,0.17-0.67,0.2-1.01c0.01-0.1,0.04-0.18,0.1-0.23c0.06-0.06,0.13-0.09,0.22-0.09h0.93
		c0,0.58-0.09,1.14-0.26,1.68c-0.17,0.54-0.41,1.04-0.72,1.5l2.11,2.17h-1.46c-0.08,0-0.15,0-0.21-0.01
		c-0.06-0.01-0.12-0.02-0.17-0.05c-0.05-0.02-0.1-0.05-0.15-0.09s-0.1-0.09-0.16-0.15l-0.84-0.85c-0.44,0.39-0.94,0.7-1.51,0.92
		s-1.17,0.34-1.83,0.34c-0.38,0-0.76-0.07-1.12-0.2c-0.37-0.13-0.69-0.32-0.98-0.56c-0.29-0.25-0.52-0.54-0.7-0.89
		c-0.18-0.35-0.27-0.75-0.27-1.19c0-0.32,0.05-0.62,0.16-0.91c0.1-0.29,0.25-0.55,0.44-0.8c0.19-0.24,0.41-0.46,0.67-0.66
		s0.54-0.36,0.85-0.5c-0.27-0.35-0.46-0.69-0.58-1.03s-0.18-0.68-0.18-1.02s0.06-0.67,0.19-0.98c0.13-0.31,0.31-0.58,0.55-0.8
		c0.24-0.23,0.53-0.41,0.87-0.54C63.09,120.07,63.48,120.01,63.91,120.01z M63.12,129.08c0.46,0,0.88-0.08,1.26-0.23
		s0.71-0.37,1.01-0.63l-2.8-2.85c-0.43,0.25-0.75,0.54-0.95,0.88s-0.31,0.7-0.31,1.09c0,0.27,0.05,0.52,0.15,0.74s0.23,0.4,0.4,0.55
		c0.17,0.15,0.36,0.26,0.57,0.34C62.66,129.04,62.88,129.08,63.12,129.08z"/>
	<path class="st2" d="M78.89,130.18h-1.27c-0.14,0-0.26-0.04-0.35-0.11s-0.16-0.16-0.2-0.27l-0.84-2.22H71.9l-0.84,2.22
		c-0.04,0.09-0.1,0.18-0.2,0.26c-0.09,0.08-0.21,0.12-0.35,0.12h-1.27l3.99-10.07h1.66L78.89,130.18z M72.34,126.41h3.45l-1.38-3.68
		c-0.06-0.14-0.11-0.3-0.17-0.48s-0.12-0.39-0.17-0.6c-0.06,0.22-0.11,0.42-0.17,0.61c-0.06,0.18-0.11,0.35-0.16,0.49L72.34,126.41z
		"/>
</g>
<g>
</g>
<g>
	<path class="st2" d="M52.56,26.66c0.06,0.14,0.12,0.29,0.17,0.44c0.06-0.15,0.12-0.3,0.18-0.44c0.06-0.15,0.13-0.29,0.2-0.42
		l3.18-5.84c0.07-0.13,0.14-0.21,0.22-0.23c0.08-0.03,0.19-0.04,0.34-0.04h1.22v10.07h-1.44v-6.9c0-0.11,0-0.23,0.01-0.36
		c0.01-0.13,0.02-0.26,0.02-0.4l-3.23,5.97c-0.13,0.25-0.32,0.37-0.58,0.37h-0.23c-0.27,0-0.46-0.12-0.58-0.37l-3.29-5.99
		c0.01,0.14,0.03,0.28,0.03,0.41s0.01,0.26,0.01,0.37v6.9h-1.44V20.12h1.22c0.14,0,0.26,0.01,0.34,0.04
		c0.08,0.03,0.15,0.1,0.22,0.23l3.23,5.85C52.43,26.38,52.49,26.52,52.56,26.66z"/>
	<path class="st2" d="M63.94,20.01c0.39,0,0.74,0.06,1.06,0.18s0.58,0.28,0.81,0.49s0.4,0.44,0.53,0.71
		c0.13,0.27,0.2,0.54,0.23,0.82l-0.95,0.2c-0.08,0.02-0.16,0.01-0.23-0.04c-0.07-0.04-0.13-0.11-0.16-0.21
		c-0.04-0.12-0.09-0.24-0.16-0.36c-0.07-0.12-0.16-0.23-0.26-0.32s-0.22-0.17-0.37-0.23c-0.14-0.06-0.31-0.09-0.49-0.09
		c-0.21,0-0.41,0.04-0.58,0.1c-0.17,0.07-0.31,0.17-0.43,0.29c-0.12,0.12-0.21,0.27-0.27,0.43c-0.06,0.16-0.09,0.34-0.09,0.52
		c0,0.15,0.02,0.29,0.05,0.43c0.03,0.14,0.09,0.28,0.16,0.42c0.07,0.14,0.17,0.28,0.28,0.43c0.11,0.15,0.25,0.3,0.42,0.47l2.78,2.86
		c0.16-0.3,0.29-0.62,0.39-0.96s0.17-0.67,0.2-1.01c0.01-0.1,0.04-0.18,0.1-0.23c0.06-0.06,0.13-0.09,0.22-0.09h0.93
		c0,0.58-0.09,1.14-0.26,1.68c-0.17,0.54-0.41,1.04-0.72,1.5l2.11,2.17h-1.46c-0.08,0-0.15,0-0.21-0.01
		c-0.06-0.01-0.12-0.02-0.17-0.05s-0.1-0.05-0.15-0.09c-0.05-0.04-0.1-0.09-0.16-0.15l-0.84-0.85c-0.44,0.39-0.94,0.7-1.51,0.92
		s-1.17,0.34-1.83,0.34c-0.38,0-0.76-0.07-1.12-0.2s-0.69-0.32-0.98-0.56c-0.29-0.24-0.52-0.54-0.7-0.9
		c-0.18-0.35-0.27-0.75-0.27-1.19c0-0.32,0.05-0.62,0.16-0.91c0.1-0.29,0.25-0.55,0.44-0.8c0.19-0.24,0.41-0.46,0.67-0.66
		s0.54-0.36,0.85-0.5c-0.27-0.35-0.46-0.69-0.58-1.03s-0.18-0.68-0.18-1.02c0-0.35,0.06-0.67,0.19-0.98
		c0.13-0.31,0.31-0.58,0.55-0.8c0.24-0.23,0.53-0.41,0.87-0.54C63.12,20.08,63.51,20.01,63.94,20.01z M63.15,29.08
		c0.46,0,0.88-0.08,1.26-0.23c0.38-0.16,0.71-0.37,1.01-0.63l-2.8-2.85c-0.43,0.25-0.75,0.55-0.95,0.88s-0.31,0.7-0.31,1.09
		c0,0.27,0.05,0.52,0.15,0.74c0.1,0.22,0.23,0.4,0.4,0.55c0.17,0.15,0.36,0.26,0.57,0.34S62.91,29.08,63.15,29.08z"/>
	<path class="st2" d="M78.92,30.19h-1.27c-0.14,0-0.26-0.04-0.35-0.11s-0.16-0.16-0.2-0.27l-0.84-2.22h-4.33l-0.84,2.22
		c-0.04,0.09-0.1,0.18-0.2,0.26c-0.09,0.08-0.21,0.12-0.35,0.12h-1.27l3.99-10.07h1.66L78.92,30.19z M72.37,26.41h3.45l-1.38-3.68
		c-0.06-0.14-0.11-0.3-0.17-0.48s-0.12-0.39-0.17-0.6c-0.06,0.22-0.11,0.42-0.17,0.6c-0.06,0.18-0.11,0.35-0.16,0.49L72.37,26.41z"
		/>
</g>
<g>
</g>
<g>
	<path class="st2" d="M27.83,55.18v-7.13h0.87c0.16,0,0.27,0.03,0.33,0.09c0.06,0.06,0.1,0.16,0.13,0.3l0.08,0.93
		c0.23-0.45,0.5-0.81,0.82-1.07c0.32-0.26,0.7-0.39,1.14-0.39c0.15,0,0.3,0.02,0.43,0.05c0.14,0.03,0.26,0.09,0.36,0.16l-0.1,1.13
		c-0.02,0.08-0.05,0.13-0.09,0.16s-0.09,0.05-0.16,0.05c-0.07,0-0.17-0.01-0.3-0.04c-0.13-0.03-0.27-0.04-0.41-0.04
		c-0.21,0-0.4,0.03-0.56,0.09s-0.31,0.15-0.43,0.27c-0.13,0.12-0.24,0.26-0.34,0.43c-0.1,0.17-0.19,0.36-0.27,0.57v4.43H27.83z"/>
	<path class="st2" d="M35.97,47.94c0.44,0,0.84,0.07,1.22,0.21c0.37,0.14,0.69,0.35,0.96,0.63c0.27,0.27,0.48,0.61,0.63,1.01
		s0.23,0.85,0.23,1.36c0,0.23-0.03,0.39-0.08,0.47s-0.14,0.12-0.28,0.12h-4.58c0.02,0.41,0.08,0.76,0.19,1.05s0.25,0.54,0.43,0.74
		c0.18,0.2,0.39,0.34,0.64,0.44c0.25,0.1,0.53,0.14,0.83,0.14c0.29,0,0.55-0.03,0.76-0.1c0.21-0.07,0.4-0.14,0.56-0.22
		c0.16-0.08,0.29-0.16,0.41-0.22c0.11-0.07,0.21-0.1,0.31-0.1c0.12,0,0.21,0.05,0.28,0.14l0.43,0.55c-0.18,0.21-0.38,0.39-0.6,0.53
		c-0.22,0.14-0.46,0.26-0.71,0.35c-0.25,0.09-0.51,0.16-0.78,0.2s-0.52,0.06-0.78,0.06c-0.49,0-0.95-0.08-1.37-0.25
		c-0.42-0.17-0.79-0.41-1.1-0.73c-0.31-0.32-0.55-0.72-0.73-1.2c-0.17-0.48-0.26-1.02-0.26-1.64c0-0.49,0.08-0.96,0.23-1.38
		s0.38-0.8,0.67-1.12c0.29-0.32,0.65-0.57,1.06-0.75S35.44,47.94,35.97,47.94z M36,49.03c-0.54,0-0.97,0.16-1.29,0.47
		c-0.31,0.31-0.51,0.75-0.59,1.31h3.54c0-0.25-0.04-0.49-0.11-0.7c-0.07-0.22-0.18-0.41-0.32-0.57c-0.14-0.16-0.31-0.29-0.52-0.38
		C36.51,49.08,36.27,49.03,36,49.03z"/>
	<path class="st2" d="M44.68,49.35c-0.04,0.06-0.08,0.11-0.13,0.14c-0.05,0.03-0.1,0.04-0.17,0.04c-0.08,0-0.17-0.02-0.26-0.07
		c-0.09-0.05-0.2-0.1-0.33-0.16c-0.13-0.06-0.27-0.12-0.44-0.16c-0.17-0.05-0.37-0.07-0.6-0.07c-0.19,0-0.35,0.02-0.51,0.07
		c-0.15,0.04-0.28,0.11-0.38,0.19s-0.19,0.18-0.24,0.29c-0.06,0.11-0.08,0.23-0.08,0.35c0,0.17,0.05,0.31,0.15,0.42
		s0.24,0.21,0.41,0.29c0.17,0.08,0.36,0.15,0.57,0.22c0.21,0.06,0.43,0.14,0.66,0.21c0.22,0.07,0.44,0.16,0.66,0.26
		c0.21,0.1,0.41,0.22,0.57,0.36c0.17,0.14,0.3,0.31,0.41,0.52c0.1,0.2,0.15,0.45,0.15,0.74c0,0.34-0.06,0.65-0.18,0.93
		s-0.3,0.53-0.53,0.74c-0.23,0.21-0.52,0.37-0.87,0.49c-0.35,0.12-0.74,0.17-1.19,0.17c-0.25,0-0.49-0.02-0.72-0.07
		c-0.23-0.04-0.45-0.1-0.66-0.18c-0.21-0.08-0.4-0.17-0.58-0.28c-0.18-0.11-0.34-0.22-0.48-0.35l0.35-0.57
		c0.04-0.07,0.09-0.12,0.16-0.16c0.06-0.04,0.14-0.06,0.23-0.06c0.1,0,0.19,0.03,0.29,0.09c0.1,0.06,0.21,0.13,0.34,0.21
		c0.13,0.07,0.28,0.14,0.46,0.21c0.18,0.06,0.41,0.09,0.68,0.09c0.22,0,0.42-0.03,0.58-0.08c0.16-0.05,0.3-0.13,0.41-0.22
		c0.11-0.09,0.19-0.2,0.24-0.32c0.05-0.12,0.08-0.25,0.08-0.38c0-0.18-0.05-0.33-0.15-0.45c-0.1-0.12-0.24-0.22-0.41-0.3
		c-0.17-0.08-0.36-0.16-0.58-0.22c-0.22-0.07-0.44-0.14-0.66-0.21c-0.22-0.07-0.44-0.16-0.66-0.26c-0.22-0.1-0.41-0.22-0.58-0.37
		c-0.17-0.15-0.31-0.34-0.41-0.55s-0.15-0.48-0.15-0.79c0-0.28,0.06-0.55,0.17-0.81c0.11-0.26,0.28-0.48,0.5-0.68
		c0.22-0.2,0.49-0.35,0.82-0.46c0.32-0.11,0.7-0.17,1.12-0.17c0.48,0,0.92,0.08,1.31,0.23c0.39,0.15,0.72,0.36,0.99,0.63
		L44.68,49.35z"/>
	<path class="st2" d="M48.82,55.29c-0.59,0-1.05-0.17-1.37-0.5c-0.32-0.33-0.48-0.8-0.48-1.41v-4.15H46.2
		c-0.08,0-0.16-0.03-0.22-0.08s-0.09-0.13-0.09-0.24V48.3l1.15-0.17l0.33-2.06c0.02-0.08,0.06-0.14,0.12-0.19
		c0.06-0.05,0.13-0.07,0.22-0.07h0.77v2.34h1.98v1.08h-1.98v4.05c0,0.26,0.06,0.45,0.19,0.59c0.13,0.14,0.29,0.2,0.5,0.2
		c0.12,0,0.22-0.02,0.3-0.05s0.16-0.06,0.22-0.1c0.06-0.03,0.11-0.07,0.16-0.1c0.04-0.03,0.09-0.05,0.13-0.05
		c0.08,0,0.15,0.05,0.2,0.14l0.45,0.73c-0.23,0.21-0.51,0.36-0.82,0.47S49.16,55.29,48.82,55.29z"/>
	<path class="st2" d="M51.65,55.18v-7.13h0.87c0.16,0,0.27,0.03,0.33,0.09c0.06,0.06,0.1,0.16,0.13,0.3l0.08,0.93
		c0.23-0.45,0.5-0.81,0.82-1.07c0.32-0.26,0.7-0.39,1.14-0.39c0.15,0,0.3,0.02,0.43,0.05c0.14,0.03,0.26,0.09,0.36,0.16l-0.1,1.13
		c-0.02,0.08-0.05,0.13-0.09,0.16s-0.09,0.05-0.16,0.05c-0.07,0-0.17-0.01-0.3-0.04c-0.13-0.03-0.27-0.04-0.41-0.04
		c-0.21,0-0.4,0.03-0.56,0.09s-0.31,0.15-0.43,0.27c-0.13,0.12-0.24,0.26-0.34,0.43c-0.1,0.17-0.19,0.36-0.27,0.57v4.43H51.65z"/>
	<path class="st2" d="M58.24,48.05v4.54c0,0.48,0.11,0.85,0.33,1.12s0.56,0.4,1.01,0.4c0.33,0,0.64-0.08,0.93-0.23
		s0.56-0.36,0.81-0.63v-5.2h1.5v7.13h-0.91c-0.2,0-0.33-0.1-0.38-0.29l-0.11-0.66c-0.3,0.32-0.64,0.57-1,0.77s-0.79,0.29-1.28,0.29
		c-0.39,0-0.74-0.07-1.03-0.2c-0.3-0.13-0.55-0.31-0.75-0.55c-0.2-0.24-0.36-0.52-0.46-0.86c-0.1-0.33-0.15-0.7-0.15-1.1v-4.54
		H58.24z"/>
	<path class="st2" d="M69.7,49.45c-0.05,0.06-0.09,0.11-0.13,0.14c-0.04,0.03-0.1,0.05-0.18,0.05c-0.08,0-0.16-0.03-0.25-0.08
		c-0.09-0.06-0.19-0.12-0.31-0.19c-0.12-0.07-0.26-0.13-0.43-0.19c-0.17-0.06-0.38-0.08-0.63-0.08c-0.33,0-0.61,0.06-0.86,0.17
		c-0.24,0.12-0.45,0.28-0.62,0.5s-0.29,0.48-0.37,0.79c-0.08,0.31-0.12,0.66-0.12,1.04c0,0.4,0.04,0.76,0.13,1.07
		c0.09,0.31,0.22,0.58,0.38,0.79s0.37,0.38,0.6,0.49s0.5,0.17,0.79,0.17c0.29,0,0.52-0.03,0.71-0.1c0.18-0.07,0.33-0.15,0.45-0.23
		c0.12-0.08,0.22-0.16,0.31-0.23c0.09-0.07,0.18-0.1,0.28-0.1c0.12,0,0.21,0.05,0.28,0.14l0.43,0.55c-0.17,0.21-0.36,0.39-0.57,0.53
		c-0.21,0.14-0.43,0.26-0.66,0.35s-0.48,0.16-0.73,0.2c-0.25,0.04-0.51,0.06-0.76,0.06c-0.44,0-0.86-0.08-1.24-0.25
		c-0.38-0.17-0.72-0.41-1.01-0.72c-0.29-0.31-0.51-0.7-0.68-1.15c-0.17-0.45-0.25-0.97-0.25-1.56c0-0.53,0.07-1.01,0.22-1.46
		c0.15-0.45,0.37-0.84,0.65-1.16s0.64-0.58,1.07-0.77c0.42-0.18,0.91-0.28,1.47-0.28c0.52,0,0.97,0.08,1.37,0.25
		c0.39,0.17,0.74,0.41,1.05,0.71L69.7,49.45z"/>
	<path class="st2" d="M73.67,55.29c-0.59,0-1.05-0.17-1.37-0.5c-0.32-0.33-0.48-0.8-0.48-1.41v-4.15h-0.78
		c-0.08,0-0.16-0.03-0.22-0.08s-0.09-0.13-0.09-0.24V48.3l1.15-0.17l0.33-2.06c0.02-0.08,0.06-0.14,0.12-0.19
		c0.06-0.05,0.13-0.07,0.22-0.07h0.77v2.34h1.98v1.08h-1.98v4.05c0,0.26,0.06,0.45,0.19,0.59c0.13,0.14,0.29,0.2,0.5,0.2
		c0.12,0,0.22-0.02,0.3-0.05s0.16-0.06,0.22-0.1c0.06-0.03,0.11-0.07,0.16-0.1c0.04-0.03,0.09-0.05,0.13-0.05
		c0.08,0,0.15,0.05,0.2,0.14l0.45,0.73c-0.23,0.21-0.51,0.36-0.82,0.47S74.01,55.29,73.67,55.29z"/>
	<path class="st2" d="M76.27,54.32c0-0.14,0.02-0.26,0.07-0.38c0.05-0.12,0.12-0.22,0.2-0.31c0.09-0.09,0.19-0.16,0.31-0.21
		c0.12-0.05,0.25-0.08,0.38-0.08c0.14,0,0.26,0.03,0.38,0.08c0.12,0.05,0.22,0.12,0.31,0.21c0.09,0.09,0.16,0.19,0.21,0.31
		c0.05,0.12,0.08,0.25,0.08,0.38c0,0.14-0.03,0.27-0.08,0.38c-0.05,0.12-0.12,0.22-0.21,0.31c-0.09,0.09-0.19,0.16-0.31,0.21
		c-0.12,0.05-0.25,0.07-0.38,0.07c-0.13,0-0.26-0.02-0.38-0.07c-0.12-0.05-0.22-0.12-0.31-0.21c-0.09-0.09-0.15-0.19-0.2-0.31
		C76.29,54.58,76.27,54.46,76.27,54.32z"/>
</g>
<g>
</g>
<g>
	<path class="st2" d="M11.31,80.18v-5.93l-0.7-0.1c-0.12-0.02-0.21-0.07-0.28-0.13s-0.11-0.15-0.11-0.26v-0.61h1.09v-0.6
		c0-0.41,0.06-0.77,0.18-1.09c0.12-0.32,0.29-0.59,0.51-0.82s0.49-0.4,0.81-0.51s0.67-0.18,1.07-0.18c0.16,0,0.32,0.01,0.46,0.04
		s0.29,0.06,0.43,0.1l-0.03,0.75c-0.01,0.13-0.07,0.2-0.19,0.22c-0.11,0.02-0.26,0.03-0.43,0.03c-0.21,0-0.4,0.02-0.57,0.07
		c-0.17,0.05-0.31,0.13-0.43,0.25c-0.12,0.12-0.21,0.27-0.27,0.46c-0.06,0.19-0.09,0.43-0.09,0.71v0.55h1.95v1.08h-1.9v5.95H11.31z"
		/>
	<path class="st2" d="M17.23,73.05v4.54c0,0.48,0.11,0.85,0.33,1.12s0.56,0.4,1.01,0.4c0.33,0,0.64-0.08,0.93-0.23
		s0.56-0.36,0.81-0.63v-5.2h1.5v7.13H20.9c-0.2,0-0.33-0.1-0.38-0.29l-0.11-0.66c-0.3,0.32-0.64,0.57-1,0.77s-0.79,0.29-1.28,0.29
		c-0.39,0-0.74-0.07-1.03-0.2c-0.3-0.13-0.55-0.31-0.75-0.55c-0.2-0.24-0.36-0.52-0.46-0.86c-0.1-0.33-0.15-0.7-0.15-1.1v-4.54
		H17.23z"/>
	<path class="st2" d="M23.65,80.18v-7.13h0.91c0.21,0,0.34,0.1,0.39,0.29l0.1,0.66c0.15-0.16,0.31-0.3,0.47-0.43
		c0.17-0.13,0.34-0.24,0.53-0.34c0.19-0.09,0.39-0.17,0.6-0.22c0.21-0.05,0.44-0.08,0.69-0.08c0.39,0,0.73,0.07,1.03,0.2
		s0.55,0.31,0.75,0.55s0.36,0.52,0.46,0.86c0.1,0.33,0.15,0.7,0.15,1.1v4.54h-1.5v-4.54c0-0.48-0.11-0.85-0.33-1.12
		c-0.22-0.27-0.56-0.4-1.01-0.4c-0.34,0-0.65,0.08-0.93,0.23s-0.56,0.36-0.81,0.63v5.19H23.65z"/>
	<path class="st2" d="M36.65,80.18c-0.2,0-0.33-0.1-0.38-0.29l-0.13-0.77c-0.15,0.17-0.31,0.33-0.48,0.47
		c-0.17,0.14-0.35,0.26-0.54,0.37s-0.4,0.18-0.62,0.24c-0.22,0.06-0.45,0.08-0.71,0.08c-0.4,0-0.76-0.08-1.09-0.24
		s-0.61-0.4-0.84-0.7c-0.23-0.31-0.41-0.69-0.54-1.14c-0.13-0.45-0.19-0.98-0.19-1.56c0-0.53,0.07-1.02,0.21-1.48
		c0.14-0.45,0.35-0.84,0.61-1.18c0.27-0.33,0.59-0.59,0.97-0.78c0.38-0.19,0.81-0.28,1.28-0.28c0.42,0,0.78,0.07,1.07,0.2
		s0.56,0.32,0.79,0.56v-3.84h1.5v10.35H36.65z M34.3,79.07c0.38,0,0.71-0.08,0.99-0.24c0.27-0.16,0.53-0.4,0.78-0.71V74.8
		c-0.21-0.27-0.45-0.45-0.7-0.56c-0.25-0.11-0.52-0.16-0.81-0.16c-0.59,0-1.05,0.22-1.38,0.65c-0.33,0.43-0.5,1.07-0.5,1.91
		c0,0.44,0.04,0.81,0.11,1.12c0.07,0.31,0.18,0.56,0.32,0.76c0.14,0.2,0.31,0.34,0.51,0.43C33.82,79.03,34.05,79.07,34.3,79.07z"/>
	<path class="st2" d="M39.38,80.18v-7.13h0.87c0.16,0,0.27,0.03,0.33,0.09c0.06,0.06,0.1,0.16,0.13,0.3l0.08,0.93
		c0.23-0.45,0.5-0.81,0.82-1.07c0.32-0.26,0.7-0.39,1.14-0.39c0.15,0,0.3,0.02,0.43,0.05c0.14,0.03,0.26,0.09,0.36,0.16l-0.1,1.13
		c-0.02,0.08-0.05,0.13-0.09,0.16s-0.09,0.05-0.16,0.05c-0.07,0-0.17-0.01-0.3-0.04c-0.13-0.03-0.27-0.04-0.41-0.04
		c-0.21,0-0.4,0.03-0.56,0.09s-0.31,0.15-0.43,0.27c-0.13,0.12-0.24,0.26-0.34,0.43c-0.1,0.17-0.19,0.36-0.27,0.57v4.43H39.38z"/>
	<path class="st2" d="M49.14,80.18c-0.14,0-0.25-0.02-0.33-0.07s-0.14-0.13-0.19-0.27l-0.15-0.58c-0.18,0.17-0.36,0.31-0.54,0.44
		c-0.18,0.13-0.36,0.23-0.55,0.32c-0.19,0.09-0.39,0.15-0.61,0.2c-0.22,0.04-0.46,0.07-0.72,0.07c-0.29,0-0.56-0.04-0.81-0.12
		c-0.25-0.08-0.46-0.2-0.65-0.36c-0.18-0.16-0.32-0.36-0.43-0.6c-0.1-0.24-0.16-0.52-0.16-0.84c0-0.27,0.07-0.54,0.22-0.8
		c0.15-0.26,0.39-0.5,0.73-0.7c0.34-0.21,0.78-0.38,1.33-0.51c0.55-0.13,1.23-0.21,2.04-0.23v-0.48c0-0.51-0.11-0.9-0.33-1.15
		c-0.22-0.25-0.54-0.38-0.96-0.38c-0.29,0-0.53,0.04-0.73,0.11s-0.37,0.15-0.51,0.23s-0.27,0.16-0.38,0.23s-0.23,0.11-0.36,0.11
		c-0.1,0-0.19-0.03-0.26-0.08s-0.13-0.12-0.18-0.2l-0.27-0.49c0.81-0.75,1.77-1.13,2.88-1.13c0.41,0,0.77,0.07,1.09,0.2
		c0.32,0.13,0.59,0.32,0.8,0.56c0.22,0.24,0.38,0.53,0.5,0.86c0.11,0.33,0.17,0.7,0.17,1.11v4.53H49.14z M46.52,79.24
		c0.39,0,0.73-0.07,1.01-0.22c0.28-0.15,0.56-0.36,0.82-0.63v-1.33c-0.54,0.02-0.99,0.07-1.36,0.13c-0.37,0.07-0.67,0.15-0.89,0.26
		c-0.23,0.11-0.39,0.23-0.49,0.37c-0.1,0.14-0.15,0.3-0.15,0.47c0,0.17,0.03,0.31,0.08,0.43c0.05,0.12,0.13,0.22,0.22,0.29
		c0.1,0.08,0.21,0.13,0.34,0.17C46.22,79.22,46.36,79.24,46.52,79.24z"/>
	<path class="st2" d="M53.38,70.9c0,0.14-0.03,0.26-0.08,0.38c-0.05,0.12-0.13,0.23-0.22,0.32s-0.2,0.16-0.33,0.22
		c-0.12,0.05-0.25,0.08-0.4,0.08c-0.14,0-0.26-0.03-0.38-0.08c-0.12-0.05-0.22-0.13-0.31-0.22s-0.16-0.2-0.21-0.32
		c-0.05-0.12-0.08-0.25-0.08-0.38c0-0.14,0.03-0.27,0.08-0.39c0.05-0.12,0.13-0.23,0.21-0.32s0.19-0.16,0.31-0.22
		c0.12-0.05,0.25-0.08,0.38-0.08c0.14,0,0.27,0.03,0.4,0.08c0.12,0.05,0.23,0.13,0.33,0.22s0.17,0.2,0.22,0.32
		C53.35,70.63,53.38,70.76,53.38,70.9z M53.13,73.05v7.13h-1.5v-7.13H53.13z"/>
	<path class="st2" d="M59.29,74.34c-0.04,0.06-0.08,0.11-0.13,0.14c-0.05,0.03-0.1,0.04-0.17,0.04c-0.08,0-0.17-0.02-0.26-0.07
		c-0.09-0.05-0.2-0.1-0.33-0.16c-0.13-0.06-0.27-0.12-0.44-0.16c-0.17-0.05-0.37-0.07-0.6-0.07c-0.19,0-0.35,0.02-0.51,0.07
		c-0.15,0.04-0.28,0.11-0.38,0.19s-0.19,0.18-0.24,0.29c-0.06,0.11-0.08,0.23-0.08,0.35c0,0.17,0.05,0.31,0.15,0.42
		s0.24,0.21,0.41,0.29c0.17,0.08,0.36,0.15,0.57,0.22c0.21,0.06,0.43,0.14,0.66,0.21c0.22,0.07,0.44,0.16,0.66,0.26
		c0.21,0.1,0.41,0.22,0.57,0.36c0.17,0.14,0.3,0.31,0.41,0.52c0.1,0.2,0.15,0.45,0.15,0.74c0,0.34-0.06,0.65-0.18,0.93
		s-0.3,0.53-0.53,0.74c-0.23,0.21-0.52,0.37-0.87,0.49c-0.35,0.12-0.74,0.17-1.19,0.17c-0.25,0-0.49-0.02-0.72-0.07
		c-0.23-0.04-0.45-0.1-0.66-0.18c-0.21-0.08-0.4-0.17-0.58-0.28c-0.18-0.11-0.34-0.22-0.48-0.35l0.35-0.57
		c0.04-0.07,0.09-0.12,0.16-0.16c0.06-0.04,0.14-0.06,0.23-0.06c0.1,0,0.19,0.03,0.29,0.09c0.1,0.06,0.21,0.13,0.34,0.21
		c0.13,0.07,0.28,0.14,0.46,0.21c0.18,0.06,0.41,0.09,0.68,0.09c0.22,0,0.42-0.03,0.58-0.08c0.16-0.05,0.3-0.13,0.41-0.22
		c0.11-0.09,0.19-0.2,0.24-0.32c0.05-0.12,0.08-0.25,0.08-0.38c0-0.18-0.05-0.33-0.15-0.45c-0.1-0.12-0.24-0.22-0.41-0.3
		c-0.17-0.08-0.36-0.16-0.58-0.22c-0.22-0.07-0.44-0.14-0.66-0.21c-0.22-0.07-0.44-0.16-0.66-0.26c-0.22-0.1-0.41-0.22-0.58-0.37
		c-0.17-0.15-0.31-0.34-0.41-0.55s-0.15-0.48-0.15-0.79c0-0.28,0.06-0.55,0.17-0.81c0.11-0.26,0.28-0.48,0.5-0.68
		c0.22-0.2,0.49-0.35,0.82-0.46c0.32-0.11,0.7-0.17,1.12-0.17c0.48,0,0.92,0.08,1.31,0.23c0.39,0.15,0.72,0.36,0.99,0.63
		L59.29,74.34z"/>
	<path class="st2" d="M62.97,70.9c0,0.14-0.03,0.26-0.08,0.38c-0.05,0.12-0.13,0.23-0.22,0.32s-0.2,0.16-0.33,0.22
		c-0.12,0.05-0.25,0.08-0.4,0.08c-0.14,0-0.26-0.03-0.38-0.08c-0.12-0.05-0.22-0.13-0.31-0.22s-0.16-0.2-0.21-0.32
		c-0.05-0.12-0.08-0.25-0.08-0.38c0-0.14,0.03-0.27,0.08-0.39c0.05-0.12,0.13-0.23,0.21-0.32s0.19-0.16,0.31-0.22
		c0.12-0.05,0.25-0.08,0.38-0.08c0.14,0,0.27,0.03,0.4,0.08c0.12,0.05,0.23,0.13,0.33,0.22s0.17,0.2,0.22,0.32
		C62.94,70.63,62.97,70.76,62.97,70.9z M62.72,73.05v7.13h-1.5v-7.13H62.72z"/>
	<path class="st2" d="M64.63,80.18v-7.13h0.91c0.21,0,0.34,0.1,0.39,0.29l0.1,0.66c0.15-0.16,0.31-0.3,0.47-0.43
		c0.17-0.13,0.34-0.24,0.53-0.34c0.19-0.09,0.39-0.17,0.6-0.22c0.21-0.05,0.44-0.08,0.69-0.08c0.39,0,0.73,0.07,1.03,0.2
		s0.55,0.31,0.75,0.55s0.36,0.52,0.46,0.86c0.1,0.33,0.15,0.7,0.15,1.1v4.54h-1.5v-4.54c0-0.48-0.11-0.85-0.33-1.12
		c-0.22-0.27-0.56-0.4-1.01-0.4c-0.34,0-0.65,0.08-0.93,0.23s-0.56,0.36-0.81,0.63v5.19H64.63z"/>
	<path class="st2" d="M75.03,72.92c0.31,0,0.6,0.03,0.86,0.1c0.27,0.07,0.51,0.16,0.74,0.28h2v0.56c0,0.19-0.11,0.3-0.34,0.34
		l-0.71,0.12c0.12,0.28,0.18,0.58,0.18,0.9c0,0.35-0.07,0.67-0.21,0.95c-0.14,0.28-0.33,0.53-0.57,0.73
		c-0.24,0.2-0.53,0.35-0.87,0.46c-0.34,0.11-0.7,0.16-1.09,0.16c-0.15,0-0.29-0.01-0.44-0.02c-0.14-0.02-0.28-0.04-0.42-0.07
		c-0.14,0.08-0.24,0.16-0.3,0.25c-0.07,0.09-0.1,0.18-0.1,0.27c0,0.15,0.07,0.27,0.2,0.34c0.14,0.07,0.31,0.13,0.53,0.16
		s0.47,0.05,0.76,0.06s0.57,0.03,0.87,0.05c0.29,0.02,0.58,0.06,0.87,0.12s0.54,0.14,0.76,0.27c0.22,0.12,0.4,0.29,0.53,0.5
		c0.14,0.21,0.2,0.48,0.2,0.82c0,0.31-0.08,0.61-0.23,0.9s-0.38,0.55-0.67,0.78c-0.29,0.23-0.65,0.41-1.07,0.55
		c-0.42,0.14-0.9,0.21-1.43,0.21c-0.53,0-0.99-0.05-1.39-0.15c-0.39-0.1-0.72-0.24-0.99-0.42c-0.26-0.17-0.46-0.38-0.59-0.6
		c-0.13-0.23-0.19-0.47-0.19-0.71c0-0.34,0.11-0.62,0.32-0.86c0.21-0.24,0.5-0.42,0.86-0.56c-0.2-0.09-0.35-0.22-0.47-0.38
		c-0.12-0.16-0.18-0.38-0.18-0.64c0-0.1,0.02-0.21,0.06-0.32c0.04-0.11,0.09-0.22,0.17-0.33c0.08-0.11,0.17-0.21,0.29-0.31
		c0.11-0.1,0.25-0.19,0.4-0.27c-0.35-0.2-0.63-0.46-0.84-0.78s-0.3-0.71-0.3-1.14c0-0.35,0.07-0.67,0.21-0.96
		c0.14-0.28,0.33-0.53,0.58-0.73c0.25-0.2,0.54-0.35,0.88-0.46C74.26,72.98,74.63,72.92,75.03,72.92z M77.12,80.53
		c0-0.15-0.05-0.28-0.14-0.37c-0.09-0.1-0.21-0.17-0.37-0.23c-0.15-0.06-0.33-0.1-0.54-0.12c-0.21-0.02-0.43-0.04-0.65-0.06
		c-0.23-0.01-0.46-0.03-0.71-0.04s-0.48-0.03-0.7-0.07c-0.22,0.12-0.41,0.26-0.54,0.42s-0.21,0.35-0.21,0.57
		c0,0.14,0.04,0.27,0.11,0.39s0.18,0.23,0.34,0.31c0.15,0.09,0.35,0.16,0.58,0.21c0.23,0.05,0.52,0.08,0.85,0.08
		c0.66,0,1.16-0.1,1.49-0.31S77.12,80.85,77.12,80.53z M75.03,76.55c0.47,0,0.82-0.12,1.05-0.36c0.23-0.24,0.35-0.55,0.35-0.93
		c0-0.39-0.12-0.7-0.35-0.93c-0.23-0.23-0.58-0.34-1.05-0.34c-0.46,0-0.81,0.11-1.04,0.34c-0.24,0.23-0.35,0.54-0.35,0.93
		c0,0.19,0.03,0.36,0.09,0.52c0.06,0.16,0.15,0.29,0.27,0.41c0.12,0.11,0.26,0.2,0.44,0.27S74.8,76.55,75.03,76.55z"/>
</g>
<g>
</g>
<g>
	<path class="st2" d="M49.29,147.94c0.53,0,1,0.09,1.43,0.26c0.43,0.17,0.79,0.42,1.09,0.73c0.3,0.32,0.53,0.7,0.7,1.15
		c0.16,0.45,0.24,0.96,0.24,1.52c0,0.56-0.08,1.07-0.24,1.52c-0.16,0.45-0.4,0.84-0.7,1.16c-0.3,0.32-0.66,0.57-1.09,0.74
		c-0.43,0.17-0.9,0.26-1.43,0.26c-0.53,0-1.01-0.09-1.44-0.26c-0.43-0.17-0.79-0.42-1.09-0.74c-0.3-0.32-0.54-0.7-0.7-1.16
		s-0.24-0.96-0.24-1.52c0-0.56,0.08-1.07,0.24-1.52s0.4-0.84,0.7-1.15c0.3-0.32,0.67-0.56,1.09-0.73
		C48.28,148.03,48.76,147.94,49.29,147.94z M49.29,154.11c0.64,0,1.12-0.22,1.44-0.65c0.31-0.43,0.47-1.05,0.47-1.85
		c0-0.8-0.16-1.42-0.47-1.86c-0.31-0.44-0.79-0.65-1.44-0.65c-0.65,0-1.14,0.22-1.45,0.65s-0.48,1.05-0.48,1.86
		c0,0.8,0.16,1.42,0.48,1.85C48.16,153.9,48.64,154.11,49.29,154.11z"/>
	<path class="st2" d="M56.48,155.29c-0.59,0-1.05-0.17-1.37-0.5c-0.32-0.33-0.48-0.8-0.48-1.41v-4.15h-0.78
		c-0.08,0-0.16-0.03-0.22-0.08c-0.06-0.05-0.09-0.13-0.09-0.24v-0.61l1.15-0.17l0.33-2.06c0.02-0.08,0.06-0.14,0.12-0.19
		c0.06-0.05,0.13-0.07,0.22-0.07h0.77v2.34h1.98v1.08h-1.98v4.05c0,0.26,0.06,0.45,0.19,0.59c0.13,0.14,0.29,0.2,0.5,0.2
		c0.12,0,0.22-0.02,0.3-0.05s0.16-0.06,0.22-0.1c0.06-0.04,0.11-0.07,0.16-0.1c0.04-0.03,0.09-0.05,0.13-0.05
		c0.08,0,0.15,0.05,0.2,0.14l0.45,0.73c-0.23,0.21-0.51,0.36-0.82,0.47S56.81,155.29,56.48,155.29z"/>
	<path class="st2" d="M59.3,155.18v-10.34h1.5v4.06c0.29-0.29,0.62-0.52,0.96-0.7c0.35-0.17,0.76-0.26,1.22-0.26
		c0.39,0,0.73,0.06,1.03,0.2s0.55,0.31,0.75,0.55c0.2,0.24,0.36,0.52,0.46,0.86s0.15,0.7,0.15,1.1v4.54h-1.5v-4.54
		c0-0.48-0.11-0.85-0.33-1.12c-0.22-0.27-0.56-0.4-1.01-0.4c-0.34,0-0.65,0.08-0.93,0.23c-0.29,0.15-0.56,0.36-0.81,0.63v5.19H59.3z
		"/>
	<path class="st2" d="M70.14,147.94c0.44,0,0.84,0.07,1.22,0.21c0.37,0.14,0.69,0.35,0.96,0.63c0.27,0.28,0.48,0.61,0.63,1.01
		s0.23,0.85,0.23,1.36c0,0.23-0.03,0.39-0.08,0.47c-0.05,0.08-0.14,0.12-0.28,0.12h-4.58c0.02,0.41,0.08,0.76,0.19,1.05
		c0.11,0.3,0.25,0.54,0.43,0.74c0.18,0.2,0.39,0.34,0.64,0.44c0.25,0.1,0.53,0.14,0.83,0.14c0.29,0,0.55-0.03,0.76-0.1
		c0.21-0.07,0.4-0.14,0.56-0.22c0.16-0.08,0.29-0.16,0.41-0.22s0.21-0.1,0.31-0.1c0.12,0,0.21,0.05,0.28,0.14l0.43,0.55
		c-0.18,0.21-0.38,0.39-0.6,0.53s-0.46,0.26-0.71,0.35c-0.25,0.09-0.51,0.16-0.78,0.2c-0.27,0.04-0.52,0.06-0.78,0.06
		c-0.49,0-0.95-0.08-1.37-0.25c-0.42-0.17-0.79-0.41-1.1-0.73c-0.31-0.32-0.55-0.72-0.73-1.2c-0.17-0.47-0.26-1.02-0.26-1.64
		c0-0.49,0.08-0.96,0.23-1.38s0.38-0.8,0.67-1.12c0.29-0.32,0.65-0.57,1.06-0.75C69.14,148.03,69.62,147.94,70.14,147.94z
		 M70.17,149.03c-0.54,0-0.97,0.16-1.29,0.47c-0.31,0.31-0.51,0.75-0.59,1.31h3.54c0-0.25-0.04-0.49-0.11-0.7
		c-0.07-0.22-0.18-0.41-0.32-0.57c-0.14-0.16-0.31-0.29-0.52-0.38C70.68,149.08,70.44,149.03,70.17,149.03z"/>
	<path class="st2" d="M74.6,155.18v-7.13h0.87c0.16,0,0.27,0.03,0.33,0.09c0.06,0.06,0.1,0.16,0.13,0.3l0.08,0.93
		c0.23-0.45,0.5-0.81,0.82-1.07c0.32-0.26,0.7-0.39,1.14-0.39c0.15,0,0.3,0.02,0.43,0.05s0.26,0.09,0.36,0.16l-0.1,1.13
		c-0.02,0.08-0.05,0.13-0.09,0.17s-0.09,0.04-0.16,0.04c-0.07,0-0.17-0.01-0.3-0.04s-0.27-0.04-0.41-0.04
		c-0.21,0-0.4,0.03-0.56,0.09s-0.31,0.15-0.43,0.27c-0.13,0.12-0.24,0.26-0.34,0.43c-0.1,0.17-0.19,0.36-0.27,0.57v4.43H74.6z"/>
</g>
<g>
</g>
<g>
	<path class="st2" d="M39.77,99.34c-0.04,0.07-0.08,0.11-0.13,0.14c-0.05,0.03-0.1,0.04-0.17,0.04c-0.08,0-0.17-0.02-0.26-0.07
		s-0.2-0.1-0.33-0.16c-0.13-0.06-0.27-0.12-0.44-0.16c-0.17-0.05-0.37-0.07-0.6-0.07c-0.19,0-0.35,0.02-0.51,0.07
		c-0.15,0.04-0.28,0.11-0.38,0.19c-0.1,0.08-0.19,0.18-0.24,0.29c-0.06,0.11-0.08,0.23-0.08,0.35c0,0.17,0.05,0.31,0.15,0.42
		c0.1,0.11,0.24,0.21,0.41,0.29c0.17,0.08,0.36,0.16,0.57,0.22c0.21,0.07,0.43,0.13,0.66,0.21c0.22,0.07,0.44,0.16,0.66,0.26
		c0.21,0.1,0.41,0.22,0.57,0.36c0.17,0.14,0.3,0.31,0.41,0.52c0.1,0.2,0.15,0.45,0.15,0.74c0,0.33-0.06,0.65-0.18,0.93
		s-0.3,0.53-0.53,0.74c-0.23,0.21-0.52,0.37-0.87,0.49c-0.35,0.12-0.74,0.17-1.19,0.17c-0.25,0-0.49-0.02-0.72-0.07
		c-0.23-0.04-0.45-0.11-0.66-0.18c-0.21-0.08-0.4-0.17-0.58-0.28c-0.18-0.11-0.34-0.22-0.48-0.35l0.35-0.57
		c0.04-0.07,0.09-0.13,0.16-0.16c0.06-0.04,0.14-0.06,0.23-0.06c0.1,0,0.19,0.03,0.29,0.09c0.1,0.06,0.21,0.13,0.34,0.21
		c0.13,0.07,0.28,0.14,0.46,0.21c0.18,0.06,0.41,0.09,0.68,0.09c0.22,0,0.42-0.03,0.58-0.08s0.3-0.13,0.41-0.22
		c0.11-0.09,0.19-0.2,0.24-0.32s0.08-0.25,0.08-0.38c0-0.18-0.05-0.33-0.15-0.45s-0.24-0.22-0.41-0.3
		c-0.17-0.08-0.36-0.16-0.58-0.22c-0.22-0.07-0.44-0.13-0.66-0.21c-0.22-0.07-0.44-0.16-0.66-0.26c-0.22-0.1-0.41-0.22-0.58-0.37
		c-0.17-0.15-0.31-0.33-0.41-0.55s-0.15-0.48-0.15-0.79c0-0.28,0.06-0.55,0.17-0.81c0.11-0.26,0.28-0.48,0.5-0.68
		c0.22-0.2,0.49-0.35,0.82-0.46c0.32-0.11,0.7-0.17,1.12-0.17c0.48,0,0.92,0.08,1.31,0.23c0.39,0.15,0.72,0.36,0.99,0.63
		L39.77,99.34z"/>
	<path class="st2" d="M43.92,105.29c-0.59,0-1.05-0.17-1.37-0.5c-0.32-0.33-0.48-0.8-0.48-1.41v-4.15h-0.78
		c-0.08,0-0.16-0.03-0.22-0.08c-0.06-0.05-0.09-0.13-0.09-0.24V98.3l1.15-0.17l0.33-2.06c0.02-0.08,0.06-0.14,0.12-0.19
		c0.06-0.05,0.13-0.07,0.22-0.07h0.77v2.34h1.98v1.08h-1.98v4.05c0,0.26,0.06,0.45,0.19,0.59c0.13,0.14,0.29,0.2,0.5,0.2
		c0.12,0,0.22-0.02,0.3-0.05s0.16-0.06,0.22-0.1c0.06-0.04,0.11-0.07,0.16-0.1c0.04-0.03,0.09-0.05,0.13-0.05
		c0.08,0,0.15,0.05,0.2,0.14l0.45,0.73c-0.23,0.21-0.51,0.36-0.82,0.47S44.25,105.29,43.92,105.29z"/>
	<path class="st2" d="M51.34,105.17c-0.14,0-0.25-0.02-0.33-0.07s-0.14-0.13-0.19-0.27l-0.15-0.58c-0.18,0.17-0.36,0.31-0.54,0.44
		c-0.18,0.13-0.36,0.23-0.55,0.32c-0.19,0.09-0.39,0.15-0.61,0.2c-0.22,0.04-0.46,0.07-0.72,0.07c-0.29,0-0.56-0.04-0.81-0.12
		c-0.25-0.08-0.46-0.2-0.65-0.36c-0.18-0.16-0.32-0.36-0.43-0.6c-0.1-0.24-0.16-0.52-0.16-0.84c0-0.27,0.07-0.54,0.22-0.8
		s0.39-0.5,0.73-0.7s0.78-0.38,1.33-0.51c0.55-0.14,1.23-0.21,2.04-0.23v-0.47c0-0.51-0.11-0.89-0.33-1.15
		c-0.22-0.25-0.54-0.38-0.96-0.38c-0.29,0-0.53,0.04-0.73,0.11s-0.37,0.15-0.51,0.23s-0.27,0.16-0.38,0.23s-0.23,0.11-0.36,0.11
		c-0.1,0-0.19-0.03-0.26-0.08c-0.07-0.05-0.13-0.12-0.18-0.2l-0.27-0.49c0.81-0.75,1.77-1.13,2.88-1.13c0.41,0,0.77,0.07,1.09,0.2
		c0.32,0.13,0.59,0.32,0.8,0.56s0.38,0.53,0.5,0.86c0.11,0.33,0.17,0.7,0.17,1.11v4.53H51.34z M48.72,104.24
		c0.39,0,0.73-0.07,1.01-0.22c0.28-0.15,0.56-0.36,0.82-0.63v-1.33c-0.54,0.02-0.99,0.07-1.36,0.13s-0.67,0.15-0.89,0.26
		c-0.23,0.11-0.39,0.23-0.49,0.37c-0.1,0.14-0.15,0.3-0.15,0.47c0,0.17,0.03,0.31,0.08,0.43c0.05,0.12,0.13,0.22,0.22,0.29
		c0.1,0.08,0.21,0.13,0.34,0.17C48.42,104.22,48.56,104.24,48.72,104.24z"/>
	<path class="st2" d="M53.77,105.17v-7.13h0.87c0.16,0,0.27,0.03,0.33,0.09c0.06,0.06,0.1,0.16,0.13,0.3l0.08,0.93
		c0.23-0.45,0.5-0.81,0.82-1.07c0.32-0.26,0.7-0.39,1.14-0.39c0.15,0,0.3,0.02,0.43,0.05s0.26,0.09,0.36,0.16l-0.1,1.13
		c-0.02,0.08-0.05,0.13-0.09,0.17s-0.09,0.04-0.16,0.04c-0.07,0-0.17-0.01-0.3-0.04s-0.27-0.04-0.41-0.04
		c-0.21,0-0.4,0.03-0.56,0.09s-0.31,0.15-0.43,0.27c-0.13,0.12-0.24,0.26-0.34,0.43c-0.1,0.17-0.19,0.36-0.27,0.57v4.43H53.77z"/>
	<path class="st2" d="M61.21,105.29c-0.59,0-1.05-0.17-1.37-0.5c-0.32-0.33-0.48-0.8-0.48-1.41v-4.15h-0.78
		c-0.08,0-0.16-0.03-0.22-0.08c-0.06-0.05-0.09-0.13-0.09-0.24V98.3l1.15-0.17l0.33-2.06c0.02-0.08,0.06-0.14,0.12-0.19
		c0.06-0.05,0.13-0.07,0.22-0.07h0.77v2.34h1.98v1.08h-1.98v4.05c0,0.26,0.06,0.45,0.19,0.59c0.13,0.14,0.29,0.2,0.5,0.2
		c0.12,0,0.22-0.02,0.3-0.05s0.16-0.06,0.22-0.1c0.06-0.04,0.11-0.07,0.16-0.1c0.04-0.03,0.09-0.05,0.13-0.05
		c0.08,0,0.15,0.05,0.2,0.14l0.45,0.73c-0.23,0.21-0.51,0.36-0.82,0.47S61.55,105.29,61.21,105.29z"/>
	<path class="st2" d="M65.47,98.04v4.54c0,0.48,0.11,0.85,0.33,1.12s0.56,0.4,1.01,0.4c0.33,0,0.64-0.08,0.93-0.23
		s0.56-0.36,0.81-0.63v-5.2h1.5v7.13h-0.91c-0.2,0-0.33-0.1-0.38-0.29l-0.11-0.66c-0.3,0.32-0.64,0.57-1,0.77
		c-0.37,0.2-0.79,0.29-1.28,0.29c-0.39,0-0.74-0.07-1.03-0.2c-0.3-0.13-0.55-0.31-0.75-0.55c-0.2-0.24-0.36-0.52-0.46-0.86
		s-0.15-0.7-0.15-1.1v-4.54H65.47z"/>
	<path class="st2" d="M71.89,107.54v-9.5h0.91c0.21,0,0.34,0.1,0.39,0.29l0.12,0.75c0.15-0.17,0.31-0.33,0.48-0.47
		c0.17-0.14,0.35-0.27,0.54-0.37s0.4-0.18,0.62-0.24c0.22-0.06,0.46-0.08,0.71-0.08c0.4,0,0.76,0.08,1.09,0.24
		c0.33,0.16,0.61,0.39,0.84,0.7c0.23,0.31,0.41,0.69,0.54,1.14c0.13,0.45,0.19,0.97,0.19,1.56c0,0.53-0.07,1.02-0.21,1.47
		s-0.35,0.85-0.61,1.18s-0.59,0.59-0.96,0.78c-0.38,0.19-0.8,0.28-1.28,0.28c-0.42,0-0.78-0.07-1.07-0.2s-0.56-0.32-0.79-0.56v3.02
		H71.89z M75.15,99.12c-0.39,0-0.72,0.08-0.99,0.25c-0.27,0.17-0.53,0.4-0.77,0.71v3.31c0.21,0.27,0.44,0.46,0.69,0.57
		c0.25,0.11,0.53,0.16,0.83,0.16c0.59,0,1.04-0.21,1.37-0.64c0.33-0.43,0.49-1.07,0.49-1.92c0-0.44-0.04-0.81-0.11-1.12
		c-0.07-0.31-0.18-0.56-0.32-0.76c-0.14-0.2-0.31-0.34-0.51-0.43C75.63,99.17,75.41,99.12,75.15,99.12z"/>
</g>
<g>
</g>
<g>
	<path class="st3" d="M145.13,174.76c-0.36,0-0.64-0.1-0.83-0.3c-0.19-0.2-0.29-0.49-0.29-0.87v-2.79h-0.55
		c-0.05,0-0.09-0.01-0.12-0.04s-0.05-0.07-0.05-0.13v-0.32l0.75-0.09l0.18-1.41c0.01-0.04,0.03-0.08,0.06-0.11s0.07-0.04,0.12-0.04
		h0.41v1.57h1.32v0.58h-1.32v2.74c0,0.19,0.05,0.33,0.14,0.43c0.09,0.09,0.21,0.14,0.36,0.14c0.08,0,0.16-0.01,0.22-0.03
		s0.11-0.05,0.16-0.07c0.04-0.03,0.08-0.05,0.12-0.07c0.03-0.02,0.06-0.03,0.08-0.03c0.04,0,0.08,0.03,0.11,0.08l0.23,0.38
		c-0.14,0.13-0.3,0.23-0.5,0.3C145.54,174.72,145.34,174.76,145.13,174.76z"/>
	<path class="st3" d="M148.89,170.05c0.33,0,0.63,0.06,0.9,0.17c0.27,0.11,0.5,0.27,0.68,0.47c0.19,0.2,0.33,0.45,0.43,0.74
		c0.1,0.29,0.15,0.61,0.15,0.97c0,0.36-0.05,0.68-0.15,0.97s-0.25,0.53-0.43,0.74c-0.19,0.2-0.42,0.36-0.68,0.47
		c-0.27,0.11-0.57,0.17-0.9,0.17c-0.34,0-0.64-0.06-0.91-0.17s-0.5-0.27-0.69-0.47c-0.19-0.2-0.33-0.45-0.43-0.74
		s-0.15-0.61-0.15-0.97c0-0.36,0.05-0.68,0.15-0.97c0.1-0.29,0.25-0.54,0.43-0.74c0.19-0.2,0.42-0.36,0.69-0.47
		S148.55,170.05,148.89,170.05z M148.89,174.12c0.45,0,0.79-0.15,1.01-0.45c0.22-0.3,0.33-0.72,0.33-1.26
		c0-0.54-0.11-0.97-0.33-1.27c-0.22-0.3-0.56-0.46-1.01-0.46c-0.23,0-0.43,0.04-0.6,0.12c-0.17,0.08-0.31,0.19-0.42,0.34
		c-0.11,0.15-0.2,0.33-0.25,0.54c-0.06,0.21-0.08,0.46-0.08,0.73c0,0.54,0.11,0.96,0.34,1.26
		C148.09,173.97,148.43,174.12,148.89,174.12z"/>
	<path class="st3" d="M153.47,174.76c-0.36,0-0.64-0.1-0.83-0.3c-0.19-0.2-0.29-0.49-0.29-0.87v-2.79h-0.55
		c-0.05,0-0.09-0.01-0.12-0.04s-0.05-0.07-0.05-0.13v-0.32l0.75-0.09l0.18-1.41c0.01-0.04,0.03-0.08,0.06-0.11s0.07-0.04,0.12-0.04
		h0.41v1.57h1.32v0.58h-1.32v2.74c0,0.19,0.05,0.33,0.14,0.43c0.09,0.09,0.21,0.14,0.36,0.14c0.08,0,0.16-0.01,0.22-0.03
		s0.11-0.05,0.16-0.07c0.04-0.03,0.08-0.05,0.12-0.07c0.03-0.02,0.06-0.03,0.08-0.03c0.04,0,0.08,0.03,0.11,0.08l0.23,0.38
		c-0.14,0.13-0.3,0.23-0.5,0.3C153.88,174.72,153.68,174.76,153.47,174.76z"/>
	<path class="st3" d="M158.21,174.69c-0.08,0-0.14-0.01-0.18-0.04s-0.08-0.08-0.1-0.15l-0.09-0.43c-0.12,0.11-0.24,0.2-0.35,0.29
		c-0.12,0.08-0.24,0.16-0.36,0.22s-0.26,0.1-0.4,0.13c-0.14,0.03-0.3,0.05-0.47,0.05c-0.18,0-0.34-0.03-0.5-0.07
		c-0.16-0.05-0.29-0.12-0.41-0.22c-0.12-0.1-0.21-0.22-0.27-0.38s-0.1-0.33-0.1-0.54c0-0.18,0.05-0.35,0.15-0.52
		c0.1-0.17,0.26-0.31,0.48-0.44c0.22-0.13,0.51-0.23,0.87-0.32c0.36-0.08,0.79-0.13,1.31-0.14v-0.36c0-0.35-0.08-0.62-0.23-0.8
		c-0.15-0.18-0.38-0.27-0.67-0.27c-0.2,0-0.36,0.02-0.5,0.07c-0.13,0.05-0.25,0.1-0.35,0.17s-0.18,0.12-0.25,0.17
		c-0.07,0.05-0.14,0.07-0.21,0.07c-0.05,0-0.1-0.01-0.14-0.04s-0.07-0.06-0.1-0.11l-0.14-0.26c0.25-0.24,0.52-0.42,0.81-0.54
		c0.29-0.12,0.61-0.18,0.97-0.18c0.25,0,0.48,0.04,0.68,0.13c0.2,0.08,0.37,0.2,0.5,0.35c0.13,0.15,0.24,0.33,0.31,0.54
		c0.07,0.21,0.1,0.45,0.1,0.7v2.92H158.21z M156.49,174.2c0.14,0,0.27-0.01,0.39-0.04c0.12-0.03,0.23-0.07,0.33-0.12
		c0.1-0.05,0.2-0.12,0.3-0.19c0.09-0.08,0.19-0.16,0.28-0.26v-0.94c-0.37,0.01-0.68,0.04-0.94,0.09c-0.26,0.05-0.47,0.11-0.63,0.18
		c-0.16,0.08-0.28,0.16-0.36,0.27c-0.07,0.1-0.11,0.22-0.11,0.34c0,0.12,0.02,0.22,0.06,0.31s0.09,0.16,0.16,0.21
		s0.15,0.1,0.24,0.12C156.28,174.18,156.38,174.2,156.49,174.2z"/>
	<path class="st3" d="M160.64,168.06v6.63h-0.8v-6.63H160.64z"/>
</g>
<g>
	<path class="st3" d="M161.84,170.82c0-0.08,0.01-0.15,0.04-0.22c0.03-0.07,0.07-0.13,0.12-0.18c0.05-0.05,0.11-0.09,0.18-0.12
		c0.07-0.03,0.14-0.04,0.22-0.04s0.15,0.01,0.22,0.04c0.07,0.03,0.13,0.07,0.18,0.12c0.05,0.05,0.09,0.11,0.12,0.18
		c0.03,0.07,0.04,0.14,0.04,0.22c0,0.08-0.01,0.16-0.04,0.22s-0.07,0.13-0.12,0.18c-0.05,0.05-0.11,0.09-0.18,0.12
		c-0.07,0.03-0.14,0.04-0.22,0.04s-0.15-0.01-0.22-0.04c-0.07-0.03-0.13-0.07-0.18-0.12c-0.05-0.05-0.09-0.11-0.12-0.18
		S161.84,170.9,161.84,170.82z M161.84,174.19c0-0.08,0.01-0.15,0.04-0.22c0.03-0.07,0.07-0.13,0.12-0.18
		c0.05-0.05,0.11-0.09,0.18-0.12c0.07-0.03,0.14-0.04,0.22-0.04s0.15,0.01,0.22,0.04c0.07,0.03,0.13,0.07,0.18,0.12
		c0.05,0.05,0.09,0.11,0.12,0.18c0.03,0.07,0.04,0.14,0.04,0.22c0,0.08-0.01,0.16-0.04,0.22s-0.07,0.13-0.12,0.18
		c-0.05,0.05-0.11,0.09-0.18,0.12c-0.07,0.03-0.14,0.04-0.22,0.04s-0.15-0.01-0.22-0.04c-0.07-0.03-0.13-0.07-0.18-0.12
		c-0.05-0.05-0.09-0.11-0.12-0.18S161.84,174.27,161.84,174.19z"/>
	<path class="st3" d="M169.83,172.36h0.98v0.46c0,0.05-0.01,0.09-0.04,0.12s-0.07,0.05-0.13,0.05h-0.8v1.7h-0.7v-1.7h-2.86
		c-0.06,0-0.11-0.02-0.16-0.05c-0.04-0.03-0.07-0.08-0.08-0.13l-0.08-0.41l3.14-4.16h0.75V172.36z M169.13,169.7
		c0-0.08,0-0.16,0.01-0.25c0-0.09,0.01-0.19,0.03-0.28l-2.35,3.2h2.31V169.7z"/>
	<path class="st3" d="M176.01,171.46c0,0.56-0.06,1.05-0.18,1.46c-0.12,0.41-0.29,0.75-0.5,1.02c-0.21,0.27-0.46,0.47-0.75,0.6
		c-0.29,0.13-0.59,0.2-0.92,0.2c-0.33,0-0.64-0.07-0.92-0.2c-0.28-0.13-0.53-0.33-0.74-0.6c-0.21-0.27-0.38-0.61-0.5-1.02
		c-0.12-0.41-0.18-0.9-0.18-1.46c0-0.56,0.06-1.05,0.18-1.47c0.12-0.41,0.29-0.76,0.5-1.03s0.46-0.47,0.74-0.61
		c0.28-0.13,0.59-0.2,0.92-0.2c0.33,0,0.63,0.07,0.92,0.2c0.29,0.13,0.54,0.33,0.75,0.61s0.38,0.61,0.5,1.03
		C175.95,170.41,176.01,170.9,176.01,171.46z M175.18,171.46c0-0.49-0.04-0.91-0.12-1.24c-0.08-0.33-0.19-0.6-0.33-0.81
		c-0.14-0.2-0.3-0.35-0.48-0.44c-0.18-0.09-0.37-0.13-0.57-0.13s-0.39,0.04-0.57,0.13c-0.18,0.09-0.34,0.23-0.48,0.44
		c-0.14,0.2-0.25,0.47-0.33,0.81c-0.08,0.33-0.12,0.75-0.12,1.24s0.04,0.9,0.12,1.24c0.08,0.33,0.19,0.6,0.33,0.81
		c0.14,0.2,0.3,0.35,0.48,0.44c0.18,0.09,0.37,0.13,0.57,0.13s0.39-0.04,0.57-0.13c0.18-0.09,0.34-0.23,0.48-0.44
		c0.14-0.2,0.25-0.47,0.33-0.81C175.14,172.37,175.18,171.96,175.18,171.46z"/>
</g>
<g>
</g>
</svg>
