<?xml version="1.0" encoding="utf-8"?>
<!-- Generator: Adobe Illustrator 26.3.1, SVG Export Plug-In . SVG Version: 6.00 Build 0)  -->
<svg version="1.1" id="Layer_1" xmlns="http://www.w3.org/2000/svg" xmlns:xlink="http://www.w3.org/1999/xlink" x="0px" y="0px"
	 viewBox="0 0 180 180" style="enable-background:new 0 0 180 180;" xml:space="preserve">
<style type="text/css">
	.st0{fill:#9B1C3C;}
	.st1{fill:none;stroke:#000000;stroke-width:0.72;stroke-linejoin:round;stroke-miterlimit:10;}
	.st2{fill:#808080;}
	.st3{fill-rule:evenodd;clip-rule:evenodd;fill:#EBEBEB;}
	.st4{fill:none;stroke:#000000;stroke-width:0.75;stroke-linejoin:round;stroke-miterlimit:10;}
	.st5{fill:#C0C0C0;}
</style>
<path class="st0" d="M81,157.86h69v-10.44H81V157.86z M81,139.08h26.7V128.7H81V139.08z M81,120.36h26.7v-10.44H81V120.36z
	 M81,101.58h26.7V91.2H81V101.58z M81,82.86h26.7V72.42H81V82.86z M81,64.08h40.02V53.7H81V64.08z M81,45.36h40.02V34.92H81V45.36z
	 M81,26.58h53.4V16.2H81V26.58z"/>
<line class="st1" x1="81" y1="12" x2="81" y2="162"/>
<g>
	<path class="st2" d="M144.6,23.36H146v0.87c0,0.08-0.03,0.16-0.08,0.22s-0.13,0.09-0.24,0.09h-1.07v2.54h-1.31v-2.54h-4.36
		c-0.11,0-0.2-0.03-0.28-0.09c-0.08-0.06-0.13-0.14-0.15-0.23l-0.15-0.77l4.83-6.43h1.41V23.36z M143.3,19.68
		c0-0.14,0-0.29,0.01-0.45s0.03-0.33,0.05-0.51l-3.38,4.64h3.32V19.68z"/>
</g>
<g>
</g>
<g>
	<path class="st2" d="M129.14,35.65c0.45,0,0.85,0.06,1.22,0.19c0.37,0.13,0.68,0.31,0.94,0.53c0.26,0.23,0.47,0.5,0.61,0.82
		c0.14,0.32,0.21,0.66,0.21,1.04c0,0.64-0.15,1.14-0.44,1.5c-0.3,0.36-0.7,0.62-1.22,0.79c1.25,0.37,1.88,1.16,1.88,2.36
		c0,0.48-0.09,0.92-0.27,1.29c-0.18,0.38-0.43,0.7-0.74,0.96c-0.31,0.26-0.67,0.46-1.08,0.6c-0.41,0.14-0.85,0.21-1.31,0.21
		c-0.52,0-0.96-0.06-1.34-0.19c-0.38-0.12-0.7-0.3-0.98-0.53c-0.27-0.23-0.5-0.51-0.68-0.84c-0.18-0.33-0.33-0.69-0.46-1.1
		l0.65-0.27c0.17-0.07,0.34-0.1,0.49-0.06c0.16,0.03,0.27,0.12,0.34,0.26c0.08,0.15,0.16,0.31,0.25,0.48
		c0.09,0.17,0.21,0.33,0.36,0.47c0.15,0.14,0.33,0.26,0.54,0.36s0.48,0.14,0.8,0.14c0.32,0,0.6-0.05,0.84-0.16s0.44-0.24,0.6-0.41
		c0.16-0.17,0.28-0.35,0.36-0.56s0.12-0.41,0.12-0.61c0-0.25-0.03-0.48-0.09-0.7s-0.18-0.39-0.35-0.54
		c-0.17-0.15-0.42-0.27-0.74-0.35c-0.32-0.09-0.74-0.13-1.25-0.13v-1.08c0.42,0,0.78-0.05,1.07-0.13c0.29-0.08,0.52-0.19,0.7-0.34
		s0.3-0.31,0.38-0.51c0.08-0.2,0.12-0.42,0.12-0.66c0-0.26-0.04-0.48-0.12-0.68c-0.08-0.2-0.19-0.36-0.33-0.49
		c-0.14-0.13-0.31-0.23-0.51-0.3c-0.2-0.07-0.41-0.1-0.65-0.1c-0.23,0-0.44,0.03-0.63,0.1s-0.37,0.16-0.52,0.27
		c-0.15,0.12-0.28,0.26-0.38,0.42s-0.18,0.34-0.22,0.53c-0.07,0.19-0.15,0.32-0.26,0.38s-0.27,0.08-0.48,0.04l-0.79-0.14
		c0.07-0.48,0.2-0.89,0.39-1.25s0.44-0.66,0.73-0.9c0.29-0.24,0.63-0.42,1.01-0.55S128.7,35.65,129.14,35.65z"/>
</g>
<g>
</g>
<g>
	<path class="st2" d="M129.14,54.39c0.45,0,0.85,0.06,1.22,0.19c0.37,0.13,0.68,0.31,0.94,0.53c0.26,0.23,0.47,0.5,0.61,0.82
		c0.14,0.32,0.21,0.66,0.21,1.04c0,0.64-0.15,1.14-0.44,1.5c-0.3,0.36-0.7,0.62-1.22,0.79c1.25,0.37,1.88,1.16,1.88,2.36
		c0,0.48-0.09,0.92-0.27,1.29c-0.18,0.38-0.43,0.7-0.74,0.96c-0.31,0.26-0.67,0.46-1.08,0.6c-0.41,0.14-0.85,0.21-1.31,0.21
		c-0.52,0-0.96-0.06-1.34-0.19c-0.38-0.12-0.7-0.3-0.98-0.53c-0.27-0.23-0.5-0.51-0.68-0.84c-0.18-0.33-0.33-0.69-0.46-1.1
		l0.65-0.27c0.17-0.07,0.34-0.1,0.49-0.06c0.16,0.03,0.27,0.12,0.34,0.26c0.08,0.15,0.16,0.31,0.25,0.48
		c0.09,0.17,0.21,0.33,0.36,0.47c0.15,0.14,0.33,0.26,0.54,0.36s0.48,0.14,0.8,0.14c0.32,0,0.6-0.05,0.84-0.16s0.44-0.24,0.6-0.41
		c0.16-0.17,0.28-0.35,0.36-0.56s0.12-0.41,0.12-0.61c0-0.25-0.03-0.48-0.09-0.7s-0.18-0.39-0.35-0.54
		c-0.17-0.15-0.42-0.27-0.74-0.35c-0.32-0.09-0.74-0.13-1.25-0.13v-1.08c0.42,0,0.78-0.05,1.07-0.13c0.29-0.08,0.52-0.19,0.7-0.34
		s0.3-0.31,0.38-0.51c0.08-0.2,0.12-0.42,0.12-0.66c0-0.26-0.04-0.48-0.12-0.68c-0.08-0.2-0.19-0.36-0.33-0.49
		c-0.14-0.13-0.31-0.23-0.51-0.3c-0.2-0.07-0.41-0.1-0.65-0.1c-0.23,0-0.44,0.03-0.63,0.1s-0.37,0.16-0.52,0.27
		c-0.15,0.12-0.28,0.26-0.38,0.42s-0.18,0.34-0.22,0.53c-0.07,0.19-0.15,0.32-0.26,0.38s-0.27,0.08-0.48,0.04l-0.79-0.14
		c0.07-0.48,0.2-0.89,0.39-1.25s0.44-0.66,0.73-0.9c0.29-0.24,0.63-0.42,1.01-0.55S128.7,54.39,129.14,54.39z"/>
</g>
<g>
</g>
<g>
	<path class="st2" d="M115.79,73.14c0.45,0,0.86,0.07,1.23,0.2s0.7,0.32,0.97,0.57s0.49,0.54,0.64,0.89
		c0.15,0.35,0.23,0.74,0.23,1.18c0,0.37-0.05,0.72-0.16,1.03c-0.11,0.32-0.26,0.62-0.44,0.91c-0.19,0.29-0.4,0.57-0.65,0.84
		c-0.25,0.27-0.51,0.55-0.79,0.83l-2.43,2.49c0.2-0.05,0.4-0.09,0.6-0.13c0.2-0.03,0.39-0.05,0.58-0.05h2.96
		c0.16,0,0.29,0.05,0.38,0.14c0.09,0.1,0.14,0.22,0.14,0.37v0.91h-6.81v-0.51c0-0.1,0.02-0.21,0.06-0.32
		c0.04-0.11,0.11-0.21,0.2-0.31l3.13-3.14c0.27-0.27,0.5-0.52,0.71-0.76c0.21-0.24,0.38-0.48,0.53-0.73
		c0.15-0.24,0.26-0.49,0.33-0.74c0.08-0.25,0.12-0.51,0.12-0.79c0-0.27-0.04-0.5-0.12-0.7c-0.08-0.2-0.19-0.37-0.34-0.5
		c-0.14-0.13-0.31-0.23-0.51-0.3s-0.42-0.1-0.65-0.1c-0.23,0-0.44,0.03-0.63,0.1s-0.37,0.16-0.52,0.27
		c-0.15,0.12-0.28,0.26-0.38,0.42c-0.1,0.16-0.17,0.34-0.22,0.53c-0.07,0.19-0.16,0.32-0.27,0.38c-0.11,0.07-0.27,0.08-0.48,0.04
		l-0.79-0.14c0.07-0.48,0.2-0.89,0.39-1.25s0.44-0.66,0.73-0.9c0.29-0.24,0.63-0.42,1.01-0.55S115.34,73.14,115.79,73.14z"/>
</g>
<g>
</g>
<g>
	<path class="st2" d="M115.79,91.89c0.45,0,0.86,0.07,1.23,0.2s0.7,0.32,0.97,0.57c0.27,0.25,0.49,0.54,0.64,0.89
		c0.15,0.35,0.23,0.74,0.23,1.18c0,0.37-0.05,0.72-0.16,1.04c-0.11,0.32-0.26,0.62-0.44,0.91s-0.4,0.57-0.65,0.84
		s-0.51,0.55-0.79,0.83l-2.43,2.49c0.2-0.05,0.4-0.09,0.6-0.13c0.2-0.04,0.39-0.05,0.58-0.05h2.96c0.16,0,0.29,0.05,0.38,0.14
		c0.09,0.1,0.14,0.22,0.14,0.37v0.91h-6.81v-0.51c0-0.1,0.02-0.21,0.06-0.32c0.04-0.11,0.11-0.21,0.2-0.31l3.13-3.14
		c0.27-0.27,0.5-0.52,0.71-0.76c0.21-0.24,0.38-0.48,0.53-0.73c0.15-0.24,0.26-0.49,0.33-0.74c0.08-0.25,0.12-0.51,0.12-0.79
		c0-0.27-0.04-0.5-0.12-0.7c-0.08-0.2-0.19-0.37-0.34-0.5c-0.14-0.13-0.31-0.23-0.51-0.3s-0.42-0.1-0.65-0.1
		c-0.23,0-0.44,0.03-0.63,0.1c-0.19,0.07-0.37,0.16-0.52,0.27c-0.15,0.12-0.28,0.25-0.38,0.42c-0.1,0.16-0.17,0.34-0.22,0.53
		c-0.07,0.19-0.16,0.32-0.27,0.38c-0.11,0.06-0.27,0.08-0.48,0.04l-0.79-0.14c0.07-0.47,0.2-0.89,0.39-1.25
		c0.19-0.36,0.44-0.66,0.73-0.9c0.29-0.24,0.63-0.42,1.01-0.54S115.34,91.89,115.79,91.89z"/>
</g>
<g>
</g>
<g>
	<path class="st2" d="M115.79,110.63c0.45,0,0.86,0.07,1.23,0.2s0.7,0.32,0.97,0.57c0.27,0.25,0.49,0.54,0.64,0.89
		c0.15,0.35,0.23,0.74,0.23,1.18c0,0.37-0.05,0.72-0.16,1.04c-0.11,0.32-0.26,0.62-0.44,0.91s-0.4,0.57-0.65,0.84
		s-0.51,0.55-0.79,0.83l-2.43,2.49c0.2-0.05,0.4-0.09,0.6-0.13c0.2-0.04,0.39-0.05,0.58-0.05h2.96c0.16,0,0.29,0.05,0.38,0.14
		c0.09,0.1,0.14,0.22,0.14,0.37v0.91h-6.81v-0.51c0-0.1,0.02-0.21,0.06-0.32c0.04-0.11,0.11-0.21,0.2-0.31l3.13-3.14
		c0.27-0.27,0.5-0.52,0.71-0.76c0.21-0.24,0.38-0.48,0.53-0.73c0.15-0.24,0.26-0.49,0.33-0.74c0.08-0.25,0.12-0.51,0.12-0.79
		c0-0.27-0.04-0.5-0.12-0.7c-0.08-0.2-0.19-0.37-0.34-0.5c-0.14-0.13-0.31-0.23-0.51-0.3s-0.42-0.1-0.65-0.1
		c-0.23,0-0.44,0.03-0.63,0.1c-0.19,0.07-0.37,0.16-0.52,0.27c-0.15,0.12-0.28,0.25-0.38,0.42c-0.1,0.16-0.17,0.34-0.22,0.53
		c-0.07,0.19-0.16,0.32-0.27,0.38c-0.11,0.06-0.27,0.08-0.48,0.04l-0.79-0.14c0.07-0.47,0.2-0.89,0.39-1.25
		c0.19-0.36,0.44-0.66,0.73-0.9c0.29-0.24,0.63-0.42,1.01-0.54S115.34,110.63,115.79,110.63z"/>
</g>
<g>
</g>
<g>
	<path class="st2" d="M115.79,129.38c0.45,0,0.86,0.07,1.23,0.2s0.7,0.32,0.97,0.57c0.27,0.25,0.49,0.54,0.64,0.89
		c0.15,0.35,0.23,0.74,0.23,1.18c0,0.37-0.05,0.72-0.16,1.04c-0.11,0.32-0.26,0.62-0.44,0.91s-0.4,0.57-0.65,0.84
		s-0.51,0.55-0.79,0.83l-2.43,2.49c0.2-0.05,0.4-0.09,0.6-0.13c0.2-0.04,0.39-0.05,0.58-0.05h2.96c0.16,0,0.29,0.05,0.38,0.14
		c0.09,0.1,0.14,0.22,0.14,0.37v0.91h-6.81v-0.51c0-0.1,0.02-0.21,0.06-0.32c0.04-0.11,0.11-0.21,0.2-0.31l3.13-3.14
		c0.27-0.27,0.5-0.52,0.71-0.76c0.21-0.24,0.38-0.48,0.53-0.73c0.15-0.24,0.26-0.49,0.33-0.74c0.08-0.25,0.12-0.51,0.12-0.79
		c0-0.27-0.04-0.5-0.12-0.7c-0.08-0.2-0.19-0.37-0.34-0.5c-0.14-0.13-0.31-0.23-0.51-0.3s-0.42-0.1-0.65-0.1
		c-0.23,0-0.44,0.03-0.63,0.1c-0.19,0.07-0.37,0.16-0.52,0.27c-0.15,0.12-0.28,0.25-0.38,0.42c-0.1,0.16-0.17,0.34-0.22,0.53
		c-0.07,0.19-0.16,0.32-0.27,0.38c-0.11,0.06-0.27,0.08-0.48,0.04l-0.79-0.14c0.07-0.47,0.2-0.89,0.39-1.25
		c0.19-0.36,0.44-0.66,0.73-0.9c0.29-0.24,0.63-0.42,1.01-0.54S115.34,129.38,115.79,129.38z"/>
</g>
<g>
</g>
<polygon class="st3" points="147.13,143.13 142,162.13 137.5,162.13 142.63,143.13 "/>
<line class="st4" x1="142.63" y1="143.13" x2="137.5" y2="162.13"/>
<line class="st4" x1="147.13" y1="143.13" x2="142" y2="162.13"/>
<g>
	<path class="st2" d="M41.96,23.55c0.06,0.14,0.12,0.29,0.17,0.44c0.06-0.15,0.12-0.3,0.18-0.44c0.06-0.15,0.13-0.29,0.2-0.42
		l3.18-5.84c0.07-0.13,0.14-0.21,0.22-0.23c0.08-0.03,0.19-0.04,0.34-0.04h1.22v10.07h-1.44v-6.9c0-0.11,0-0.23,0.01-0.36
		c0.01-0.13,0.02-0.26,0.02-0.4l-3.23,5.97c-0.13,0.25-0.32,0.37-0.58,0.37h-0.23c-0.27,0-0.46-0.12-0.58-0.37l-3.29-5.99
		c0.01,0.14,0.03,0.28,0.03,0.41s0.01,0.26,0.01,0.37v6.9h-1.44V17.01h1.22c0.14,0,0.26,0.01,0.34,0.04
		c0.08,0.03,0.15,0.1,0.22,0.23l3.23,5.85C41.83,23.27,41.89,23.41,41.96,23.55z"/>
	<path class="st2" d="M53.34,16.9c0.39,0,0.74,0.06,1.06,0.18s0.58,0.28,0.81,0.49s0.4,0.44,0.53,0.71c0.13,0.27,0.2,0.54,0.23,0.82
		l-0.95,0.2c-0.08,0.02-0.16,0.01-0.23-0.04c-0.07-0.04-0.13-0.11-0.16-0.21c-0.04-0.12-0.09-0.24-0.16-0.36
		c-0.07-0.12-0.16-0.23-0.26-0.32s-0.22-0.17-0.37-0.23c-0.14-0.06-0.31-0.09-0.49-0.09c-0.21,0-0.41,0.04-0.58,0.1
		c-0.17,0.07-0.31,0.17-0.43,0.29c-0.12,0.12-0.21,0.27-0.27,0.43c-0.06,0.16-0.09,0.34-0.09,0.52c0,0.15,0.02,0.29,0.05,0.43
		c0.03,0.14,0.09,0.28,0.16,0.42c0.07,0.14,0.17,0.28,0.28,0.43c0.11,0.15,0.25,0.3,0.42,0.47l2.78,2.86
		c0.16-0.3,0.29-0.62,0.39-0.96s0.17-0.67,0.2-1.01c0.01-0.1,0.04-0.18,0.1-0.23c0.06-0.06,0.13-0.09,0.22-0.09h0.93
		c0,0.58-0.09,1.14-0.26,1.68c-0.17,0.54-0.41,1.04-0.72,1.5l2.11,2.17h-1.46c-0.08,0-0.15,0-0.21-0.01
		c-0.06-0.01-0.12-0.02-0.17-0.05s-0.1-0.05-0.15-0.09c-0.05-0.04-0.1-0.09-0.16-0.15l-0.84-0.85c-0.44,0.39-0.94,0.7-1.51,0.92
		s-1.17,0.34-1.83,0.34c-0.38,0-0.76-0.07-1.12-0.2s-0.69-0.32-0.98-0.56c-0.29-0.24-0.52-0.54-0.7-0.9
		c-0.18-0.35-0.27-0.75-0.27-1.19c0-0.32,0.05-0.62,0.16-0.91c0.1-0.29,0.25-0.55,0.44-0.8c0.19-0.24,0.41-0.46,0.67-0.66
		s0.54-0.36,0.85-0.5c-0.27-0.35-0.46-0.69-0.58-1.03s-0.18-0.68-0.18-1.02c0-0.35,0.06-0.67,0.19-0.98
		c0.13-0.31,0.31-0.58,0.55-0.8c0.24-0.23,0.53-0.41,0.87-0.54C52.52,16.96,52.91,16.9,53.34,16.9z M52.55,25.97
		c0.46,0,0.88-0.08,1.26-0.23c0.38-0.16,0.71-0.37,1.01-0.63l-2.8-2.85c-0.43,0.25-0.75,0.55-0.95,0.88s-0.31,0.7-0.31,1.09
		c0,0.27,0.05,0.52,0.15,0.74c0.1,0.22,0.23,0.4,0.4,0.55c0.17,0.15,0.36,0.26,0.57,0.34S52.31,25.97,52.55,25.97z"/>
	<path class="st2" d="M65.09,23.55c0.06,0.14,0.12,0.29,0.17,0.44c0.06-0.15,0.12-0.3,0.18-0.44c0.06-0.15,0.13-0.29,0.2-0.42
		l3.18-5.84c0.07-0.13,0.14-0.21,0.22-0.23c0.08-0.03,0.19-0.04,0.34-0.04h1.22v10.07h-1.44v-6.9c0-0.11,0-0.23,0.01-0.36
		c0.01-0.13,0.02-0.26,0.02-0.4l-3.23,5.97c-0.13,0.25-0.32,0.37-0.58,0.37h-0.23c-0.27,0-0.46-0.12-0.58-0.37l-3.29-5.99
		c0.01,0.14,0.03,0.28,0.03,0.41s0.01,0.26,0.01,0.37v6.9h-1.44V17.01h1.22c0.14,0,0.26,0.01,0.34,0.04
		c0.08,0.03,0.15,0.1,0.22,0.23l3.23,5.85C64.96,23.27,65.03,23.41,65.09,23.55z"/>
</g>
<g>
</g>
<g>
	<path class="st2" d="M23.98,102.08V91.73h1.5v4.16c0.29-0.32,0.62-0.58,0.99-0.77c0.36-0.19,0.78-0.29,1.24-0.29
		c0.41,0,0.79,0.08,1.12,0.24c0.33,0.16,0.62,0.39,0.85,0.7c0.23,0.3,0.41,0.67,0.54,1.1s0.19,0.92,0.19,1.46
		c0,0.58-0.07,1.1-0.21,1.58c-0.14,0.47-0.35,0.88-0.61,1.22s-0.59,0.6-0.96,0.78c-0.38,0.18-0.8,0.28-1.27,0.28
		c-0.23,0-0.44-0.02-0.62-0.07c-0.19-0.04-0.36-0.11-0.52-0.19c-0.16-0.08-0.3-0.18-0.44-0.3c-0.13-0.12-0.26-0.25-0.38-0.4
		l-0.06,0.55c-0.02,0.11-0.07,0.18-0.13,0.23c-0.06,0.05-0.14,0.07-0.25,0.07H23.98z M27.21,96.02c-0.37,0-0.69,0.08-0.96,0.25
		c-0.27,0.17-0.53,0.4-0.77,0.71v3.31c0.21,0.27,0.44,0.46,0.69,0.57c0.25,0.11,0.52,0.16,0.81,0.16c0.59,0,1.05-0.21,1.38-0.64
		c0.33-0.43,0.5-1.09,0.5-1.99c0-0.82-0.14-1.42-0.43-1.8C28.15,96.21,27.74,96.02,27.21,96.02z"/>
	<path class="st2" d="M36.45,102.08c-0.14,0-0.25-0.02-0.33-0.07s-0.14-0.13-0.19-0.27l-0.15-0.58c-0.18,0.17-0.36,0.31-0.54,0.44
		c-0.18,0.13-0.36,0.23-0.55,0.32c-0.19,0.09-0.39,0.15-0.61,0.2c-0.22,0.04-0.46,0.07-0.72,0.07c-0.29,0-0.56-0.04-0.81-0.12
		c-0.25-0.08-0.46-0.2-0.65-0.36c-0.18-0.16-0.32-0.36-0.43-0.6c-0.1-0.24-0.16-0.52-0.16-0.84c0-0.27,0.07-0.54,0.22-0.8
		s0.39-0.5,0.73-0.7s0.78-0.38,1.33-0.51c0.55-0.14,1.23-0.21,2.04-0.23v-0.47c0-0.51-0.11-0.89-0.33-1.15
		c-0.22-0.25-0.54-0.38-0.96-0.38c-0.29,0-0.53,0.04-0.73,0.11s-0.37,0.15-0.51,0.23s-0.27,0.16-0.38,0.23s-0.23,0.11-0.36,0.11
		c-0.1,0-0.19-0.03-0.26-0.08c-0.07-0.05-0.13-0.12-0.18-0.2l-0.27-0.49c0.81-0.75,1.77-1.13,2.88-1.13c0.41,0,0.77,0.07,1.09,0.2
		c0.32,0.13,0.59,0.32,0.8,0.56s0.38,0.53,0.5,0.86c0.11,0.33,0.17,0.7,0.17,1.11v4.53H36.45z M33.83,101.14
		c0.39,0,0.73-0.07,1.01-0.22c0.28-0.15,0.56-0.36,0.82-0.63v-1.33c-0.54,0.02-0.99,0.07-1.36,0.13s-0.67,0.15-0.89,0.26
		c-0.23,0.11-0.39,0.23-0.49,0.37c-0.1,0.14-0.15,0.3-0.15,0.47c0,0.17,0.03,0.31,0.08,0.43c0.05,0.12,0.13,0.22,0.22,0.29
		c0.1,0.08,0.21,0.13,0.34,0.17C33.53,101.12,33.67,101.14,33.83,101.14z"/>
	<path class="st2" d="M38.87,102.08v-7.13h0.91c0.21,0,0.34,0.1,0.39,0.29l0.1,0.66c0.15-0.16,0.31-0.3,0.47-0.43
		c0.17-0.13,0.34-0.24,0.53-0.34c0.19-0.09,0.39-0.17,0.6-0.22c0.21-0.05,0.44-0.08,0.69-0.08c0.39,0,0.73,0.06,1.03,0.2
		s0.55,0.31,0.75,0.55c0.2,0.24,0.36,0.52,0.46,0.86s0.15,0.7,0.15,1.1v4.54h-1.5v-4.54c0-0.48-0.11-0.85-0.33-1.12
		c-0.22-0.27-0.56-0.4-1.01-0.4c-0.34,0-0.65,0.08-0.93,0.23c-0.29,0.15-0.56,0.36-0.81,0.63v5.19H38.87z"/>
	<path class="st2" d="M48.23,91.73v6h0.32c0.1,0,0.19-0.01,0.25-0.04s0.13-0.09,0.2-0.17l2-2.29c0.07-0.09,0.15-0.16,0.23-0.21
		c0.08-0.05,0.19-0.07,0.32-0.07h1.36l-2.4,2.71c-0.14,0.18-0.29,0.33-0.46,0.43c0.09,0.07,0.17,0.14,0.24,0.22
		c0.07,0.08,0.14,0.17,0.2,0.28l2.57,3.49h-1.34c-0.12,0-0.23-0.02-0.31-0.06c-0.09-0.04-0.16-0.11-0.23-0.22L49.13,99
		c-0.07-0.11-0.14-0.18-0.21-0.21c-0.07-0.03-0.17-0.04-0.31-0.04h-0.37v3.33h-1.5V91.73H48.23z"/>
	<path class="st2" d="M55.86,92.79c0,0.14-0.03,0.26-0.08,0.38c-0.05,0.12-0.13,0.23-0.22,0.32s-0.2,0.16-0.33,0.22
		s-0.25,0.08-0.4,0.08c-0.14,0-0.26-0.03-0.38-0.08s-0.22-0.13-0.31-0.22s-0.16-0.2-0.21-0.32c-0.05-0.12-0.08-0.25-0.08-0.38
		c0-0.14,0.03-0.27,0.08-0.39c0.05-0.12,0.13-0.23,0.21-0.32s0.19-0.16,0.31-0.22s0.25-0.08,0.38-0.08c0.14,0,0.27,0.03,0.4,0.08
		s0.23,0.13,0.33,0.22s0.17,0.2,0.22,0.32C55.83,92.53,55.86,92.66,55.86,92.79z M55.61,94.95v7.13h-1.5v-7.13H55.61z"/>
	<path class="st2" d="M57.52,102.08v-7.13h0.91c0.21,0,0.34,0.1,0.39,0.29l0.1,0.66c0.15-0.16,0.31-0.3,0.47-0.43
		c0.17-0.13,0.34-0.24,0.53-0.34c0.19-0.09,0.39-0.17,0.6-0.22c0.21-0.05,0.44-0.08,0.69-0.08c0.39,0,0.73,0.06,1.03,0.2
		s0.55,0.31,0.75,0.55c0.2,0.24,0.36,0.52,0.46,0.86s0.15,0.7,0.15,1.1v4.54h-1.5v-4.54c0-0.48-0.11-0.85-0.33-1.12
		c-0.22-0.27-0.56-0.4-1.01-0.4c-0.34,0-0.65,0.08-0.93,0.23c-0.29,0.15-0.56,0.36-0.81,0.63v5.19H57.52z"/>
	<path class="st2" d="M67.92,94.82c0.31,0,0.6,0.03,0.86,0.1s0.51,0.16,0.74,0.28h2v0.56c0,0.19-0.11,0.3-0.34,0.34l-0.71,0.12
		c0.12,0.28,0.18,0.58,0.18,0.9c0,0.35-0.07,0.67-0.21,0.95c-0.14,0.28-0.33,0.53-0.57,0.73c-0.24,0.2-0.53,0.35-0.87,0.46
		c-0.34,0.11-0.7,0.16-1.09,0.16c-0.15,0-0.29-0.01-0.44-0.02s-0.28-0.04-0.42-0.07c-0.14,0.08-0.24,0.16-0.3,0.25
		s-0.1,0.18-0.1,0.27c0,0.15,0.07,0.27,0.2,0.34c0.14,0.07,0.31,0.13,0.53,0.16c0.22,0.03,0.47,0.05,0.76,0.06
		c0.28,0.01,0.57,0.03,0.87,0.05c0.29,0.02,0.58,0.06,0.87,0.12s0.54,0.14,0.76,0.27c0.22,0.12,0.4,0.29,0.53,0.5
		c0.14,0.21,0.2,0.48,0.2,0.82c0,0.31-0.08,0.61-0.23,0.9c-0.15,0.29-0.38,0.55-0.67,0.78c-0.29,0.23-0.65,0.41-1.07,0.55
		s-0.9,0.21-1.43,0.21c-0.53,0-0.99-0.05-1.39-0.15c-0.39-0.1-0.72-0.24-0.99-0.42c-0.26-0.17-0.46-0.38-0.59-0.6
		c-0.13-0.23-0.19-0.47-0.19-0.71c0-0.34,0.11-0.62,0.32-0.86c0.21-0.24,0.5-0.42,0.86-0.56c-0.2-0.09-0.35-0.22-0.47-0.38
		c-0.12-0.16-0.18-0.38-0.18-0.64c0-0.1,0.02-0.21,0.06-0.32c0.04-0.11,0.09-0.22,0.17-0.33c0.08-0.11,0.17-0.21,0.29-0.31
		c0.11-0.1,0.25-0.19,0.4-0.27c-0.35-0.2-0.63-0.46-0.84-0.78s-0.3-0.71-0.3-1.14c0-0.35,0.07-0.67,0.21-0.96
		c0.14-0.28,0.33-0.53,0.58-0.73c0.25-0.2,0.54-0.35,0.88-0.46S67.52,94.82,67.92,94.82z M70.01,102.43c0-0.15-0.05-0.28-0.14-0.37
		s-0.21-0.17-0.37-0.23c-0.15-0.06-0.33-0.09-0.54-0.12c-0.21-0.02-0.43-0.04-0.65-0.06c-0.23-0.01-0.46-0.03-0.71-0.04
		s-0.48-0.03-0.7-0.07c-0.22,0.12-0.41,0.26-0.54,0.42s-0.21,0.35-0.21,0.57c0,0.14,0.04,0.27,0.11,0.39s0.18,0.23,0.34,0.31
		s0.35,0.16,0.58,0.21c0.23,0.05,0.52,0.08,0.85,0.08c0.66,0,1.16-0.1,1.49-0.31S70.01,102.75,70.01,102.43z M67.92,98.45
		c0.47,0,0.82-0.12,1.05-0.36c0.23-0.24,0.35-0.55,0.35-0.93c0-0.39-0.12-0.7-0.35-0.93c-0.23-0.23-0.58-0.34-1.05-0.34
		c-0.46,0-0.81,0.11-1.04,0.34s-0.35,0.54-0.35,0.93c0,0.19,0.03,0.36,0.09,0.52s0.15,0.29,0.27,0.41c0.12,0.11,0.26,0.2,0.44,0.27
		C67.49,98.42,67.69,98.45,67.92,98.45z"/>
</g>
<g>
</g>
<g>
	<path class="st2" d="M11.17,45.82v-7.13h0.91c0.21,0,0.34,0.1,0.39,0.29l0.1,0.62c0.13-0.15,0.27-0.29,0.41-0.41
		c0.14-0.12,0.29-0.23,0.45-0.32s0.33-0.16,0.52-0.21s0.38-0.08,0.6-0.08c0.23,0,0.44,0.03,0.63,0.1c0.19,0.06,0.36,0.16,0.51,0.28
		c0.15,0.12,0.27,0.27,0.38,0.44c0.11,0.17,0.2,0.37,0.27,0.58c0.11-0.25,0.24-0.46,0.41-0.64c0.16-0.18,0.34-0.32,0.55-0.43
		c0.2-0.11,0.41-0.19,0.64-0.25c0.23-0.05,0.46-0.08,0.69-0.08c0.38,0,0.72,0.06,1.02,0.18c0.3,0.12,0.55,0.3,0.76,0.53
		c0.21,0.23,0.36,0.51,0.47,0.85c0.11,0.34,0.16,0.72,0.16,1.15v4.54h-1.5v-4.54c0-0.5-0.11-0.88-0.33-1.14
		c-0.22-0.25-0.54-0.38-0.96-0.38c-0.19,0-0.37,0.03-0.54,0.1c-0.17,0.07-0.31,0.16-0.44,0.29s-0.23,0.28-0.3,0.47
		c-0.07,0.19-0.11,0.41-0.11,0.66v4.54h-1.5v-4.54c0-0.52-0.1-0.91-0.31-1.15c-0.21-0.24-0.52-0.37-0.92-0.37
		c-0.28,0-0.54,0.07-0.78,0.21c-0.24,0.14-0.46,0.34-0.66,0.58v5.26H11.17z"/>
	<path class="st2" d="M27.41,45.82c-0.14,0-0.25-0.02-0.33-0.07s-0.14-0.13-0.19-0.27l-0.15-0.58c-0.18,0.17-0.36,0.31-0.54,0.44
		c-0.18,0.13-0.36,0.23-0.55,0.32c-0.19,0.09-0.39,0.15-0.61,0.2c-0.22,0.04-0.46,0.07-0.72,0.07c-0.29,0-0.56-0.04-0.81-0.12
		c-0.25-0.08-0.46-0.2-0.65-0.36c-0.18-0.16-0.32-0.36-0.43-0.6c-0.1-0.24-0.16-0.52-0.16-0.84c0-0.27,0.07-0.54,0.22-0.8
		c0.15-0.26,0.39-0.5,0.73-0.7c0.34-0.21,0.78-0.38,1.33-0.51c0.55-0.13,1.23-0.21,2.04-0.23v-0.48c0-0.51-0.11-0.9-0.33-1.15
		c-0.22-0.25-0.54-0.38-0.96-0.38c-0.29,0-0.53,0.04-0.73,0.11s-0.37,0.15-0.51,0.23s-0.27,0.16-0.38,0.23s-0.23,0.11-0.36,0.11
		c-0.1,0-0.19-0.03-0.26-0.08s-0.13-0.12-0.18-0.2l-0.27-0.49c0.81-0.75,1.77-1.13,2.88-1.13c0.41,0,0.77,0.07,1.09,0.2
		c0.32,0.13,0.59,0.32,0.8,0.56c0.22,0.24,0.38,0.53,0.5,0.86c0.11,0.33,0.17,0.7,0.17,1.11v4.53H27.41z M24.79,44.89
		c0.39,0,0.73-0.07,1.01-0.22c0.28-0.15,0.56-0.36,0.82-0.63V42.7c-0.54,0.02-0.99,0.07-1.36,0.13c-0.37,0.07-0.67,0.15-0.89,0.26
		c-0.23,0.11-0.39,0.23-0.49,0.37c-0.1,0.14-0.15,0.3-0.15,0.47c0,0.17,0.03,0.31,0.08,0.43c0.05,0.12,0.13,0.22,0.22,0.29
		c0.1,0.08,0.21,0.13,0.34,0.17C24.49,44.87,24.63,44.89,24.79,44.89z"/>
	<path class="st2" d="M29.83,45.82v-7.13h0.91c0.21,0,0.34,0.1,0.39,0.29l0.1,0.66c0.15-0.16,0.31-0.3,0.47-0.43
		c0.17-0.13,0.34-0.24,0.53-0.34c0.19-0.09,0.39-0.17,0.6-0.22c0.21-0.05,0.44-0.08,0.69-0.08c0.39,0,0.73,0.07,1.03,0.2
		s0.55,0.31,0.75,0.55s0.36,0.52,0.46,0.86c0.1,0.33,0.15,0.7,0.15,1.1v4.54h-1.5v-4.54c0-0.48-0.11-0.85-0.33-1.12
		c-0.22-0.27-0.56-0.4-1.01-0.4c-0.34,0-0.65,0.08-0.93,0.23s-0.56,0.36-0.81,0.63v5.19H29.83z"/>
	<path class="st2" d="M39.12,38.69v4.54c0,0.48,0.11,0.85,0.33,1.12s0.56,0.4,1.01,0.4c0.33,0,0.64-0.08,0.93-0.23
		s0.56-0.36,0.81-0.63v-5.2h1.5v7.13h-0.91c-0.2,0-0.33-0.1-0.38-0.29l-0.11-0.66c-0.3,0.32-0.64,0.57-1,0.77s-0.79,0.29-1.28,0.29
		c-0.39,0-0.74-0.07-1.03-0.2c-0.3-0.13-0.55-0.31-0.75-0.55c-0.2-0.24-0.36-0.52-0.46-0.86c-0.1-0.33-0.15-0.7-0.15-1.1v-4.54
		H39.12z"/>
	<path class="st2" d="M46.03,45.82v-5.93l-0.7-0.1c-0.12-0.02-0.21-0.07-0.28-0.13s-0.11-0.15-0.11-0.26v-0.61h1.09v-0.6
		c0-0.41,0.06-0.77,0.18-1.09c0.12-0.32,0.29-0.59,0.51-0.82s0.49-0.4,0.81-0.51s0.67-0.18,1.07-0.18c0.16,0,0.32,0.01,0.46,0.04
		s0.29,0.06,0.43,0.1l-0.03,0.75c-0.01,0.13-0.07,0.2-0.19,0.22c-0.11,0.02-0.26,0.03-0.43,0.03c-0.21,0-0.4,0.02-0.57,0.07
		c-0.17,0.05-0.31,0.13-0.43,0.25c-0.12,0.12-0.21,0.27-0.27,0.46c-0.06,0.19-0.09,0.43-0.09,0.71v0.55h1.95v1.08h-1.9v5.95H46.03z"
		/>
	<path class="st2" d="M55.12,45.82c-0.14,0-0.25-0.02-0.33-0.07s-0.14-0.13-0.19-0.27l-0.15-0.58c-0.18,0.17-0.36,0.31-0.54,0.44
		c-0.18,0.13-0.36,0.23-0.55,0.32c-0.19,0.09-0.39,0.15-0.61,0.2c-0.22,0.04-0.46,0.07-0.72,0.07c-0.29,0-0.56-0.04-0.81-0.12
		c-0.25-0.08-0.46-0.2-0.65-0.36c-0.18-0.16-0.32-0.36-0.43-0.6c-0.1-0.24-0.16-0.52-0.16-0.84c0-0.27,0.07-0.54,0.22-0.8
		c0.15-0.26,0.39-0.5,0.73-0.7c0.34-0.21,0.78-0.38,1.33-0.51c0.55-0.13,1.23-0.21,2.04-0.23v-0.48c0-0.51-0.11-0.9-0.33-1.15
		c-0.22-0.25-0.54-0.38-0.96-0.38c-0.29,0-0.53,0.04-0.73,0.11s-0.37,0.15-0.51,0.23s-0.27,0.16-0.38,0.23s-0.23,0.11-0.36,0.11
		c-0.1,0-0.19-0.03-0.26-0.08s-0.13-0.12-0.18-0.2l-0.27-0.49c0.81-0.75,1.77-1.13,2.88-1.13c0.41,0,0.77,0.07,1.09,0.2
		c0.32,0.13,0.59,0.32,0.8,0.56c0.22,0.24,0.38,0.53,0.5,0.86c0.11,0.33,0.17,0.7,0.17,1.11v4.53H55.12z M52.5,44.89
		c0.39,0,0.73-0.07,1.01-0.22c0.28-0.15,0.56-0.36,0.82-0.63V42.7c-0.54,0.02-0.99,0.07-1.36,0.13c-0.37,0.07-0.67,0.15-0.89,0.26
		c-0.23,0.11-0.39,0.23-0.49,0.37c-0.1,0.14-0.15,0.3-0.15,0.47c0,0.17,0.03,0.31,0.08,0.43c0.05,0.12,0.13,0.22,0.22,0.29
		c0.1,0.08,0.21,0.13,0.34,0.17C52.2,44.87,52.34,44.89,52.5,44.89z"/>
	<path class="st2" d="M62.58,40.09c-0.05,0.06-0.09,0.11-0.13,0.14c-0.04,0.03-0.1,0.05-0.18,0.05c-0.08,0-0.16-0.03-0.25-0.08
		c-0.09-0.06-0.19-0.12-0.31-0.19c-0.12-0.07-0.26-0.13-0.43-0.19c-0.17-0.06-0.38-0.08-0.63-0.08c-0.33,0-0.61,0.06-0.86,0.17
		c-0.24,0.12-0.45,0.28-0.62,0.5s-0.29,0.48-0.37,0.79c-0.08,0.31-0.12,0.66-0.12,1.04c0,0.4,0.04,0.76,0.13,1.07
		c0.09,0.31,0.22,0.58,0.38,0.79s0.37,0.38,0.6,0.49s0.5,0.17,0.79,0.17c0.29,0,0.52-0.03,0.71-0.1c0.18-0.07,0.33-0.15,0.45-0.23
		c0.12-0.08,0.22-0.16,0.31-0.23c0.09-0.07,0.18-0.1,0.28-0.1c0.12,0,0.21,0.05,0.28,0.14l0.43,0.55c-0.17,0.21-0.36,0.39-0.57,0.53
		c-0.21,0.14-0.43,0.26-0.66,0.35s-0.48,0.16-0.73,0.2c-0.25,0.04-0.51,0.06-0.76,0.06c-0.44,0-0.86-0.08-1.24-0.25
		c-0.38-0.17-0.72-0.41-1.01-0.72c-0.29-0.31-0.51-0.7-0.68-1.15c-0.17-0.45-0.25-0.97-0.25-1.56c0-0.53,0.07-1.01,0.22-1.46
		c0.15-0.45,0.37-0.84,0.65-1.16s0.64-0.58,1.07-0.77c0.42-0.18,0.91-0.28,1.47-0.28c0.52,0,0.97,0.08,1.37,0.25
		c0.39,0.17,0.74,0.41,1.05,0.71L62.58,40.09z"/>
	<path class="st2" d="M66.54,45.93c-0.59,0-1.05-0.17-1.37-0.5c-0.32-0.33-0.48-0.8-0.48-1.41v-4.15h-0.78
		c-0.08,0-0.16-0.03-0.22-0.08s-0.09-0.13-0.09-0.24v-0.61l1.15-0.17l0.33-2.06c0.02-0.08,0.06-0.14,0.12-0.19
		c0.06-0.05,0.13-0.07,0.22-0.07h0.77v2.34h1.98v1.08H66.2v4.05c0,0.26,0.06,0.45,0.19,0.59c0.13,0.14,0.29,0.2,0.5,0.2
		c0.12,0,0.22-0.02,0.3-0.05s0.16-0.06,0.22-0.1c0.06-0.03,0.11-0.07,0.16-0.1c0.04-0.03,0.09-0.05,0.13-0.05
		c0.08,0,0.15,0.05,0.2,0.14l0.45,0.73c-0.23,0.21-0.51,0.36-0.82,0.47S66.87,45.93,66.54,45.93z"/>
	<path class="st2" d="M69.13,44.96c0-0.14,0.02-0.26,0.07-0.38c0.05-0.12,0.12-0.22,0.2-0.31c0.09-0.09,0.19-0.16,0.31-0.21
		c0.12-0.05,0.25-0.08,0.38-0.08c0.14,0,0.26,0.03,0.38,0.08c0.12,0.05,0.22,0.12,0.31,0.21c0.09,0.09,0.16,0.19,0.21,0.31
		c0.05,0.12,0.08,0.25,0.08,0.38c0,0.14-0.03,0.27-0.08,0.38c-0.05,0.12-0.12,0.22-0.21,0.31c-0.09,0.09-0.19,0.16-0.31,0.21
		c-0.12,0.05-0.25,0.07-0.38,0.07c-0.13,0-0.26-0.02-0.38-0.07c-0.12-0.05-0.22-0.12-0.31-0.21c-0.09-0.09-0.15-0.19-0.2-0.31
		C69.16,45.22,69.13,45.1,69.13,44.96z"/>
</g>
<g>
</g>
<g>
	<path class="st2" d="M41.05,64.57v-7.13h0.87c0.16,0,0.27,0.03,0.33,0.09c0.06,0.06,0.1,0.16,0.13,0.3l0.08,0.93
		c0.23-0.45,0.5-0.81,0.82-1.07c0.32-0.26,0.7-0.39,1.14-0.39c0.15,0,0.3,0.02,0.43,0.05c0.14,0.03,0.26,0.09,0.36,0.16l-0.1,1.13
		c-0.02,0.08-0.05,0.13-0.09,0.16s-0.09,0.05-0.16,0.05c-0.07,0-0.17-0.01-0.3-0.04c-0.13-0.03-0.27-0.04-0.41-0.04
		c-0.21,0-0.4,0.03-0.56,0.09s-0.31,0.15-0.43,0.27c-0.13,0.12-0.24,0.26-0.34,0.43c-0.1,0.17-0.19,0.36-0.27,0.57v4.43H41.05z"/>
	<path class="st2" d="M49.19,57.33c0.44,0,0.84,0.07,1.22,0.21c0.37,0.14,0.69,0.35,0.96,0.63c0.27,0.27,0.48,0.61,0.63,1.01
		s0.23,0.85,0.23,1.36c0,0.23-0.03,0.39-0.08,0.47s-0.14,0.12-0.28,0.12H47.3c0.02,0.41,0.08,0.76,0.19,1.05s0.25,0.54,0.43,0.74
		c0.18,0.2,0.39,0.34,0.64,0.44c0.25,0.1,0.53,0.14,0.83,0.14c0.29,0,0.55-0.03,0.76-0.1c0.21-0.07,0.4-0.14,0.56-0.22
		c0.16-0.08,0.29-0.16,0.41-0.22c0.11-0.07,0.21-0.1,0.31-0.1c0.12,0,0.21,0.05,0.28,0.14l0.43,0.55c-0.18,0.21-0.38,0.39-0.6,0.53
		c-0.22,0.14-0.46,0.26-0.71,0.35c-0.25,0.09-0.51,0.16-0.78,0.2s-0.52,0.06-0.78,0.06c-0.49,0-0.95-0.08-1.37-0.25
		c-0.42-0.17-0.79-0.41-1.1-0.73c-0.31-0.32-0.55-0.72-0.73-1.2c-0.17-0.48-0.26-1.02-0.26-1.64c0-0.49,0.08-0.96,0.23-1.38
		s0.38-0.8,0.67-1.12c0.29-0.32,0.65-0.57,1.06-0.75S48.66,57.33,49.19,57.33z M49.22,58.42c-0.54,0-0.97,0.16-1.29,0.47
		c-0.31,0.31-0.51,0.75-0.59,1.31h3.54c0-0.25-0.04-0.49-0.11-0.7c-0.07-0.22-0.18-0.41-0.32-0.57c-0.14-0.16-0.31-0.29-0.52-0.38
		C49.73,58.46,49.49,58.42,49.22,58.42z"/>
	<path class="st2" d="M55.93,64.68c-0.59,0-1.05-0.17-1.37-0.5c-0.32-0.33-0.48-0.8-0.48-1.41v-4.15H53.3
		c-0.08,0-0.16-0.03-0.22-0.08s-0.09-0.13-0.09-0.24v-0.61l1.15-0.17l0.33-2.06c0.02-0.08,0.06-0.14,0.12-0.19
		c0.06-0.05,0.13-0.07,0.22-0.07h0.77v2.34h1.98v1.08h-1.98v4.05c0,0.26,0.06,0.45,0.19,0.59c0.13,0.14,0.29,0.2,0.5,0.2
		c0.12,0,0.22-0.02,0.3-0.05s0.16-0.06,0.22-0.1c0.06-0.03,0.11-0.07,0.16-0.1c0.04-0.03,0.09-0.05,0.13-0.05
		c0.08,0,0.15,0.05,0.2,0.14l0.45,0.73c-0.23,0.21-0.51,0.36-0.82,0.47S56.26,64.68,55.93,64.68z"/>
	<path class="st2" d="M63.35,64.57c-0.14,0-0.25-0.02-0.33-0.07s-0.14-0.13-0.19-0.27l-0.15-0.58c-0.18,0.17-0.36,0.31-0.54,0.44
		c-0.18,0.13-0.36,0.23-0.55,0.32c-0.19,0.09-0.39,0.15-0.61,0.2c-0.22,0.04-0.46,0.07-0.72,0.07c-0.29,0-0.56-0.04-0.81-0.12
		c-0.25-0.08-0.46-0.2-0.65-0.36c-0.18-0.16-0.32-0.36-0.43-0.6c-0.1-0.24-0.16-0.52-0.16-0.84c0-0.27,0.07-0.54,0.22-0.8
		c0.15-0.26,0.39-0.5,0.73-0.7c0.34-0.21,0.78-0.38,1.33-0.51c0.55-0.13,1.23-0.21,2.04-0.23v-0.48c0-0.51-0.11-0.9-0.33-1.15
		c-0.22-0.25-0.54-0.38-0.96-0.38c-0.29,0-0.53,0.04-0.73,0.11s-0.37,0.15-0.51,0.23s-0.27,0.16-0.38,0.23s-0.23,0.11-0.36,0.11
		c-0.1,0-0.19-0.03-0.26-0.08s-0.13-0.12-0.18-0.2l-0.27-0.49c0.81-0.75,1.77-1.13,2.88-1.13c0.41,0,0.77,0.07,1.09,0.2
		c0.32,0.13,0.59,0.32,0.8,0.56c0.22,0.24,0.38,0.53,0.5,0.86c0.11,0.33,0.17,0.7,0.17,1.11v4.53H63.35z M60.73,63.63
		c0.39,0,0.73-0.07,1.01-0.22c0.28-0.15,0.56-0.36,0.82-0.63v-1.33c-0.54,0.02-0.99,0.07-1.36,0.13c-0.37,0.07-0.67,0.15-0.89,0.26
		c-0.23,0.11-0.39,0.23-0.49,0.37c-0.1,0.14-0.15,0.3-0.15,0.47c0,0.17,0.03,0.31,0.08,0.43c0.05,0.12,0.13,0.22,0.22,0.29
		c0.1,0.08,0.21,0.13,0.34,0.17C60.44,63.62,60.58,63.63,60.73,63.63z"/>
	<path class="st2" d="M67.59,55.29c0,0.14-0.03,0.26-0.08,0.38c-0.05,0.12-0.13,0.23-0.22,0.32s-0.2,0.16-0.33,0.22
		c-0.12,0.05-0.25,0.08-0.4,0.08c-0.14,0-0.26-0.03-0.38-0.08c-0.12-0.05-0.22-0.13-0.31-0.22s-0.16-0.2-0.21-0.32
		c-0.05-0.12-0.08-0.25-0.08-0.38c0-0.14,0.03-0.27,0.08-0.39c0.05-0.12,0.13-0.23,0.21-0.32s0.19-0.16,0.31-0.22
		c0.12-0.05,0.25-0.08,0.38-0.08c0.14,0,0.27,0.03,0.4,0.08c0.12,0.05,0.23,0.13,0.33,0.22s0.17,0.2,0.22,0.32
		C67.57,55.02,67.59,55.15,67.59,55.29z M67.34,57.44v7.13h-1.5v-7.13H67.34z"/>
	<path class="st2" d="M70.78,54.22v10.35h-1.5V54.22H70.78z"/>
</g>
<g>
</g>
<g>
	<path class="st2" d="M32.1,83.32v-5.93l-0.7-0.1c-0.12-0.02-0.21-0.07-0.28-0.13s-0.11-0.15-0.11-0.26v-0.61h1.09v-0.3
		c0-0.44,0.07-0.84,0.21-1.21c0.14-0.37,0.35-0.69,0.64-0.96c0.28-0.27,0.64-0.48,1.07-0.63c0.43-0.15,0.93-0.23,1.5-0.23
		c0.19,0,0.38,0.01,0.58,0.04c0.2,0.02,0.37,0.06,0.51,0.1l-0.05,0.78c-0.01,0.1-0.07,0.15-0.17,0.16
		c-0.11,0.01-0.25,0.02-0.43,0.02c-0.43,0-0.8,0.04-1.1,0.12s-0.55,0.21-0.74,0.37c-0.19,0.17-0.33,0.37-0.42,0.62
		c-0.09,0.24-0.13,0.53-0.13,0.86v0.26h4.37v7.03h-1.5v-5.95H33.6v5.95H32.1z"/>
	<path class="st2" d="M42.12,83.43c-0.59,0-1.05-0.17-1.37-0.5c-0.32-0.33-0.48-0.8-0.48-1.41v-4.15H39.5
		c-0.08,0-0.16-0.03-0.22-0.08s-0.09-0.13-0.09-0.24v-0.61l1.15-0.17l0.33-2.06c0.02-0.08,0.06-0.14,0.12-0.19
		c0.06-0.05,0.13-0.07,0.22-0.07h0.77v2.34h1.98v1.08h-1.98v4.05c0,0.26,0.06,0.45,0.19,0.59c0.13,0.14,0.29,0.2,0.5,0.2
		c0.12,0,0.22-0.02,0.3-0.05s0.16-0.06,0.22-0.1c0.06-0.03,0.11-0.07,0.16-0.1c0.04-0.03,0.09-0.05,0.13-0.05
		c0.08,0,0.15,0.05,0.2,0.14l0.45,0.73c-0.23,0.21-0.51,0.36-0.82,0.47S42.46,83.43,42.12,83.43z"/>
	<path class="st2" d="M44.95,83.32v-7.13h0.91c0.21,0,0.34,0.1,0.39,0.29l0.1,0.66c0.15-0.16,0.31-0.3,0.47-0.43
		c0.17-0.13,0.34-0.24,0.53-0.34c0.19-0.09,0.39-0.17,0.6-0.22c0.21-0.05,0.44-0.08,0.69-0.08c0.39,0,0.73,0.07,1.03,0.2
		s0.55,0.31,0.75,0.55s0.36,0.52,0.46,0.86c0.1,0.33,0.15,0.7,0.15,1.1v4.54h-1.5v-4.54c0-0.48-0.11-0.85-0.33-1.12
		c-0.22-0.27-0.56-0.4-1.01-0.4c-0.34,0-0.65,0.08-0.93,0.23s-0.56,0.36-0.81,0.63v5.19H44.95z"/>
	<path class="st2" d="M55.79,76.07c0.44,0,0.84,0.07,1.22,0.21c0.37,0.14,0.69,0.35,0.96,0.63c0.27,0.27,0.48,0.61,0.63,1.01
		s0.23,0.85,0.23,1.36c0,0.23-0.03,0.39-0.08,0.47s-0.14,0.12-0.28,0.12h-4.58c0.02,0.41,0.08,0.76,0.19,1.05s0.25,0.54,0.43,0.74
		c0.18,0.2,0.39,0.34,0.64,0.44c0.25,0.1,0.53,0.14,0.83,0.14c0.29,0,0.55-0.03,0.76-0.1c0.21-0.07,0.4-0.14,0.56-0.22
		c0.16-0.08,0.29-0.16,0.41-0.22c0.11-0.07,0.21-0.1,0.31-0.1c0.12,0,0.21,0.05,0.28,0.14l0.43,0.55c-0.18,0.21-0.38,0.39-0.6,0.53
		c-0.22,0.14-0.46,0.26-0.71,0.35c-0.25,0.09-0.51,0.16-0.78,0.2s-0.52,0.06-0.78,0.06c-0.49,0-0.95-0.08-1.37-0.25
		c-0.42-0.17-0.79-0.41-1.1-0.73c-0.31-0.32-0.55-0.72-0.73-1.2c-0.17-0.48-0.26-1.02-0.26-1.64c0-0.49,0.08-0.96,0.23-1.38
		s0.38-0.8,0.67-1.12c0.29-0.32,0.65-0.57,1.06-0.75S55.26,76.07,55.79,76.07z M55.82,77.17c-0.54,0-0.97,0.16-1.29,0.47
		c-0.31,0.31-0.51,0.75-0.59,1.31h3.54c0-0.25-0.04-0.49-0.11-0.7c-0.07-0.22-0.18-0.41-0.32-0.57c-0.14-0.16-0.31-0.29-0.52-0.38
		C56.33,77.21,56.09,77.17,55.82,77.17z"/>
	<path class="st2" d="M64.5,77.48c-0.04,0.06-0.08,0.11-0.13,0.14c-0.05,0.03-0.1,0.04-0.17,0.04c-0.08,0-0.17-0.02-0.26-0.07
		c-0.09-0.05-0.2-0.1-0.33-0.16c-0.13-0.06-0.27-0.12-0.44-0.16c-0.17-0.05-0.37-0.07-0.6-0.07c-0.19,0-0.35,0.02-0.51,0.07
		c-0.15,0.04-0.28,0.11-0.38,0.19s-0.19,0.18-0.24,0.29c-0.06,0.11-0.08,0.23-0.08,0.35c0,0.17,0.05,0.31,0.15,0.42
		s0.24,0.21,0.41,0.29c0.17,0.08,0.36,0.15,0.57,0.22c0.21,0.06,0.43,0.14,0.66,0.21c0.22,0.07,0.44,0.16,0.66,0.26
		c0.21,0.1,0.41,0.22,0.57,0.36c0.17,0.14,0.3,0.31,0.41,0.52c0.1,0.2,0.15,0.45,0.15,0.74c0,0.34-0.06,0.65-0.18,0.93
		s-0.3,0.53-0.53,0.74c-0.23,0.21-0.52,0.37-0.87,0.49c-0.35,0.12-0.74,0.17-1.19,0.17c-0.25,0-0.49-0.02-0.72-0.07
		c-0.23-0.04-0.45-0.1-0.66-0.18c-0.21-0.08-0.4-0.17-0.58-0.28c-0.18-0.11-0.34-0.22-0.48-0.35l0.35-0.57
		c0.04-0.07,0.09-0.12,0.16-0.16c0.06-0.04,0.14-0.06,0.23-0.06c0.1,0,0.19,0.03,0.29,0.09c0.1,0.06,0.21,0.13,0.34,0.21
		c0.13,0.07,0.28,0.14,0.46,0.21c0.18,0.06,0.41,0.09,0.68,0.09c0.22,0,0.42-0.03,0.58-0.08c0.16-0.05,0.3-0.13,0.41-0.22
		c0.11-0.09,0.19-0.2,0.24-0.32c0.05-0.12,0.08-0.25,0.08-0.38c0-0.18-0.05-0.33-0.15-0.45c-0.1-0.12-0.24-0.22-0.41-0.3
		c-0.17-0.08-0.36-0.16-0.58-0.22c-0.22-0.07-0.44-0.14-0.66-0.21c-0.22-0.07-0.44-0.16-0.66-0.26c-0.22-0.1-0.41-0.22-0.58-0.37
		c-0.17-0.15-0.31-0.34-0.41-0.55s-0.15-0.48-0.15-0.79c0-0.28,0.06-0.55,0.17-0.81c0.11-0.26,0.28-0.48,0.5-0.68
		c0.22-0.2,0.49-0.35,0.82-0.46c0.32-0.11,0.7-0.17,1.12-0.17c0.48,0,0.92,0.08,1.31,0.23c0.39,0.15,0.72,0.36,0.99,0.63L64.5,77.48
		z"/>
	<path class="st2" d="M70.61,77.48c-0.04,0.06-0.08,0.11-0.13,0.14c-0.05,0.03-0.1,0.04-0.17,0.04c-0.08,0-0.17-0.02-0.26-0.07
		c-0.09-0.05-0.2-0.1-0.33-0.16c-0.13-0.06-0.27-0.12-0.44-0.16c-0.17-0.05-0.37-0.07-0.6-0.07c-0.19,0-0.35,0.02-0.51,0.07
		c-0.15,0.04-0.28,0.11-0.38,0.19s-0.19,0.18-0.24,0.29c-0.06,0.11-0.08,0.23-0.08,0.35c0,0.17,0.05,0.31,0.15,0.42
		s0.24,0.21,0.41,0.29c0.17,0.08,0.36,0.15,0.57,0.22c0.21,0.06,0.43,0.14,0.66,0.21c0.22,0.07,0.44,0.16,0.66,0.26
		c0.21,0.1,0.41,0.22,0.57,0.36c0.17,0.14,0.3,0.31,0.41,0.52c0.1,0.2,0.15,0.45,0.15,0.74c0,0.34-0.06,0.65-0.18,0.93
		s-0.3,0.53-0.53,0.74c-0.23,0.21-0.52,0.37-0.87,0.49c-0.35,0.12-0.74,0.17-1.19,0.17c-0.25,0-0.49-0.02-0.72-0.07
		c-0.23-0.04-0.45-0.1-0.66-0.18c-0.21-0.08-0.4-0.17-0.58-0.28c-0.18-0.11-0.34-0.22-0.48-0.35l0.35-0.57
		c0.04-0.07,0.09-0.12,0.16-0.16c0.06-0.04,0.14-0.06,0.23-0.06c0.1,0,0.19,0.03,0.29,0.09c0.1,0.06,0.21,0.13,0.34,0.21
		c0.13,0.07,0.28,0.14,0.46,0.21c0.18,0.06,0.41,0.09,0.68,0.09c0.22,0,0.42-0.03,0.58-0.08c0.16-0.05,0.3-0.13,0.41-0.22
		c0.11-0.09,0.19-0.2,0.24-0.32c0.05-0.12,0.08-0.25,0.08-0.38c0-0.18-0.05-0.33-0.15-0.45c-0.1-0.12-0.24-0.22-0.41-0.3
		c-0.17-0.08-0.36-0.16-0.58-0.22c-0.22-0.07-0.44-0.14-0.66-0.21c-0.22-0.07-0.44-0.16-0.66-0.26c-0.22-0.1-0.41-0.22-0.58-0.37
		c-0.17-0.15-0.31-0.34-0.41-0.55s-0.15-0.48-0.15-0.79c0-0.28,0.06-0.55,0.17-0.81c0.11-0.26,0.28-0.48,0.5-0.68
		c0.22-0.2,0.49-0.35,0.82-0.46c0.32-0.11,0.7-0.17,1.12-0.17c0.48,0,0.92,0.08,1.31,0.23c0.39,0.15,0.72,0.36,0.99,0.63
		L70.61,77.48z"/>
</g>
<g>
</g>
<g>
	<path class="st2" d="M16.91,115.08c-0.05,0.06-0.09,0.11-0.13,0.14c-0.04,0.03-0.1,0.05-0.18,0.05c-0.08,0-0.16-0.03-0.25-0.08
		c-0.09-0.06-0.19-0.12-0.31-0.19c-0.12-0.07-0.26-0.13-0.43-0.18c-0.17-0.06-0.38-0.08-0.63-0.08c-0.33,0-0.61,0.06-0.86,0.17
		c-0.24,0.12-0.45,0.28-0.62,0.5c-0.17,0.22-0.29,0.48-0.37,0.79c-0.08,0.31-0.12,0.66-0.12,1.04c0,0.4,0.04,0.76,0.13,1.07
		c0.09,0.31,0.22,0.58,0.38,0.79c0.17,0.21,0.37,0.38,0.6,0.49c0.24,0.11,0.5,0.17,0.79,0.17c0.29,0,0.52-0.04,0.71-0.1
		c0.18-0.07,0.33-0.15,0.45-0.23c0.12-0.08,0.22-0.16,0.31-0.23c0.09-0.07,0.18-0.1,0.28-0.1c0.12,0,0.21,0.05,0.28,0.14l0.43,0.55
		c-0.17,0.21-0.36,0.39-0.57,0.53c-0.21,0.14-0.43,0.26-0.66,0.35s-0.48,0.16-0.73,0.2c-0.25,0.04-0.51,0.06-0.76,0.06
		c-0.44,0-0.86-0.08-1.24-0.25c-0.38-0.17-0.72-0.41-1.01-0.72c-0.29-0.31-0.51-0.7-0.68-1.15s-0.25-0.97-0.25-1.56
		c0-0.53,0.07-1.01,0.22-1.46c0.15-0.45,0.37-0.84,0.65-1.16s0.64-0.58,1.07-0.77c0.42-0.18,0.91-0.28,1.47-0.28
		c0.52,0,0.97,0.08,1.37,0.25c0.39,0.17,0.74,0.41,1.05,0.71L16.91,115.08z"/>
	<path class="st2" d="M18.58,120.81v-10.34h1.5v4.06c0.29-0.29,0.62-0.52,0.96-0.7c0.35-0.17,0.76-0.26,1.22-0.26
		c0.39,0,0.73,0.06,1.03,0.2s0.55,0.31,0.75,0.55c0.2,0.24,0.36,0.52,0.46,0.86s0.15,0.7,0.15,1.1v4.54h-1.5v-4.54
		c0-0.48-0.11-0.85-0.33-1.12c-0.22-0.27-0.56-0.4-1.01-0.4c-0.34,0-0.65,0.08-0.93,0.23c-0.29,0.15-0.56,0.36-0.81,0.63v5.19H18.58
		z"/>
	<path class="st2" d="M29.42,113.57c0.44,0,0.84,0.07,1.22,0.21c0.37,0.14,0.69,0.35,0.96,0.63c0.27,0.28,0.48,0.61,0.63,1.01
		s0.23,0.85,0.23,1.36c0,0.23-0.03,0.39-0.08,0.47c-0.05,0.08-0.14,0.12-0.28,0.12h-4.58c0.02,0.41,0.08,0.76,0.19,1.05
		c0.11,0.3,0.25,0.54,0.43,0.74c0.18,0.2,0.39,0.34,0.64,0.44c0.25,0.1,0.53,0.14,0.83,0.14c0.29,0,0.55-0.03,0.76-0.1
		c0.21-0.07,0.4-0.14,0.56-0.22c0.16-0.08,0.29-0.16,0.41-0.22s0.21-0.1,0.31-0.1c0.12,0,0.21,0.05,0.28,0.14l0.43,0.55
		c-0.18,0.21-0.38,0.39-0.6,0.53s-0.46,0.26-0.71,0.35c-0.25,0.09-0.51,0.16-0.78,0.2c-0.27,0.04-0.52,0.06-0.78,0.06
		c-0.49,0-0.95-0.08-1.37-0.25c-0.42-0.17-0.79-0.41-1.1-0.73c-0.31-0.32-0.55-0.72-0.73-1.2c-0.17-0.47-0.26-1.02-0.26-1.64
		c0-0.49,0.08-0.96,0.23-1.38s0.38-0.8,0.67-1.12c0.29-0.32,0.65-0.57,1.06-0.75C28.42,113.66,28.9,113.57,29.42,113.57z
		 M29.45,114.66c-0.54,0-0.97,0.16-1.29,0.47c-0.31,0.31-0.51,0.75-0.59,1.31h3.54c0-0.25-0.04-0.49-0.11-0.7
		c-0.07-0.22-0.18-0.41-0.32-0.57c-0.14-0.16-0.31-0.29-0.52-0.38C29.96,114.71,29.72,114.66,29.45,114.66z"/>
	<path class="st2" d="M33.87,120.81v-7.13h0.91c0.21,0,0.34,0.1,0.39,0.29l0.1,0.62c0.13-0.15,0.27-0.29,0.41-0.41
		c0.14-0.12,0.29-0.23,0.45-0.32s0.33-0.16,0.52-0.21c0.18-0.05,0.38-0.08,0.6-0.08c0.23,0,0.44,0.03,0.63,0.1
		c0.19,0.07,0.36,0.16,0.51,0.28c0.15,0.12,0.27,0.27,0.38,0.44c0.11,0.17,0.2,0.37,0.27,0.58c0.11-0.25,0.24-0.46,0.41-0.64
		c0.16-0.18,0.34-0.32,0.55-0.43c0.2-0.11,0.41-0.19,0.64-0.25c0.23-0.05,0.46-0.08,0.69-0.08c0.38,0,0.72,0.06,1.02,0.18
		s0.55,0.3,0.76,0.53c0.21,0.23,0.36,0.51,0.47,0.85c0.11,0.33,0.16,0.72,0.16,1.15v4.54h-1.5v-4.54c0-0.5-0.11-0.88-0.33-1.14
		c-0.22-0.25-0.54-0.38-0.96-0.38c-0.19,0-0.37,0.03-0.54,0.1c-0.17,0.06-0.31,0.16-0.44,0.29s-0.23,0.28-0.3,0.47
		s-0.11,0.41-0.11,0.66v4.54h-1.5v-4.54c0-0.52-0.1-0.91-0.31-1.15c-0.21-0.24-0.52-0.37-0.92-0.37c-0.28,0-0.54,0.07-0.78,0.21
		c-0.24,0.14-0.46,0.34-0.66,0.58v5.26H33.87z"/>
	<path class="st2" d="M47.33,111.53c0,0.14-0.03,0.26-0.08,0.38c-0.05,0.12-0.13,0.23-0.22,0.32s-0.2,0.16-0.33,0.22
		s-0.25,0.08-0.4,0.08c-0.14,0-0.26-0.03-0.38-0.08s-0.22-0.13-0.31-0.22s-0.16-0.2-0.21-0.32c-0.05-0.12-0.08-0.25-0.08-0.38
		c0-0.14,0.03-0.27,0.08-0.39c0.05-0.12,0.13-0.23,0.21-0.32s0.19-0.16,0.31-0.22s0.25-0.08,0.38-0.08c0.14,0,0.27,0.03,0.4,0.08
		s0.23,0.13,0.33,0.22s0.17,0.2,0.22,0.32C47.3,111.26,47.33,111.39,47.33,111.53z M47.08,113.68v7.13h-1.5v-7.13H47.08z"/>
	<path class="st2" d="M53.24,114.97c-0.04,0.07-0.08,0.11-0.13,0.14c-0.05,0.03-0.1,0.04-0.17,0.04c-0.08,0-0.17-0.02-0.26-0.07
		s-0.2-0.1-0.33-0.16c-0.13-0.06-0.27-0.12-0.44-0.16c-0.17-0.05-0.37-0.07-0.6-0.07c-0.19,0-0.35,0.02-0.51,0.07
		c-0.15,0.04-0.28,0.11-0.38,0.19c-0.1,0.08-0.19,0.18-0.24,0.29c-0.06,0.11-0.08,0.23-0.08,0.35c0,0.17,0.05,0.31,0.15,0.42
		c0.1,0.11,0.24,0.21,0.41,0.29c0.17,0.08,0.36,0.16,0.57,0.22c0.21,0.07,0.43,0.13,0.66,0.21c0.22,0.07,0.44,0.16,0.66,0.26
		c0.21,0.1,0.41,0.22,0.57,0.36c0.17,0.14,0.3,0.31,0.41,0.52c0.1,0.2,0.15,0.45,0.15,0.74c0,0.33-0.06,0.65-0.18,0.93
		s-0.3,0.53-0.53,0.74c-0.23,0.21-0.52,0.37-0.87,0.49c-0.35,0.12-0.74,0.17-1.19,0.17c-0.25,0-0.49-0.02-0.72-0.07
		c-0.23-0.04-0.45-0.11-0.66-0.18c-0.21-0.08-0.4-0.17-0.58-0.28c-0.18-0.11-0.34-0.22-0.48-0.35l0.35-0.57
		c0.04-0.07,0.09-0.13,0.16-0.16c0.06-0.04,0.14-0.06,0.23-0.06c0.1,0,0.19,0.03,0.29,0.09c0.1,0.06,0.21,0.13,0.34,0.21
		c0.13,0.07,0.28,0.14,0.46,0.21c0.18,0.06,0.41,0.09,0.68,0.09c0.22,0,0.42-0.03,0.58-0.08s0.3-0.13,0.41-0.22
		c0.11-0.09,0.19-0.2,0.24-0.32s0.08-0.25,0.08-0.38c0-0.18-0.05-0.33-0.15-0.45s-0.24-0.22-0.41-0.3
		c-0.17-0.08-0.36-0.16-0.58-0.22c-0.22-0.07-0.44-0.13-0.66-0.21c-0.22-0.07-0.44-0.16-0.66-0.26c-0.22-0.1-0.41-0.22-0.58-0.37
		c-0.17-0.15-0.31-0.33-0.41-0.55s-0.15-0.48-0.15-0.79c0-0.28,0.06-0.55,0.17-0.81c0.11-0.26,0.28-0.48,0.5-0.68
		c0.22-0.2,0.49-0.35,0.82-0.46c0.32-0.11,0.7-0.17,1.12-0.17c0.48,0,0.92,0.08,1.31,0.23c0.39,0.15,0.72,0.36,0.99,0.63
		L53.24,114.97z"/>
	<path class="st2" d="M57.39,120.92c-0.59,0-1.05-0.17-1.37-0.5c-0.32-0.33-0.48-0.8-0.48-1.41v-4.15h-0.78
		c-0.08,0-0.16-0.03-0.22-0.08c-0.06-0.05-0.09-0.13-0.09-0.24v-0.61l1.15-0.17l0.33-2.06c0.02-0.08,0.06-0.14,0.12-0.19
		c0.06-0.05,0.13-0.07,0.22-0.07h0.77v2.34h1.98v1.08h-1.98v4.05c0,0.26,0.06,0.45,0.19,0.59c0.13,0.14,0.29,0.2,0.5,0.2
		c0.12,0,0.22-0.02,0.3-0.05s0.16-0.06,0.22-0.1c0.06-0.04,0.11-0.07,0.16-0.1c0.04-0.03,0.09-0.05,0.13-0.05
		c0.08,0,0.15,0.05,0.2,0.14l0.45,0.73c-0.23,0.21-0.51,0.36-0.82,0.47S57.72,120.92,57.39,120.92z"/>
	<path class="st2" d="M60.21,120.81v-7.13h0.87c0.16,0,0.27,0.03,0.33,0.09c0.06,0.06,0.1,0.16,0.13,0.3l0.08,0.93
		c0.23-0.45,0.5-0.81,0.82-1.07c0.32-0.26,0.7-0.39,1.14-0.39c0.15,0,0.3,0.02,0.43,0.05s0.26,0.09,0.36,0.16l-0.1,1.13
		c-0.02,0.08-0.05,0.13-0.09,0.17s-0.09,0.04-0.16,0.04c-0.07,0-0.17-0.01-0.3-0.04s-0.27-0.04-0.41-0.04
		c-0.21,0-0.4,0.03-0.56,0.09s-0.31,0.15-0.43,0.27c-0.13,0.12-0.24,0.26-0.34,0.43c-0.1,0.17-0.19,0.36-0.27,0.57v4.43H60.21z"/>
	<path class="st2" d="M67.77,122.84c-0.05,0.11-0.11,0.19-0.19,0.25s-0.18,0.09-0.33,0.09h-1.11l1.31-2.85l-2.91-6.65h1.31
		c0.13,0,0.22,0.03,0.29,0.09c0.07,0.06,0.12,0.13,0.15,0.21l1.7,4.05c0.08,0.23,0.15,0.47,0.21,0.7c0.04-0.12,0.08-0.24,0.12-0.36
		s0.08-0.23,0.13-0.35l1.63-4.04c0.03-0.08,0.09-0.15,0.16-0.21c0.08-0.06,0.16-0.08,0.26-0.08h1.2L67.77,122.84z"/>
</g>
<g>
</g>
<g>
	<path class="st2" d="M50.98,134.52c0,0.75-0.12,1.43-0.36,2.06c-0.24,0.63-0.58,1.17-1.02,1.63s-0.97,0.81-1.59,1.07
		c-0.62,0.26-1.3,0.38-2.06,0.38c-0.75,0-1.43-0.13-2.05-0.38c-0.62-0.26-1.15-0.61-1.59-1.07s-0.79-1-1.03-1.63
		s-0.36-1.32-0.36-2.06c0-0.75,0.12-1.43,0.36-2.06s0.58-1.17,1.03-1.63c0.44-0.46,0.97-0.81,1.59-1.07s1.3-0.38,2.05-0.38
		c0.75,0,1.44,0.13,2.06,0.38c0.62,0.26,1.15,0.61,1.59,1.07c0.44,0.46,0.78,1,1.02,1.63C50.86,133.09,50.98,133.78,50.98,134.52z
		 M49.31,134.52c0-0.58-0.08-1.1-0.23-1.56c-0.16-0.46-0.38-0.85-0.67-1.17c-0.29-0.32-0.64-0.57-1.06-0.74
		c-0.42-0.17-0.88-0.26-1.4-0.26c-0.51,0-0.98,0.09-1.39,0.26c-0.42,0.17-0.77,0.42-1.06,0.74c-0.29,0.32-0.52,0.71-0.68,1.17
		c-0.16,0.46-0.24,0.98-0.24,1.56c0,0.58,0.08,1.1,0.24,1.57c0.16,0.46,0.38,0.85,0.68,1.17s0.65,0.56,1.06,0.73
		c0.41,0.17,0.88,0.25,1.39,0.25c0.52,0,0.98-0.08,1.4-0.25c0.41-0.17,0.77-0.41,1.06-0.73c0.29-0.32,0.51-0.71,0.67-1.17
		C49.23,135.63,49.31,135.11,49.31,134.52z"/>
	<path class="st2" d="M56.24,129.38c0.39,0,0.74,0.06,1.06,0.18c0.31,0.12,0.58,0.29,0.81,0.49c0.23,0.21,0.4,0.44,0.53,0.71
		c0.13,0.27,0.2,0.54,0.23,0.83l-0.95,0.2c-0.08,0.02-0.16,0.01-0.23-0.03c-0.07-0.04-0.13-0.11-0.16-0.21
		c-0.04-0.12-0.09-0.24-0.16-0.36c-0.07-0.12-0.16-0.22-0.26-0.32c-0.1-0.09-0.22-0.17-0.37-0.23c-0.14-0.06-0.31-0.09-0.49-0.09
		c-0.21,0-0.41,0.04-0.58,0.11c-0.17,0.07-0.31,0.17-0.43,0.29c-0.12,0.12-0.21,0.27-0.27,0.43c-0.06,0.16-0.09,0.34-0.09,0.52
		c0,0.15,0.02,0.29,0.05,0.43c0.03,0.14,0.09,0.28,0.16,0.42c0.07,0.14,0.17,0.28,0.28,0.43c0.11,0.15,0.25,0.3,0.42,0.47l2.78,2.86
		c0.16-0.3,0.29-0.62,0.39-0.96c0.1-0.33,0.17-0.67,0.2-1.01c0.01-0.1,0.04-0.18,0.1-0.23c0.06-0.06,0.13-0.09,0.22-0.09h0.93
		c0,0.58-0.09,1.14-0.26,1.68c-0.17,0.54-0.41,1.04-0.72,1.5l2.11,2.17h-1.46c-0.08,0-0.15,0-0.21-0.01
		c-0.06-0.01-0.12-0.02-0.17-0.05c-0.05-0.02-0.1-0.05-0.15-0.09s-0.1-0.09-0.16-0.15l-0.84-0.85c-0.44,0.39-0.94,0.7-1.51,0.92
		s-1.17,0.34-1.83,0.34c-0.38,0-0.76-0.07-1.12-0.2c-0.37-0.13-0.69-0.32-0.98-0.56c-0.29-0.25-0.52-0.54-0.7-0.89
		c-0.18-0.35-0.27-0.75-0.27-1.19c0-0.32,0.05-0.62,0.16-0.91c0.1-0.29,0.25-0.55,0.44-0.8c0.19-0.24,0.41-0.46,0.67-0.66
		s0.54-0.36,0.85-0.5c-0.27-0.35-0.46-0.69-0.58-1.03s-0.18-0.68-0.18-1.02s0.06-0.67,0.19-0.98c0.13-0.31,0.31-0.58,0.55-0.8
		c0.24-0.23,0.53-0.41,0.87-0.54C55.42,129.45,55.81,129.38,56.24,129.38z M55.45,138.45c0.46,0,0.88-0.08,1.26-0.23
		s0.71-0.37,1.01-0.63l-2.8-2.85c-0.43,0.25-0.75,0.54-0.95,0.88s-0.31,0.7-0.31,1.09c0,0.27,0.05,0.52,0.15,0.74s0.23,0.4,0.4,0.55
		c0.17,0.15,0.36,0.26,0.57,0.34C54.99,138.41,55.21,138.45,55.45,138.45z"/>
	<path class="st2" d="M67.52,139.67c-0.82,0-1.55-0.13-2.21-0.38c-0.66-0.25-1.22-0.61-1.69-1.06c-0.47-0.45-0.82-1-1.08-1.63
		c-0.25-0.63-0.38-1.32-0.38-2.08c0-0.76,0.12-1.46,0.36-2.09c0.24-0.63,0.59-1.17,1.04-1.63s1-0.81,1.64-1.06
		c0.64-0.25,1.36-0.37,2.15-0.37c0.41,0,0.78,0.03,1.13,0.09s0.67,0.15,0.97,0.26c0.3,0.11,0.57,0.25,0.82,0.41
		c0.25,0.16,0.48,0.34,0.69,0.53l-0.47,0.75c-0.07,0.12-0.17,0.19-0.29,0.22c-0.12,0.03-0.24,0-0.38-0.08
		c-0.14-0.08-0.28-0.16-0.43-0.25c-0.15-0.09-0.33-0.17-0.52-0.25c-0.2-0.08-0.42-0.14-0.68-0.19s-0.56-0.07-0.91-0.07
		c-0.53,0-1.01,0.09-1.44,0.26c-0.43,0.17-0.79,0.42-1.09,0.75c-0.3,0.32-0.54,0.72-0.7,1.18c-0.16,0.46-0.24,0.98-0.24,1.54
		c0,0.6,0.09,1.14,0.26,1.61c0.17,0.47,0.42,0.87,0.73,1.2c0.32,0.33,0.7,0.58,1.15,0.75c0.45,0.17,0.95,0.26,1.51,0.26
		c0.42,0,0.78-0.04,1.11-0.13c0.32-0.09,0.64-0.21,0.95-0.37v-2h-1.4c-0.11,0-0.19-0.03-0.25-0.09c-0.06-0.06-0.09-0.13-0.09-0.23
		v-0.93h3.22v3.98C70.02,139.31,68.85,139.67,67.52,139.67z"/>
</g>
<g>
</g>
<g>
	<path class="st2" d="M42.2,151.06c0.53,0,1,0.09,1.43,0.26c0.43,0.17,0.79,0.42,1.09,0.73c0.3,0.32,0.53,0.7,0.7,1.15
		c0.16,0.45,0.24,0.96,0.24,1.52c0,0.56-0.08,1.07-0.24,1.52c-0.16,0.45-0.4,0.84-0.7,1.16c-0.3,0.32-0.66,0.57-1.09,0.74
		c-0.43,0.17-0.9,0.26-1.43,0.26c-0.53,0-1.01-0.09-1.44-0.26c-0.43-0.17-0.79-0.42-1.09-0.74c-0.3-0.32-0.54-0.7-0.7-1.16
		s-0.24-0.96-0.24-1.52c0-0.56,0.08-1.07,0.24-1.52s0.4-0.84,0.7-1.15c0.3-0.32,0.67-0.56,1.09-0.73
		C41.19,151.15,41.67,151.06,42.2,151.06z M42.2,157.24c0.64,0,1.12-0.22,1.44-0.65c0.31-0.43,0.47-1.05,0.47-1.85
		c0-0.8-0.16-1.42-0.47-1.86c-0.31-0.44-0.79-0.65-1.44-0.65c-0.65,0-1.14,0.22-1.45,0.65s-0.48,1.05-0.48,1.86
		c0,0.8,0.16,1.42,0.48,1.85C41.06,157.02,41.55,157.24,42.2,157.24z"/>
	<path class="st2" d="M49.39,158.42c-0.59,0-1.05-0.17-1.37-0.5c-0.32-0.33-0.48-0.8-0.48-1.41v-4.15h-0.78
		c-0.08,0-0.16-0.03-0.22-0.08c-0.06-0.05-0.09-0.13-0.09-0.24v-0.61l1.15-0.17l0.33-2.06c0.02-0.08,0.06-0.14,0.12-0.19
		c0.06-0.05,0.13-0.07,0.22-0.07h0.77v2.34h1.98v1.08h-1.98v4.05c0,0.26,0.06,0.45,0.19,0.59c0.13,0.14,0.29,0.2,0.5,0.2
		c0.12,0,0.22-0.02,0.3-0.05s0.16-0.06,0.22-0.1c0.06-0.04,0.11-0.07,0.16-0.1c0.04-0.03,0.09-0.05,0.13-0.05
		c0.08,0,0.15,0.05,0.2,0.14l0.45,0.73c-0.23,0.21-0.51,0.36-0.82,0.47S49.72,158.42,49.39,158.42z"/>
	<path class="st2" d="M52.21,158.31v-10.34h1.5v4.06c0.29-0.29,0.62-0.52,0.96-0.7c0.35-0.17,0.76-0.26,1.22-0.26
		c0.39,0,0.73,0.06,1.03,0.2s0.55,0.31,0.75,0.55c0.2,0.24,0.36,0.52,0.46,0.86s0.15,0.7,0.15,1.1v4.54h-1.5v-4.54
		c0-0.48-0.11-0.85-0.33-1.12c-0.22-0.27-0.56-0.4-1.01-0.4c-0.34,0-0.65,0.08-0.93,0.23c-0.29,0.15-0.56,0.36-0.81,0.63v5.19H52.21
		z"/>
	<path class="st2" d="M63.05,151.06c0.44,0,0.84,0.07,1.22,0.21c0.37,0.14,0.69,0.35,0.96,0.63c0.27,0.28,0.48,0.61,0.63,1.01
		s0.23,0.85,0.23,1.36c0,0.23-0.03,0.39-0.08,0.47c-0.05,0.08-0.14,0.12-0.28,0.12h-4.58c0.02,0.41,0.08,0.76,0.19,1.05
		c0.11,0.3,0.25,0.54,0.43,0.74c0.18,0.2,0.39,0.34,0.64,0.44c0.25,0.1,0.53,0.14,0.83,0.14c0.29,0,0.55-0.03,0.76-0.1
		c0.21-0.07,0.4-0.14,0.56-0.22c0.16-0.08,0.29-0.16,0.41-0.22s0.21-0.1,0.31-0.1c0.12,0,0.21,0.05,0.28,0.14l0.43,0.55
		c-0.18,0.21-0.38,0.39-0.6,0.53s-0.46,0.26-0.71,0.35c-0.25,0.09-0.51,0.16-0.78,0.2c-0.27,0.04-0.52,0.06-0.78,0.06
		c-0.49,0-0.95-0.08-1.37-0.25c-0.42-0.17-0.79-0.41-1.1-0.73c-0.31-0.32-0.55-0.72-0.73-1.2c-0.17-0.47-0.26-1.02-0.26-1.64
		c0-0.49,0.08-0.96,0.23-1.38s0.38-0.8,0.67-1.12c0.29-0.32,0.65-0.57,1.06-0.75C62.05,151.16,62.52,151.06,63.05,151.06z
		 M63.08,152.15c-0.54,0-0.97,0.16-1.29,0.47c-0.31,0.31-0.51,0.75-0.59,1.31h3.54c0-0.25-0.04-0.49-0.11-0.7
		c-0.07-0.22-0.18-0.41-0.32-0.57c-0.14-0.16-0.31-0.29-0.52-0.38C63.59,152.2,63.35,152.15,63.08,152.15z"/>
	<path class="st2" d="M67.5,158.31v-7.13h0.87c0.16,0,0.27,0.03,0.33,0.09c0.06,0.06,0.1,0.16,0.13,0.3l0.08,0.93
		c0.23-0.45,0.5-0.81,0.82-1.07c0.32-0.26,0.7-0.39,1.14-0.39c0.15,0,0.3,0.02,0.43,0.05s0.26,0.09,0.36,0.16l-0.1,1.13
		c-0.02,0.08-0.05,0.13-0.09,0.17s-0.09,0.04-0.16,0.04c-0.07,0-0.17-0.01-0.3-0.04s-0.27-0.04-0.41-0.04
		c-0.21,0-0.4,0.03-0.56,0.09s-0.31,0.15-0.43,0.27c-0.13,0.12-0.24,0.26-0.34,0.43c-0.1,0.17-0.19,0.36-0.27,0.57v4.43H67.5z"/>
</g>
<g>
</g>
<g>
	<path class="st2" d="M158.16,148.13c0.45,0,0.86,0.07,1.23,0.2s0.7,0.32,0.97,0.57c0.27,0.25,0.49,0.54,0.64,0.89
		c0.15,0.35,0.23,0.74,0.23,1.18c0,0.37-0.05,0.72-0.16,1.04c-0.11,0.32-0.26,0.62-0.44,0.91s-0.4,0.57-0.65,0.84
		s-0.51,0.55-0.79,0.83l-2.43,2.49c0.2-0.05,0.4-0.09,0.6-0.13c0.2-0.04,0.39-0.05,0.58-0.05h2.96c0.16,0,0.29,0.05,0.38,0.14
		c0.09,0.1,0.14,0.22,0.14,0.37v0.91h-6.81v-0.51c0-0.1,0.02-0.21,0.06-0.32c0.04-0.11,0.11-0.21,0.2-0.31l3.13-3.14
		c0.27-0.27,0.5-0.52,0.71-0.76c0.21-0.24,0.38-0.48,0.53-0.73c0.15-0.24,0.26-0.49,0.33-0.74c0.08-0.25,0.12-0.51,0.12-0.79
		c0-0.27-0.04-0.5-0.12-0.7c-0.08-0.2-0.19-0.37-0.34-0.5c-0.14-0.13-0.31-0.23-0.51-0.3s-0.42-0.1-0.65-0.1
		c-0.23,0-0.44,0.03-0.63,0.1c-0.19,0.07-0.37,0.16-0.52,0.27c-0.15,0.12-0.28,0.25-0.38,0.42c-0.1,0.16-0.17,0.34-0.22,0.53
		c-0.07,0.19-0.16,0.32-0.27,0.38c-0.11,0.06-0.27,0.08-0.48,0.04l-0.79-0.14c0.07-0.47,0.2-0.89,0.39-1.25
		c0.19-0.36,0.44-0.66,0.73-0.9c0.29-0.24,0.63-0.42,1.01-0.54S157.71,148.13,158.16,148.13z"/>
	<path class="st2" d="M166.27,148.13c0.45,0,0.86,0.07,1.23,0.2s0.7,0.32,0.97,0.57c0.27,0.25,0.49,0.54,0.64,0.89
		c0.15,0.35,0.23,0.74,0.23,1.18c0,0.37-0.05,0.72-0.16,1.04c-0.11,0.32-0.26,0.62-0.44,0.91s-0.4,0.57-0.65,0.84
		s-0.51,0.55-0.79,0.83l-2.43,2.49c0.2-0.05,0.4-0.09,0.6-0.13c0.2-0.04,0.39-0.05,0.58-0.05H169c0.16,0,0.29,0.05,0.38,0.14
		c0.09,0.1,0.14,0.22,0.14,0.37v0.91h-6.81v-0.51c0-0.1,0.02-0.21,0.06-0.32c0.04-0.11,0.11-0.21,0.2-0.31l3.13-3.14
		c0.27-0.27,0.5-0.52,0.71-0.76c0.21-0.24,0.38-0.48,0.53-0.73c0.15-0.24,0.26-0.49,0.33-0.74c0.08-0.25,0.12-0.51,0.12-0.79
		c0-0.27-0.04-0.5-0.12-0.7c-0.08-0.2-0.19-0.37-0.34-0.5c-0.14-0.13-0.31-0.23-0.51-0.3s-0.42-0.1-0.65-0.1
		c-0.23,0-0.44,0.03-0.63,0.1c-0.19,0.07-0.37,0.16-0.52,0.27c-0.15,0.12-0.28,0.25-0.38,0.42c-0.1,0.16-0.17,0.34-0.22,0.53
		c-0.07,0.19-0.16,0.32-0.27,0.38c-0.11,0.06-0.27,0.08-0.48,0.04l-0.79-0.14c0.07-0.47,0.2-0.89,0.39-1.25
		c0.19-0.36,0.44-0.66,0.73-0.9c0.29-0.24,0.63-0.42,1.01-0.54S165.82,148.13,166.27,148.13z"/>
</g>
<g>
</g>
<g>
	<path class="st5" d="M145.13,174.76c-0.36,0-0.64-0.1-0.83-0.3c-0.19-0.2-0.29-0.49-0.29-0.87v-2.79h-0.55
		c-0.05,0-0.09-0.01-0.12-0.04s-0.05-0.07-0.05-0.13v-0.32l0.75-0.09l0.18-1.41c0.01-0.04,0.03-0.08,0.06-0.11s0.07-0.04,0.12-0.04
		h0.41v1.57h1.32v0.58h-1.32v2.74c0,0.19,0.05,0.33,0.14,0.43c0.09,0.09,0.21,0.14,0.36,0.14c0.08,0,0.16-0.01,0.22-0.03
		s0.11-0.05,0.16-0.07c0.04-0.03,0.08-0.05,0.12-0.07c0.03-0.02,0.06-0.03,0.08-0.03c0.04,0,0.08,0.03,0.11,0.08l0.23,0.38
		c-0.14,0.13-0.3,0.23-0.5,0.3C145.54,174.72,145.34,174.76,145.13,174.76z"/>
</g>
<g>
	<path class="st5" d="M148.9,170.05c0.33,0,0.63,0.06,0.9,0.17c0.27,0.11,0.5,0.27,0.68,0.47c0.19,0.2,0.33,0.45,0.43,0.74
		c0.1,0.29,0.15,0.61,0.15,0.97c0,0.36-0.05,0.68-0.15,0.97s-0.25,0.53-0.43,0.74c-0.19,0.2-0.42,0.36-0.68,0.47
		c-0.27,0.11-0.57,0.17-0.9,0.17c-0.34,0-0.64-0.06-0.91-0.17s-0.5-0.27-0.69-0.47c-0.19-0.2-0.33-0.45-0.43-0.74
		s-0.15-0.61-0.15-0.97c0-0.36,0.05-0.68,0.15-0.97c0.1-0.29,0.25-0.54,0.43-0.74c0.19-0.2,0.42-0.36,0.69-0.47
		S148.56,170.05,148.9,170.05z M148.9,174.12c0.45,0,0.79-0.15,1.01-0.45c0.22-0.3,0.33-0.72,0.33-1.26c0-0.54-0.11-0.97-0.33-1.27
		c-0.22-0.3-0.56-0.46-1.01-0.46c-0.23,0-0.43,0.04-0.6,0.12c-0.17,0.08-0.31,0.19-0.42,0.34c-0.11,0.15-0.2,0.33-0.25,0.54
		c-0.06,0.21-0.08,0.46-0.08,0.73c0,0.54,0.11,0.96,0.34,1.26C148.1,173.97,148.44,174.12,148.9,174.12z"/>
	<path class="st5" d="M153.48,174.76c-0.36,0-0.64-0.1-0.83-0.3c-0.19-0.2-0.29-0.49-0.29-0.87v-2.79h-0.55
		c-0.05,0-0.09-0.01-0.12-0.04s-0.05-0.07-0.05-0.13v-0.32l0.75-0.09l0.18-1.41c0.01-0.04,0.03-0.08,0.06-0.11s0.07-0.04,0.12-0.04
		h0.41v1.57h1.32v0.58h-1.32v2.74c0,0.19,0.05,0.33,0.14,0.43c0.09,0.09,0.21,0.14,0.36,0.14c0.08,0,0.16-0.01,0.22-0.03
		s0.11-0.05,0.16-0.07c0.04-0.03,0.08-0.05,0.12-0.07c0.03-0.02,0.06-0.03,0.08-0.03c0.04,0,0.08,0.03,0.11,0.08l0.23,0.38
		c-0.14,0.13-0.3,0.23-0.5,0.3C153.88,174.72,153.68,174.76,153.48,174.76z"/>
	<path class="st5" d="M158.21,174.69c-0.08,0-0.14-0.01-0.18-0.04s-0.08-0.08-0.1-0.15l-0.09-0.43c-0.12,0.11-0.24,0.2-0.35,0.29
		c-0.12,0.08-0.24,0.16-0.36,0.22s-0.26,0.1-0.4,0.13c-0.14,0.03-0.3,0.05-0.47,0.05c-0.18,0-0.34-0.03-0.5-0.07
		c-0.16-0.05-0.29-0.12-0.41-0.22c-0.12-0.1-0.21-0.22-0.27-0.38s-0.1-0.33-0.1-0.54c0-0.18,0.05-0.35,0.15-0.52
		c0.1-0.17,0.26-0.31,0.48-0.44c0.22-0.13,0.51-0.23,0.87-0.32c0.36-0.08,0.79-0.13,1.31-0.14v-0.36c0-0.35-0.08-0.62-0.23-0.8
		c-0.15-0.18-0.38-0.27-0.67-0.27c-0.2,0-0.36,0.02-0.5,0.07c-0.13,0.05-0.25,0.1-0.35,0.17s-0.18,0.12-0.25,0.17
		c-0.07,0.05-0.14,0.07-0.21,0.07c-0.05,0-0.1-0.01-0.14-0.04s-0.07-0.06-0.1-0.11l-0.14-0.26c0.25-0.24,0.52-0.42,0.81-0.54
		c0.29-0.12,0.61-0.18,0.97-0.18c0.25,0,0.48,0.04,0.68,0.13c0.2,0.08,0.37,0.2,0.5,0.35c0.13,0.15,0.24,0.33,0.31,0.54
		c0.07,0.21,0.1,0.45,0.1,0.7v2.92H158.21z M156.49,174.2c0.14,0,0.27-0.01,0.39-0.04c0.12-0.03,0.23-0.07,0.33-0.12
		c0.1-0.05,0.2-0.12,0.3-0.19c0.09-0.08,0.19-0.16,0.28-0.26v-0.94c-0.37,0.01-0.68,0.04-0.94,0.09c-0.26,0.05-0.47,0.11-0.63,0.18
		c-0.16,0.08-0.28,0.16-0.36,0.27c-0.07,0.1-0.11,0.22-0.11,0.34c0,0.12,0.02,0.22,0.06,0.31s0.09,0.16,0.16,0.21
		s0.15,0.1,0.24,0.12C156.29,174.18,156.39,174.2,156.49,174.2z"/>
	<path class="st5" d="M160.63,168.06v6.63h-0.8v-6.63H160.63z"/>
</g>
<g>
	<path class="st5" d="M161.84,170.82c0-0.08,0.01-0.15,0.04-0.22c0.03-0.07,0.07-0.13,0.12-0.18c0.05-0.05,0.11-0.09,0.18-0.12
		c0.07-0.03,0.14-0.04,0.22-0.04s0.15,0.01,0.22,0.04c0.07,0.03,0.13,0.07,0.18,0.12c0.05,0.05,0.09,0.11,0.12,0.18
		c0.03,0.07,0.04,0.14,0.04,0.22c0,0.08-0.01,0.16-0.04,0.22s-0.07,0.13-0.12,0.18c-0.05,0.05-0.11,0.09-0.18,0.12
		c-0.07,0.03-0.14,0.04-0.22,0.04s-0.15-0.01-0.22-0.04c-0.07-0.03-0.13-0.07-0.18-0.12c-0.05-0.05-0.09-0.11-0.12-0.18
		S161.84,170.9,161.84,170.82z M161.84,174.19c0-0.08,0.01-0.15,0.04-0.22c0.03-0.07,0.07-0.13,0.12-0.18
		c0.05-0.05,0.11-0.09,0.18-0.12c0.07-0.03,0.14-0.04,0.22-0.04s0.15,0.01,0.22,0.04c0.07,0.03,0.13,0.07,0.18,0.12
		c0.05,0.05,0.09,0.11,0.12,0.18c0.03,0.07,0.04,0.14,0.04,0.22c0,0.08-0.01,0.16-0.04,0.22s-0.07,0.13-0.12,0.18
		c-0.05,0.05-0.11,0.09-0.18,0.12c-0.07,0.03-0.14,0.04-0.22,0.04s-0.15-0.01-0.22-0.04c-0.07-0.03-0.13-0.07-0.18-0.12
		c-0.05-0.05-0.09-0.11-0.12-0.18S161.84,174.27,161.84,174.19z"/>
	<path class="st5" d="M169.83,172.36h0.98v0.46c0,0.05-0.01,0.09-0.04,0.12s-0.07,0.05-0.13,0.05h-0.8v1.7h-0.7v-1.7h-2.86
		c-0.06,0-0.11-0.02-0.16-0.05c-0.04-0.03-0.07-0.08-0.08-0.13l-0.08-0.41l3.14-4.16h0.75V172.36z M169.13,169.7
		c0-0.08,0-0.16,0.01-0.25c0-0.09,0.01-0.19,0.03-0.28l-2.35,3.2h2.31V169.7z"/>
	<path class="st5" d="M176.01,171.46c0,0.56-0.06,1.05-0.18,1.46c-0.12,0.41-0.29,0.75-0.5,1.02c-0.21,0.27-0.46,0.47-0.75,0.6
		c-0.29,0.13-0.59,0.2-0.92,0.2c-0.33,0-0.64-0.07-0.92-0.2c-0.28-0.13-0.53-0.33-0.74-0.6c-0.21-0.27-0.38-0.61-0.5-1.02
		c-0.12-0.41-0.18-0.9-0.18-1.46c0-0.56,0.06-1.05,0.18-1.47c0.12-0.41,0.29-0.76,0.5-1.03s0.46-0.47,0.74-0.61
		c0.28-0.13,0.59-0.2,0.92-0.2c0.33,0,0.63,0.07,0.92,0.2c0.29,0.13,0.54,0.33,0.75,0.61s0.38,0.61,0.5,1.03
		C175.95,170.41,176.01,170.9,176.01,171.46z M175.18,171.46c0-0.49-0.04-0.91-0.12-1.24c-0.08-0.33-0.19-0.6-0.33-0.81
		c-0.14-0.2-0.3-0.35-0.48-0.44c-0.18-0.09-0.37-0.13-0.57-0.13s-0.39,0.04-0.57,0.13c-0.18,0.09-0.34,0.23-0.48,0.44
		c-0.14,0.2-0.25,0.47-0.33,0.81c-0.08,0.33-0.12,0.75-0.12,1.24s0.04,0.9,0.12,1.24c0.08,0.33,0.19,0.6,0.33,0.81
		c0.14,0.2,0.3,0.35,0.48,0.44c0.18,0.09,0.37,0.13,0.57,0.13s0.39-0.04,0.57-0.13c0.18-0.09,0.34-0.23,0.48-0.44
		c0.14-0.2,0.25-0.47,0.33-0.81C175.14,172.37,175.18,171.96,175.18,171.46z"/>
</g>
<g>
</g>
</svg>
