<?xml version="1.0" encoding="utf-8"?>
<!-- Generator: Adobe Illustrator 26.3.1, SVG Export Plug-In . SVG Version: 6.00 Build 0)  -->
<svg version="1.1" id="Layer_1" xmlns="http://www.w3.org/2000/svg" xmlns:xlink="http://www.w3.org/1999/xlink" x="0px" y="0px"
	 viewBox="0 0 180 180" style="enable-background:new 0 0 180 180;" xml:space="preserve">
<style type="text/css">
	.st0{fill:#C0C0C0;}
	.st1{fill:#9B1C3C;}
	.st2{fill:none;stroke:#000000;stroke-width:0.72;stroke-linejoin:round;stroke-miterlimit:10;}
	.st3{fill:#808080;}
</style>
<g>
	<path class="st0" d="M145.13,174.76c-0.36,0-0.64-0.1-0.83-0.3c-0.19-0.2-0.29-0.49-0.29-0.87v-2.79h-0.55
		c-0.05,0-0.09-0.01-0.12-0.04s-0.05-0.07-0.05-0.13v-0.32l0.75-0.09l0.18-1.41c0.01-0.04,0.03-0.08,0.06-0.11s0.07-0.04,0.12-0.04
		h0.41v1.57h1.32v0.58h-1.32v2.74c0,0.19,0.05,0.33,0.14,0.43c0.09,0.09,0.21,0.14,0.36,0.14c0.08,0,0.16-0.01,0.22-0.03
		s0.11-0.05,0.16-0.07c0.04-0.03,0.08-0.05,0.12-0.07c0.03-0.02,0.06-0.03,0.08-0.03c0.04,0,0.08,0.03,0.11,0.08l0.23,0.38
		c-0.14,0.13-0.3,0.23-0.5,0.3C145.54,174.72,145.34,174.76,145.13,174.76z"/>
</g>
<g>
	<path class="st0" d="M148.9,170.05c0.33,0,0.63,0.06,0.9,0.17c0.27,0.11,0.5,0.27,0.68,0.47c0.19,0.2,0.33,0.45,0.43,0.74
		c0.1,0.29,0.15,0.61,0.15,0.97c0,0.36-0.05,0.68-0.15,0.97s-0.25,0.53-0.43,0.74c-0.19,0.2-0.42,0.36-0.68,0.47
		c-0.27,0.11-0.57,0.17-0.9,0.17c-0.34,0-0.64-0.06-0.91-0.17s-0.5-0.27-0.69-0.47c-0.19-0.2-0.33-0.45-0.43-0.74
		s-0.15-0.61-0.15-0.97c0-0.36,0.05-0.68,0.15-0.97c0.1-0.29,0.25-0.54,0.43-0.74c0.19-0.2,0.42-0.36,0.69-0.47
		S148.56,170.05,148.9,170.05z M148.9,174.12c0.45,0,0.79-0.15,1.01-0.45c0.22-0.3,0.33-0.72,0.33-1.26c0-0.54-0.11-0.97-0.33-1.27
		c-0.22-0.3-0.56-0.46-1.01-0.46c-0.23,0-0.43,0.04-0.6,0.12c-0.17,0.08-0.31,0.19-0.42,0.34c-0.11,0.15-0.2,0.33-0.25,0.54
		c-0.06,0.21-0.08,0.46-0.08,0.73c0,0.54,0.11,0.96,0.34,1.26C148.1,173.97,148.44,174.12,148.9,174.12z"/>
	<path class="st0" d="M153.48,174.76c-0.36,0-0.64-0.1-0.83-0.3c-0.19-0.2-0.29-0.49-0.29-0.87v-2.79h-0.55
		c-0.05,0-0.09-0.01-0.12-0.04s-0.05-0.07-0.05-0.13v-0.32l0.75-0.09l0.18-1.41c0.01-0.04,0.03-0.08,0.06-0.11s0.07-0.04,0.12-0.04
		h0.41v1.57h1.32v0.58h-1.32v2.74c0,0.19,0.05,0.33,0.14,0.43c0.09,0.09,0.21,0.14,0.36,0.14c0.08,0,0.16-0.01,0.22-0.03
		s0.11-0.05,0.16-0.07c0.04-0.03,0.08-0.05,0.12-0.07c0.03-0.02,0.06-0.03,0.08-0.03c0.04,0,0.08,0.03,0.11,0.08l0.23,0.38
		c-0.14,0.13-0.3,0.23-0.5,0.3C153.88,174.72,153.68,174.76,153.48,174.76z"/>
	<path class="st0" d="M158.21,174.69c-0.08,0-0.14-0.01-0.18-0.04s-0.08-0.08-0.1-0.15l-0.09-0.43c-0.12,0.11-0.24,0.2-0.35,0.29
		c-0.12,0.08-0.24,0.16-0.36,0.22s-0.26,0.1-0.4,0.13c-0.14,0.03-0.3,0.05-0.47,0.05c-0.18,0-0.34-0.03-0.5-0.07
		c-0.16-0.05-0.29-0.12-0.41-0.22c-0.12-0.1-0.21-0.22-0.27-0.38s-0.1-0.33-0.1-0.54c0-0.18,0.05-0.35,0.15-0.52
		c0.1-0.17,0.26-0.31,0.48-0.44c0.22-0.13,0.51-0.23,0.87-0.32c0.36-0.08,0.79-0.13,1.31-0.14v-0.36c0-0.35-0.08-0.62-0.23-0.8
		c-0.15-0.18-0.38-0.27-0.67-0.27c-0.2,0-0.36,0.02-0.5,0.07c-0.13,0.05-0.25,0.1-0.35,0.17s-0.18,0.12-0.25,0.17
		c-0.07,0.05-0.14,0.07-0.21,0.07c-0.05,0-0.1-0.01-0.14-0.04s-0.07-0.06-0.1-0.11l-0.14-0.26c0.25-0.24,0.52-0.42,0.81-0.54
		c0.29-0.12,0.61-0.18,0.97-0.18c0.25,0,0.48,0.04,0.68,0.13c0.2,0.08,0.37,0.2,0.5,0.35c0.13,0.15,0.24,0.33,0.31,0.54
		c0.07,0.21,0.1,0.45,0.1,0.7v2.92H158.21z M156.49,174.2c0.14,0,0.27-0.01,0.39-0.04c0.12-0.03,0.23-0.07,0.33-0.12
		c0.1-0.05,0.2-0.12,0.3-0.19c0.09-0.08,0.19-0.16,0.28-0.26v-0.94c-0.37,0.01-0.68,0.04-0.94,0.09c-0.26,0.05-0.47,0.11-0.63,0.18
		c-0.16,0.08-0.28,0.16-0.36,0.27c-0.07,0.1-0.11,0.22-0.11,0.34c0,0.12,0.02,0.22,0.06,0.31s0.09,0.16,0.16,0.21
		s0.15,0.1,0.24,0.12C156.29,174.18,156.39,174.2,156.49,174.2z"/>
	<path class="st0" d="M160.63,168.06v6.63h-0.8v-6.63H160.63z"/>
</g>
<g>
	<path class="st0" d="M161.84,170.82c0-0.08,0.01-0.15,0.04-0.22c0.03-0.07,0.07-0.13,0.12-0.18c0.05-0.05,0.11-0.09,0.18-0.12
		c0.07-0.03,0.14-0.04,0.22-0.04s0.15,0.01,0.22,0.04c0.07,0.03,0.13,0.07,0.18,0.12c0.05,0.05,0.09,0.11,0.12,0.18
		c0.03,0.07,0.04,0.14,0.04,0.22c0,0.08-0.01,0.16-0.04,0.22s-0.07,0.13-0.12,0.18c-0.05,0.05-0.11,0.09-0.18,0.12
		c-0.07,0.03-0.14,0.04-0.22,0.04s-0.15-0.01-0.22-0.04c-0.07-0.03-0.13-0.07-0.18-0.12c-0.05-0.05-0.09-0.11-0.12-0.18
		S161.84,170.9,161.84,170.82z M161.84,174.19c0-0.08,0.01-0.15,0.04-0.22c0.03-0.07,0.07-0.13,0.12-0.18
		c0.05-0.05,0.11-0.09,0.18-0.12c0.07-0.03,0.14-0.04,0.22-0.04s0.15,0.01,0.22,0.04c0.07,0.03,0.13,0.07,0.18,0.12
		c0.05,0.05,0.09,0.11,0.12,0.18c0.03,0.07,0.04,0.14,0.04,0.22c0,0.08-0.01,0.16-0.04,0.22s-0.07,0.13-0.12,0.18
		c-0.05,0.05-0.11,0.09-0.18,0.12c-0.07,0.03-0.14,0.04-0.22,0.04s-0.15-0.01-0.22-0.04c-0.07-0.03-0.13-0.07-0.18-0.12
		c-0.05-0.05-0.09-0.11-0.12-0.18S161.84,174.27,161.84,174.19z"/>
	<path class="st0" d="M169.83,172.36h0.98v0.46c0,0.05-0.01,0.09-0.04,0.12s-0.07,0.05-0.13,0.05h-0.8v1.7h-0.7v-1.7h-2.86
		c-0.06,0-0.11-0.02-0.16-0.05c-0.04-0.03-0.07-0.08-0.08-0.13l-0.08-0.41l3.14-4.16h0.75V172.36z M169.13,169.7
		c0-0.08,0-0.16,0.01-0.25c0-0.09,0.01-0.19,0.03-0.28l-2.35,3.2h2.31V169.7z"/>
	<path class="st0" d="M176.01,171.46c0,0.56-0.06,1.05-0.18,1.46c-0.12,0.41-0.29,0.75-0.5,1.02c-0.21,0.27-0.46,0.47-0.75,0.6
		c-0.29,0.13-0.59,0.2-0.92,0.2c-0.33,0-0.64-0.07-0.92-0.2c-0.28-0.13-0.53-0.33-0.74-0.6c-0.21-0.27-0.38-0.61-0.5-1.02
		c-0.12-0.41-0.18-0.9-0.18-1.46c0-0.56,0.06-1.05,0.18-1.47c0.12-0.41,0.29-0.76,0.5-1.03s0.46-0.47,0.74-0.61
		c0.28-0.13,0.59-0.2,0.92-0.2c0.33,0,0.63,0.07,0.92,0.2c0.29,0.13,0.54,0.33,0.75,0.61s0.38,0.61,0.5,1.03
		C175.95,170.41,176.01,170.9,176.01,171.46z M175.18,171.46c0-0.49-0.04-0.91-0.12-1.24c-0.08-0.33-0.19-0.6-0.33-0.81
		c-0.14-0.2-0.3-0.35-0.48-0.44c-0.18-0.09-0.37-0.13-0.57-0.13s-0.39,0.04-0.57,0.13c-0.18,0.09-0.34,0.23-0.48,0.44
		c-0.14,0.2-0.25,0.47-0.33,0.81c-0.08,0.33-0.12,0.75-0.12,1.24s0.04,0.9,0.12,1.24c0.08,0.33,0.19,0.6,0.33,0.81
		c0.14,0.2,0.3,0.35,0.48,0.44c0.18,0.09,0.37,0.13,0.57,0.13s0.39-0.04,0.57-0.13c0.18-0.09,0.34-0.23,0.48-0.44
		c0.14-0.2,0.25-0.47,0.33-0.81C175.14,172.37,175.18,171.96,175.18,171.46z"/>
</g>
<g>
</g>
<path class="st1" d="M114.06,141h32.34v-29.28h-32.34V141z M33.24,141h32.34V24H33.24V141z"/>
<line class="st2" x1="9" y1="141" x2="170.64" y2="141"/>
<g>
	<path class="st3" d="M45.48,9.15c0.45,0,0.85,0.06,1.22,0.19c0.37,0.13,0.68,0.31,0.94,0.53c0.26,0.23,0.47,0.5,0.61,0.82
		s0.21,0.66,0.21,1.04c0,0.64-0.15,1.14-0.44,1.5c-0.3,0.36-0.7,0.62-1.22,0.79c1.25,0.37,1.88,1.16,1.88,2.36
		c0,0.48-0.09,0.92-0.27,1.29c-0.18,0.38-0.43,0.7-0.74,0.96c-0.31,0.26-0.67,0.46-1.08,0.6c-0.41,0.14-0.85,0.21-1.31,0.21
		c-0.52,0-0.96-0.06-1.34-0.19c-0.38-0.12-0.7-0.3-0.98-0.53c-0.27-0.23-0.5-0.51-0.68-0.84s-0.34-0.69-0.46-1.1l0.65-0.27
		c0.17-0.07,0.34-0.1,0.49-0.06c0.16,0.03,0.27,0.12,0.34,0.26c0.07,0.15,0.16,0.31,0.25,0.48c0.09,0.17,0.21,0.33,0.36,0.47
		c0.15,0.14,0.33,0.26,0.55,0.36s0.48,0.14,0.8,0.14c0.32,0,0.6-0.05,0.84-0.16c0.24-0.1,0.44-0.24,0.6-0.41
		c0.16-0.17,0.28-0.35,0.36-0.56c0.08-0.21,0.12-0.41,0.12-0.61c0-0.25-0.03-0.48-0.09-0.7s-0.18-0.39-0.35-0.54
		c-0.17-0.15-0.42-0.27-0.74-0.35c-0.32-0.09-0.74-0.13-1.25-0.13v-1.08c0.42,0,0.78-0.05,1.07-0.13c0.29-0.08,0.52-0.19,0.7-0.34
		s0.3-0.31,0.38-0.51c0.08-0.2,0.12-0.42,0.12-0.66c0-0.26-0.04-0.48-0.12-0.68c-0.08-0.2-0.19-0.36-0.33-0.49s-0.31-0.23-0.51-0.3
		s-0.41-0.1-0.65-0.1c-0.23,0-0.44,0.03-0.63,0.1s-0.37,0.16-0.52,0.27c-0.15,0.12-0.28,0.26-0.38,0.42s-0.18,0.34-0.22,0.53
		c-0.06,0.19-0.15,0.32-0.26,0.38c-0.11,0.07-0.27,0.08-0.48,0.04l-0.79-0.14c0.07-0.48,0.2-0.89,0.4-1.25s0.44-0.66,0.73-0.9
		c0.29-0.24,0.63-0.42,1.01-0.55C44.63,9.21,45.04,9.15,45.48,9.15z"/>
	<path class="st3" d="M53.54,9.15c0.45,0,0.86,0.07,1.23,0.2c0.38,0.13,0.7,0.32,0.97,0.57c0.27,0.24,0.49,0.54,0.64,0.89
		c0.15,0.35,0.23,0.74,0.23,1.18c0,0.37-0.05,0.72-0.16,1.03c-0.11,0.32-0.26,0.62-0.44,0.91c-0.19,0.29-0.4,0.57-0.65,0.84
		c-0.25,0.27-0.51,0.55-0.79,0.83l-2.43,2.49c0.2-0.05,0.4-0.09,0.6-0.13c0.2-0.03,0.4-0.05,0.58-0.05h2.96
		c0.16,0,0.29,0.05,0.38,0.14c0.09,0.1,0.14,0.22,0.14,0.37v0.91h-6.81v-0.51c0-0.1,0.02-0.21,0.06-0.32
		c0.04-0.11,0.11-0.21,0.2-0.31l3.13-3.14c0.27-0.27,0.5-0.52,0.71-0.76c0.21-0.24,0.38-0.48,0.53-0.73
		c0.15-0.24,0.26-0.49,0.34-0.74c0.08-0.25,0.12-0.51,0.12-0.79c0-0.27-0.04-0.5-0.12-0.7s-0.19-0.37-0.34-0.5s-0.31-0.23-0.51-0.3
		c-0.2-0.07-0.42-0.1-0.65-0.1c-0.23,0-0.44,0.03-0.63,0.1s-0.37,0.16-0.52,0.27c-0.15,0.12-0.28,0.26-0.38,0.42
		s-0.17,0.34-0.22,0.53c-0.07,0.19-0.16,0.32-0.27,0.38s-0.27,0.08-0.48,0.04l-0.79-0.14c0.07-0.48,0.2-0.89,0.4-1.25
		s0.44-0.66,0.73-0.9c0.29-0.24,0.63-0.42,1.01-0.55S53.1,9.15,53.54,9.15z"/>
</g>
<g>
</g>
<g>
	<path class="st3" d="M130.23,107.19c-0.51,0-0.98-0.07-1.4-0.21c-0.42-0.14-0.78-0.33-1.09-0.58c-0.3-0.25-0.54-0.56-0.71-0.92
		c-0.17-0.36-0.25-0.76-0.25-1.2c0-0.62,0.15-1.13,0.46-1.54c0.31-0.42,0.77-0.72,1.39-0.91c-0.5-0.2-0.88-0.49-1.14-0.87
		c-0.25-0.38-0.38-0.84-0.38-1.38c0-0.38,0.08-0.73,0.22-1.06c0.15-0.33,0.36-0.61,0.63-0.85c0.27-0.24,0.6-0.43,0.98-0.57
		c0.38-0.14,0.8-0.21,1.27-0.21c0.46,0,0.88,0.07,1.26,0.21c0.38,0.14,0.71,0.33,0.98,0.57c0.27,0.24,0.48,0.52,0.64,0.85
		s0.23,0.68,0.23,1.06c0,0.54-0.13,1-0.38,1.38s-0.63,0.67-1.14,0.87c0.62,0.19,1.08,0.49,1.39,0.91c0.31,0.42,0.47,0.93,0.47,1.54
		c0,0.44-0.08,0.84-0.25,1.2c-0.17,0.36-0.4,0.66-0.71,0.92c-0.3,0.25-0.67,0.45-1.09,0.58
		C131.21,107.12,130.74,107.19,130.23,107.19z M130.23,106c0.3,0,0.57-0.04,0.81-0.13c0.24-0.09,0.44-0.21,0.6-0.36
		c0.16-0.16,0.28-0.34,0.37-0.56c0.08-0.21,0.13-0.45,0.13-0.7c0-0.31-0.05-0.57-0.14-0.8c-0.1-0.22-0.23-0.41-0.4-0.56
		c-0.17-0.15-0.37-0.26-0.6-0.33c-0.23-0.07-0.49-0.11-0.75-0.11c-0.27,0-0.52,0.04-0.76,0.11c-0.23,0.07-0.43,0.18-0.6,0.33
		c-0.17,0.15-0.3,0.33-0.4,0.56s-0.14,0.49-0.14,0.8c0,0.25,0.04,0.49,0.13,0.7c0.08,0.21,0.21,0.4,0.37,0.56
		c0.16,0.16,0.36,0.28,0.6,0.36C129.66,105.96,129.93,106,130.23,106z M130.23,101.27c0.3,0,0.56-0.05,0.77-0.14
		c0.21-0.09,0.38-0.22,0.51-0.37c0.13-0.16,0.22-0.33,0.28-0.54s0.09-0.41,0.09-0.62c0-0.21-0.03-0.41-0.1-0.6
		c-0.07-0.19-0.17-0.35-0.31-0.49s-0.31-0.25-0.51-0.34s-0.45-0.13-0.72-0.13c-0.28,0-0.52,0.04-0.72,0.13
		c-0.21,0.08-0.38,0.2-0.51,0.34c-0.14,0.14-0.24,0.3-0.3,0.49c-0.07,0.19-0.1,0.39-0.1,0.6c0,0.21,0.03,0.42,0.09,0.62
		s0.15,0.38,0.28,0.54s0.3,0.28,0.51,0.37C129.67,101.22,129.93,101.27,130.23,101.27z"/>
</g>
<g>
</g>
<g>
	<path class="st3" d="M25.7,159.73v-10.34h1.5v4.16c0.29-0.32,0.62-0.58,0.99-0.77c0.36-0.19,0.78-0.29,1.24-0.29
		c0.41,0,0.79,0.08,1.12,0.24c0.33,0.16,0.62,0.39,0.85,0.7c0.23,0.3,0.41,0.67,0.54,1.1s0.19,0.92,0.19,1.46
		c0,0.58-0.07,1.1-0.21,1.58c-0.14,0.47-0.35,0.88-0.61,1.22s-0.59,0.6-0.96,0.78c-0.38,0.18-0.8,0.28-1.27,0.28
		c-0.23,0-0.44-0.02-0.62-0.07c-0.19-0.04-0.36-0.11-0.52-0.19c-0.16-0.08-0.3-0.18-0.44-0.3c-0.13-0.12-0.26-0.25-0.38-0.4
		l-0.06,0.55c-0.02,0.11-0.07,0.18-0.13,0.23c-0.06,0.05-0.14,0.07-0.25,0.07H25.7z M28.93,153.67c-0.37,0-0.69,0.08-0.96,0.25
		c-0.27,0.17-0.53,0.4-0.77,0.71v3.31c0.21,0.27,0.44,0.46,0.69,0.57c0.25,0.11,0.52,0.16,0.81,0.16c0.59,0,1.05-0.21,1.38-0.64
		c0.33-0.43,0.5-1.09,0.5-1.99c0-0.82-0.14-1.42-0.43-1.8C29.87,153.86,29.46,153.67,28.93,153.67z"/>
	<path class="st3" d="M35,152.6v4.54c0,0.48,0.11,0.85,0.33,1.12s0.56,0.4,1.01,0.4c0.33,0,0.64-0.08,0.93-0.23s0.56-0.36,0.81-0.63
		v-5.2h1.5v7.13h-0.91c-0.2,0-0.33-0.1-0.38-0.29l-0.11-0.66c-0.3,0.32-0.64,0.57-1,0.77c-0.37,0.2-0.79,0.29-1.28,0.29
		c-0.39,0-0.74-0.07-1.03-0.2c-0.3-0.13-0.55-0.31-0.75-0.55c-0.2-0.24-0.36-0.52-0.46-0.86s-0.15-0.7-0.15-1.1v-4.54H35z"/>
	<path class="st3" d="M43.24,150.44c0,0.14-0.03,0.26-0.08,0.38c-0.05,0.12-0.13,0.23-0.22,0.32s-0.2,0.16-0.33,0.22
		s-0.25,0.08-0.4,0.08c-0.14,0-0.26-0.03-0.38-0.08s-0.22-0.13-0.31-0.22s-0.16-0.2-0.21-0.32c-0.05-0.12-0.08-0.25-0.08-0.38
		c0-0.14,0.03-0.27,0.08-0.39c0.05-0.12,0.13-0.23,0.21-0.32s0.19-0.16,0.31-0.22s0.25-0.08,0.38-0.08c0.14,0,0.27,0.03,0.4,0.08
		s0.23,0.13,0.33,0.22s0.17,0.2,0.22,0.32C43.21,150.17,43.24,150.3,43.24,150.44z M42.99,152.6v7.13h-1.5v-7.13H42.99z"/>
	<path class="st3" d="M46.43,149.38v10.34h-1.5v-10.34H46.43z"/>
	<path class="st3" d="M53.46,159.73c-0.2,0-0.33-0.1-0.38-0.29l-0.13-0.77c-0.15,0.17-0.31,0.33-0.48,0.47
		c-0.17,0.14-0.35,0.26-0.54,0.37s-0.4,0.18-0.62,0.24c-0.22,0.06-0.45,0.08-0.71,0.08c-0.4,0-0.76-0.08-1.09-0.24
		c-0.33-0.16-0.61-0.39-0.84-0.7c-0.23-0.31-0.41-0.69-0.54-1.14c-0.13-0.45-0.19-0.98-0.19-1.56c0-0.53,0.07-1.02,0.21-1.47
		s0.35-0.84,0.61-1.18s0.59-0.59,0.97-0.78s0.81-0.28,1.28-0.28c0.42,0,0.78,0.07,1.07,0.2s0.56,0.32,0.79,0.56v-3.84h1.5v10.34
		H53.46z M51.1,158.62c0.38,0,0.71-0.08,0.99-0.24c0.27-0.16,0.53-0.4,0.78-0.71v-3.32c-0.21-0.27-0.45-0.45-0.7-0.56
		c-0.25-0.11-0.52-0.16-0.81-0.16c-0.59,0-1.05,0.22-1.38,0.65c-0.33,0.43-0.5,1.07-0.5,1.91c0,0.44,0.04,0.81,0.11,1.12
		s0.18,0.56,0.32,0.76c0.14,0.2,0.31,0.34,0.51,0.43C50.63,158.58,50.85,158.62,51.1,158.62z"/>
	<path class="st3" d="M58,150.44c0,0.14-0.03,0.26-0.08,0.38c-0.05,0.12-0.13,0.23-0.22,0.32s-0.2,0.16-0.33,0.22
		s-0.25,0.08-0.4,0.08c-0.14,0-0.26-0.03-0.38-0.08s-0.22-0.13-0.31-0.22s-0.16-0.2-0.21-0.32c-0.05-0.12-0.08-0.25-0.08-0.38
		c0-0.14,0.03-0.27,0.08-0.39c0.05-0.12,0.13-0.23,0.21-0.32s0.19-0.16,0.31-0.22s0.25-0.08,0.38-0.08c0.14,0,0.27,0.03,0.4,0.08
		s0.23,0.13,0.33,0.22s0.17,0.2,0.22,0.32C57.98,150.17,58,150.3,58,150.44z M57.75,152.6v7.13h-1.5v-7.13H57.75z"/>
	<path class="st3" d="M59.66,159.73v-7.13h0.91c0.21,0,0.34,0.1,0.39,0.29l0.1,0.66c0.15-0.16,0.31-0.3,0.47-0.43
		c0.17-0.13,0.34-0.24,0.53-0.34c0.19-0.09,0.39-0.17,0.6-0.22c0.21-0.05,0.44-0.08,0.69-0.08c0.39,0,0.73,0.06,1.03,0.2
		s0.55,0.31,0.75,0.55c0.2,0.24,0.36,0.52,0.46,0.86s0.15,0.7,0.15,1.1v4.54h-1.5v-4.54c0-0.48-0.11-0.85-0.33-1.12
		c-0.22-0.27-0.56-0.4-1.01-0.4c-0.34,0-0.65,0.08-0.93,0.23c-0.29,0.15-0.56,0.36-0.81,0.63v5.19H59.66z"/>
	<path class="st3" d="M70.06,152.47c0.31,0,0.6,0.03,0.86,0.1s0.51,0.16,0.74,0.28h2v0.56c0,0.19-0.11,0.3-0.34,0.34l-0.71,0.12
		c0.12,0.28,0.18,0.58,0.18,0.9c0,0.35-0.07,0.67-0.21,0.95c-0.14,0.28-0.33,0.53-0.57,0.73c-0.24,0.2-0.53,0.35-0.87,0.46
		c-0.34,0.11-0.7,0.16-1.09,0.16c-0.15,0-0.29-0.01-0.44-0.02s-0.28-0.04-0.42-0.07c-0.14,0.08-0.24,0.16-0.3,0.25
		s-0.1,0.18-0.1,0.27c0,0.15,0.07,0.27,0.2,0.34c0.14,0.07,0.31,0.13,0.53,0.16c0.22,0.03,0.47,0.05,0.76,0.06
		c0.28,0.01,0.57,0.03,0.87,0.05c0.29,0.02,0.58,0.06,0.87,0.12s0.54,0.14,0.76,0.27c0.22,0.12,0.4,0.29,0.53,0.5
		c0.14,0.21,0.2,0.48,0.2,0.82c0,0.31-0.08,0.61-0.23,0.9c-0.15,0.29-0.38,0.55-0.67,0.78c-0.29,0.23-0.65,0.41-1.07,0.55
		s-0.9,0.21-1.43,0.21c-0.53,0-0.99-0.05-1.39-0.15c-0.39-0.1-0.72-0.24-0.99-0.42c-0.26-0.17-0.46-0.38-0.59-0.6
		c-0.13-0.23-0.19-0.47-0.19-0.71c0-0.34,0.11-0.62,0.32-0.86c0.21-0.24,0.5-0.42,0.86-0.56c-0.2-0.09-0.35-0.22-0.47-0.38
		c-0.12-0.16-0.18-0.38-0.18-0.64c0-0.1,0.02-0.21,0.06-0.32c0.04-0.11,0.09-0.22,0.17-0.33c0.08-0.11,0.17-0.21,0.29-0.31
		c0.11-0.1,0.25-0.19,0.4-0.27c-0.35-0.2-0.63-0.46-0.84-0.78s-0.3-0.71-0.3-1.14c0-0.35,0.07-0.67,0.21-0.96
		c0.14-0.28,0.33-0.53,0.58-0.73c0.25-0.2,0.54-0.35,0.88-0.46S69.66,152.47,70.06,152.47z M72.15,160.08
		c0-0.15-0.05-0.28-0.14-0.37s-0.21-0.17-0.37-0.23c-0.15-0.06-0.33-0.09-0.54-0.12c-0.21-0.02-0.43-0.04-0.65-0.06
		c-0.23-0.01-0.46-0.03-0.71-0.04s-0.48-0.03-0.7-0.07c-0.22,0.12-0.41,0.26-0.54,0.42s-0.21,0.35-0.21,0.57
		c0,0.14,0.04,0.27,0.11,0.39s0.18,0.23,0.34,0.31s0.35,0.16,0.58,0.21c0.23,0.05,0.52,0.08,0.85,0.08c0.66,0,1.16-0.1,1.49-0.31
		S72.15,160.4,72.15,160.08z M70.06,156.1c0.47,0,0.82-0.12,1.05-0.36c0.23-0.24,0.35-0.55,0.35-0.93c0-0.39-0.12-0.7-0.35-0.93
		c-0.23-0.23-0.58-0.34-1.05-0.34c-0.46,0-0.81,0.11-1.04,0.34s-0.35,0.54-0.35,0.93c0,0.19,0.03,0.36,0.09,0.52
		s0.15,0.29,0.27,0.41c0.12,0.11,0.26,0.2,0.44,0.27C69.63,156.07,69.83,156.1,70.06,156.1z"/>
</g>
<g>
</g>
<g>
	<path class="st3" d="M104.29,154c-0.05,0.06-0.09,0.11-0.13,0.14c-0.04,0.03-0.1,0.05-0.18,0.05s-0.16-0.03-0.25-0.08
		s-0.19-0.12-0.31-0.19c-0.12-0.07-0.26-0.13-0.43-0.18c-0.17-0.06-0.38-0.08-0.63-0.08c-0.33,0-0.61,0.06-0.86,0.17
		c-0.24,0.12-0.45,0.28-0.62,0.5c-0.17,0.22-0.29,0.48-0.37,0.79c-0.08,0.31-0.12,0.66-0.12,1.04c0,0.4,0.04,0.76,0.13,1.07
		c0.09,0.31,0.21,0.58,0.38,0.79c0.17,0.21,0.37,0.38,0.6,0.49c0.24,0.11,0.5,0.17,0.79,0.17c0.29,0,0.52-0.04,0.71-0.1
		c0.18-0.07,0.33-0.15,0.45-0.23c0.12-0.08,0.22-0.16,0.31-0.23c0.09-0.07,0.18-0.1,0.28-0.1c0.12,0,0.21,0.05,0.28,0.14l0.43,0.55
		c-0.17,0.21-0.36,0.39-0.57,0.53s-0.43,0.26-0.66,0.35s-0.48,0.16-0.73,0.2c-0.25,0.04-0.51,0.06-0.76,0.06
		c-0.44,0-0.86-0.08-1.24-0.25c-0.38-0.17-0.72-0.41-1.01-0.72c-0.29-0.31-0.51-0.7-0.68-1.15c-0.17-0.45-0.25-0.97-0.25-1.56
		c0-0.53,0.07-1.01,0.22-1.46c0.15-0.45,0.37-0.84,0.65-1.16c0.29-0.33,0.64-0.58,1.07-0.77c0.42-0.18,0.91-0.28,1.47-0.28
		c0.52,0,0.97,0.08,1.37,0.25s0.74,0.41,1.05,0.71L104.29,154z"/>
	<path class="st3" d="M109.04,152.49c0.53,0,1,0.09,1.43,0.26c0.43,0.17,0.79,0.42,1.09,0.73c0.3,0.32,0.53,0.7,0.7,1.15
		s0.24,0.96,0.24,1.52c0,0.56-0.08,1.07-0.24,1.52s-0.4,0.84-0.7,1.16c-0.3,0.32-0.66,0.57-1.09,0.74c-0.43,0.17-0.9,0.26-1.43,0.26
		c-0.53,0-1.01-0.09-1.44-0.26c-0.43-0.17-0.79-0.42-1.09-0.74c-0.3-0.32-0.54-0.7-0.7-1.16s-0.24-0.96-0.24-1.52
		c0-0.56,0.08-1.07,0.24-1.52s0.4-0.84,0.7-1.15c0.3-0.32,0.67-0.56,1.09-0.73C108.03,152.57,108.51,152.49,109.04,152.49z
		 M109.04,158.66c0.64,0,1.12-0.22,1.44-0.65c0.31-0.43,0.47-1.05,0.47-1.85c0-0.8-0.16-1.42-0.47-1.86s-0.79-0.65-1.44-0.65
		c-0.65,0-1.14,0.22-1.45,0.65c-0.32,0.44-0.47,1.05-0.47,1.86c0,0.8,0.16,1.42,0.47,1.85C107.9,158.44,108.39,158.66,109.04,158.66
		z"/>
	<path class="st3" d="M113.94,159.73v-7.13h0.91c0.21,0,0.34,0.1,0.39,0.29l0.1,0.66c0.15-0.16,0.31-0.3,0.47-0.43
		c0.17-0.13,0.34-0.24,0.53-0.34c0.19-0.09,0.39-0.17,0.6-0.22c0.21-0.05,0.44-0.08,0.69-0.08c0.39,0,0.74,0.06,1.03,0.2
		s0.54,0.31,0.75,0.55c0.2,0.24,0.35,0.52,0.46,0.86s0.15,0.7,0.15,1.1v4.54h-1.5v-4.54c0-0.48-0.11-0.85-0.33-1.12
		s-0.56-0.4-1.01-0.4c-0.34,0-0.65,0.08-0.93,0.23c-0.29,0.15-0.56,0.36-0.81,0.63v5.19H113.94z"/>
	<path class="st3" d="M126.05,153.89c-0.04,0.07-0.08,0.11-0.13,0.14c-0.05,0.03-0.1,0.04-0.17,0.04c-0.08,0-0.17-0.02-0.26-0.07
		c-0.09-0.05-0.2-0.1-0.33-0.16s-0.27-0.12-0.44-0.16s-0.37-0.07-0.6-0.07c-0.19,0-0.36,0.02-0.51,0.07
		c-0.15,0.04-0.28,0.11-0.38,0.19c-0.11,0.08-0.19,0.18-0.24,0.29c-0.06,0.11-0.08,0.23-0.08,0.35c0,0.17,0.05,0.31,0.15,0.42
		c0.1,0.11,0.24,0.21,0.41,0.29c0.17,0.08,0.36,0.16,0.57,0.22c0.21,0.07,0.43,0.13,0.66,0.21c0.22,0.07,0.44,0.16,0.66,0.26
		c0.21,0.1,0.41,0.22,0.57,0.36c0.17,0.14,0.3,0.31,0.41,0.52c0.1,0.2,0.15,0.45,0.15,0.74c0,0.33-0.06,0.65-0.18,0.93
		s-0.3,0.53-0.53,0.74c-0.23,0.21-0.52,0.37-0.87,0.49c-0.35,0.12-0.74,0.17-1.19,0.17c-0.25,0-0.49-0.02-0.72-0.07
		c-0.23-0.04-0.45-0.11-0.66-0.18c-0.21-0.08-0.4-0.17-0.58-0.28c-0.18-0.11-0.34-0.22-0.48-0.35l0.35-0.57
		c0.04-0.07,0.09-0.13,0.16-0.16c0.06-0.04,0.14-0.06,0.23-0.06c0.1,0,0.19,0.03,0.29,0.09c0.1,0.06,0.21,0.13,0.33,0.21
		c0.13,0.07,0.28,0.14,0.46,0.21c0.18,0.06,0.41,0.09,0.68,0.09c0.22,0,0.42-0.03,0.58-0.08s0.3-0.13,0.41-0.22
		c0.11-0.09,0.19-0.2,0.24-0.32c0.05-0.12,0.08-0.25,0.08-0.38c0-0.18-0.05-0.33-0.15-0.45c-0.1-0.12-0.24-0.22-0.41-0.3
		s-0.36-0.16-0.58-0.22s-0.44-0.13-0.66-0.21c-0.22-0.07-0.44-0.16-0.66-0.26c-0.22-0.1-0.41-0.22-0.58-0.37
		c-0.17-0.15-0.31-0.33-0.41-0.55s-0.15-0.48-0.15-0.79c0-0.28,0.06-0.55,0.17-0.81c0.11-0.26,0.28-0.48,0.5-0.68
		c0.22-0.2,0.49-0.35,0.82-0.46c0.32-0.11,0.7-0.17,1.12-0.17c0.48,0,0.92,0.08,1.31,0.23c0.39,0.15,0.72,0.36,0.99,0.63
		L126.05,153.89z"/>
	<path class="st3" d="M129.34,152.6v4.54c0,0.48,0.11,0.85,0.33,1.12s0.56,0.4,1.01,0.4c0.33,0,0.64-0.08,0.93-0.23
		c0.29-0.15,0.56-0.36,0.81-0.63v-5.2h1.5v7.13h-0.91c-0.2,0-0.33-0.1-0.38-0.29l-0.11-0.66c-0.3,0.32-0.64,0.57-1,0.77
		c-0.37,0.2-0.79,0.29-1.28,0.29c-0.39,0-0.74-0.07-1.03-0.2c-0.3-0.13-0.55-0.31-0.75-0.55c-0.2-0.24-0.36-0.52-0.46-0.86
		c-0.1-0.33-0.15-0.7-0.15-1.1v-4.54H129.34z"/>
	<path class="st3" d="M137.3,149.38v10.34h-1.5v-10.34H137.3z"/>
	<path class="st3" d="M141.47,159.84c-0.59,0-1.05-0.17-1.37-0.5s-0.48-0.8-0.48-1.41v-4.15h-0.78c-0.08,0-0.16-0.03-0.22-0.08
		c-0.06-0.05-0.09-0.13-0.09-0.24v-0.61l1.15-0.17l0.33-2.06c0.02-0.08,0.06-0.14,0.12-0.19c0.06-0.05,0.13-0.07,0.22-0.07h0.77
		v2.34h4.98v7.03h-1.5v-5.95h-3.47v4.05c0,0.26,0.06,0.45,0.19,0.59c0.13,0.14,0.29,0.2,0.5,0.2c0.12,0,0.22-0.02,0.3-0.05
		s0.16-0.06,0.22-0.1s0.11-0.07,0.16-0.1c0.04-0.03,0.09-0.05,0.13-0.05c0.08,0,0.15,0.05,0.2,0.14l0.45,0.73
		c-0.23,0.21-0.51,0.36-0.83,0.47C142.13,159.78,141.81,159.84,141.47,159.84z M146.41,150.41c0,0.13-0.03,0.26-0.08,0.38
		c-0.05,0.12-0.13,0.22-0.22,0.31c-0.09,0.09-0.2,0.16-0.33,0.22c-0.12,0.05-0.25,0.08-0.39,0.08c-0.14,0-0.26-0.03-0.38-0.08
		c-0.12-0.05-0.22-0.13-0.31-0.22s-0.16-0.2-0.22-0.31c-0.05-0.12-0.08-0.25-0.08-0.38c0-0.14,0.03-0.27,0.08-0.4
		c0.05-0.12,0.13-0.23,0.22-0.32s0.2-0.16,0.31-0.22c0.12-0.05,0.25-0.08,0.38-0.08c0.13,0,0.26,0.03,0.39,0.08
		c0.12,0.05,0.23,0.13,0.33,0.22c0.09,0.09,0.17,0.2,0.22,0.32C146.39,150.14,146.41,150.27,146.41,150.41z"/>
	<path class="st3" d="M148.01,159.73v-7.13h0.91c0.21,0,0.34,0.1,0.39,0.29l0.1,0.66c0.15-0.16,0.31-0.3,0.47-0.43
		c0.17-0.13,0.34-0.24,0.53-0.34c0.19-0.09,0.39-0.17,0.6-0.22c0.21-0.05,0.44-0.08,0.69-0.08c0.39,0,0.74,0.06,1.03,0.2
		s0.54,0.31,0.75,0.55c0.2,0.24,0.35,0.52,0.46,0.86s0.15,0.7,0.15,1.1v4.54h-1.5v-4.54c0-0.48-0.11-0.85-0.33-1.12
		s-0.56-0.4-1.01-0.4c-0.34,0-0.65,0.08-0.93,0.23c-0.29,0.15-0.56,0.36-0.81,0.63v5.19H148.01z"/>
	<path class="st3" d="M158.42,152.47c0.31,0,0.6,0.03,0.86,0.1s0.51,0.16,0.74,0.28h2v0.56c0,0.19-0.11,0.3-0.33,0.34l-0.71,0.12
		c0.12,0.28,0.18,0.58,0.18,0.9c0,0.35-0.07,0.67-0.21,0.95c-0.14,0.28-0.33,0.53-0.57,0.73s-0.53,0.35-0.87,0.46
		c-0.34,0.11-0.7,0.16-1.09,0.16c-0.15,0-0.29-0.01-0.44-0.02c-0.14-0.02-0.28-0.04-0.42-0.07c-0.14,0.08-0.24,0.16-0.3,0.25
		s-0.1,0.18-0.1,0.27c0,0.15,0.07,0.27,0.2,0.34c0.14,0.07,0.31,0.13,0.54,0.16c0.22,0.03,0.47,0.05,0.76,0.06
		c0.28,0.01,0.57,0.03,0.87,0.05c0.29,0.02,0.58,0.06,0.87,0.12s0.54,0.14,0.76,0.27c0.22,0.12,0.4,0.29,0.54,0.5
		c0.13,0.21,0.2,0.48,0.2,0.82c0,0.31-0.08,0.61-0.23,0.9c-0.15,0.29-0.38,0.55-0.67,0.78c-0.29,0.23-0.65,0.41-1.07,0.55
		c-0.42,0.14-0.9,0.21-1.43,0.21c-0.53,0-0.99-0.05-1.39-0.15s-0.72-0.24-0.99-0.42c-0.26-0.17-0.46-0.38-0.59-0.6
		c-0.13-0.23-0.19-0.47-0.19-0.71c0-0.34,0.11-0.62,0.32-0.86c0.21-0.24,0.5-0.42,0.86-0.56c-0.2-0.09-0.35-0.22-0.47-0.38
		c-0.12-0.16-0.18-0.38-0.18-0.64c0-0.1,0.02-0.21,0.06-0.32c0.04-0.11,0.09-0.22,0.17-0.33c0.08-0.11,0.17-0.21,0.29-0.31
		c0.11-0.1,0.25-0.19,0.4-0.27c-0.35-0.2-0.63-0.46-0.83-0.78s-0.3-0.71-0.3-1.14c0-0.35,0.07-0.67,0.21-0.96
		c0.14-0.28,0.33-0.53,0.58-0.73c0.25-0.2,0.54-0.35,0.88-0.46S158.01,152.47,158.42,152.47z M160.5,160.08
		c0-0.15-0.04-0.28-0.14-0.37s-0.21-0.17-0.37-0.23c-0.15-0.06-0.33-0.09-0.54-0.12s-0.42-0.04-0.65-0.06
		c-0.23-0.01-0.46-0.03-0.71-0.04s-0.48-0.03-0.7-0.07c-0.22,0.12-0.41,0.26-0.54,0.42s-0.21,0.35-0.21,0.57
		c0,0.14,0.04,0.27,0.11,0.39s0.18,0.23,0.34,0.31s0.34,0.16,0.58,0.21c0.24,0.05,0.52,0.08,0.85,0.08c0.66,0,1.16-0.1,1.49-0.31
		S160.5,160.4,160.5,160.08z M158.42,156.1c0.47,0,0.82-0.12,1.05-0.36c0.23-0.24,0.35-0.55,0.35-0.93c0-0.39-0.12-0.7-0.35-0.93
		c-0.23-0.23-0.58-0.34-1.05-0.34c-0.46,0-0.81,0.11-1.04,0.34s-0.35,0.54-0.35,0.93c0,0.19,0.03,0.36,0.09,0.52
		s0.15,0.29,0.27,0.41c0.12,0.11,0.26,0.2,0.44,0.27C157.99,156.07,158.19,156.1,158.42,156.1z"/>
</g>
<g>
</g>
</svg>
