<?xml version="1.0" encoding="utf-8"?>
<!-- Generator: Adobe Illustrator 19.1.0, SVG Export Plug-In . SVG Version: 6.00 Build 0)  -->
<svg version="1.1"
	 id="svg21095" inkscape:version="0.92.0 r15299" sodipodi:docname="sbarro.svg" xmlns:inkscape="http://www.inkscape.org/namespaces/inkscape" xmlns:rdf="http://www.w3.org/1999/02/22-rdf-syntax-ns#" xmlns:svg="http://www.w3.org/2000/svg" xmlns:sodipodi="http://sodipodi.sourceforge.net/DTD/sodipodi-0.dtd" xmlns:cc="http://creativecommons.org/ns#" xmlns:dc="http://purl.org/dc/elements/1.1/"
	 xmlns="http://www.w3.org/2000/svg" xmlns:xlink="http://www.w3.org/1999/xlink" x="0px" y="0px" viewBox="-354 271.4 81.5 70.6"
	 style="enable-background:new -354 271.4 81.5 70.6;" xml:space="preserve">
<style type="text/css">
	.st0{fill:#A7A9AC;}
</style>
<sodipodi:namedview  inkscape:window-maximized="1" inkscape:window-y="-4" inkscape:window-x="-4" inkscape:window-height="744" inkscape:pageshadow="2" inkscape:pageopacity="0.0" inkscape:current-layer="layer1" fit-margin-bottom="0" inkscape:document-units="mm" fit-margin-right="0" inkscape:window-width="1280" id="base" fit-margin-left="0" showgrid="false" inkscape:zoom="7.6591648" bordercolor="#666666" borderopacity="1.0" inkscape:cx="40.260917" units="px" fit-margin-top="0" inkscape:cy="34.794917" pagecolor="#ffffff">
	</sodipodi:namedview>
<g id="layer1" transform="translate(-97.448915,-202.86259)" inkscape:groupmode="layer" inkscape:label="Layer 1">
	<path id="path20457" inkscape:connector-curvature="0" class="st0" d="M-237.4,497.5h4.2l-1-2.1l-5.5-12c7.5-3.2,15.5-4.8,23.7-4.8
		c8.3,0,16.3,1.6,23.8,4.8l-5.5,11.9l0,0l-1,2.1h4.2l1-2.1l6.4-13.8l-1.7-0.8c-8.6-4-17.7-6-27.2-6c-9.4,0-18.5,2-27.1,5.9l-1.7,0.8
		l6.4,13.9L-237.4,497.5z"/>
	<path id="path20461" inkscape:connector-curvature="0" class="st0" d="M-203.9,518.3h-4.2l-7.8,16.9l-7.8-16.9h-4.2l12,26.1
		L-203.9,518.3z"/>
	<path id="path20465" inkscape:connector-curvature="0" class="st0" d="M-227.1,491l-0.8-4.7l0.8-0.1l1.5,2.5l0,0l-0.5-2.7l0.8-0.1
		l0.8,4.7l-0.8,0.1l-1.6-2.7l0,0l0.5,2.9L-227.1,491z"/>
	<path id="path20469" inkscape:connector-curvature="0" class="st0" d="M-221.9,490.3l-0.9,0.1l-0.2-2l-1.4-2.6l0.9-0.1l0.8,1.7l0,0
		l0.4-1.9l0.9-0.1l-0.7,2.9L-221.9,490.3z"/>
	<path id="path20473" inkscape:connector-curvature="0" class="st0" d="M-218.8,486.8v-0.4c0-0.4-0.2-0.6-0.5-0.5
		c-0.4,0-0.5,0.2-0.4,0.6l0.1,2.4c0,0.4,0.1,0.5,0.5,0.5c0.3,0,0.4-0.2,0.4-0.5v-0.6l0.9-0.1v0.5c0,0.7-0.4,1.2-1.2,1.3
		c-0.9,0.1-1.4-0.5-1.4-1.1l-0.1-2.4c0-0.7,0.4-1.2,1.3-1.3c0.9-0.1,1.3,0.5,1.4,1.2v0.3L-218.8,486.8z"/>
	<path id="path20477" inkscape:connector-curvature="0" class="st0" d="M-217,489.9v-0.8h0.8v0.8H-217z"/>
	<path id="path20481" inkscape:connector-curvature="0" class="st0" d="M-214.9,486.2h-0.7v-0.4c0.4-0.2,0.8-0.4,1.1-0.6h0.4
		l-0.1,4.8h-0.8L-214.9,486.2z"/>
	<path id="path20485" inkscape:connector-curvature="0" class="st0" d="M-211.3,486.3c0-0.3-0.1-0.5-0.4-0.5c-0.3,0-0.4,0.1-0.4,0.4
		v0.8c0,0.3,0.1,0.5,0.3,0.5s0.4-0.1,0.5-0.2L-211.3,486.3z M-212.2,488.7v0.2c0,0.3,0.1,0.5,0.4,0.5c0.3,0,0.4-0.1,0.4-0.4l0.1-1.1
		c-0.2,0.2-0.4,0.3-0.7,0.3c-0.5,0-0.9-0.3-0.9-1v-0.6c0.1-1,0.4-1.4,1.3-1.4c0.9,0,1.2,0.5,1.2,1.4l-0.1,2.3
		c-0.1,0.9-0.4,1.3-1.3,1.2c-0.7,0-1.1-0.5-1.1-1.1v-0.3H-212.2z"/>
	<path id="path20489" inkscape:connector-curvature="0" class="st0" d="M-209,488.9v0.4c0,0.3,0.1,0.4,0.3,0.5
		c0.3,0,0.4-0.1,0.5-0.5l0.1-1.1c0-0.3-0.1-0.4-0.3-0.5c-0.3,0-0.4,0.1-0.5,0.3l-0.7-0.1c0.1-0.7,0.2-1.3,0.3-2.4l2.1,0.2l-0.1,0.7
		l-1.4-0.2l-0.2,1l0,0c0.2-0.2,0.4-0.2,0.7-0.2c0.7,0.1,0.9,0.6,0.8,1.3l-0.1,0.7c-0.1,1-0.5,1.4-1.3,1.3c-0.7-0.1-1.2-0.4-1.1-1.2
		v-0.4L-209,488.9z"/>
	<path id="path20493" inkscape:connector-curvature="0" class="st0" d="M-205.9,489.6c0,0.3,0.1,0.5,0.3,0.5c0.3,0,0.4-0.1,0.5-0.4
		l0.1-0.8c0-0.3-0.1-0.5-0.3-0.5s-0.4,0.1-0.5,0.1L-205.9,489.6z M-204.7,487.3v-0.2c0-0.3,0-0.5-0.3-0.5s-0.4,0.1-0.5,0.4l-0.2,1.1
		c0.3-0.2,0.4-0.3,0.8-0.2c0.5,0.1,0.9,0.4,0.8,1.1l-0.1,0.6c-0.2,1-0.6,1.4-1.5,1.2s-1.2-0.6-1-1.5l0.4-2.2
		c0.1-0.9,0.6-1.2,1.4-1.1c0.7,0.1,1.1,0.6,1,1.2v0.3L-204.7,487.3z"/>
	<path id="path20497" inkscape:connector-curvature="0" class="st0" d="M-245.4,507.8c-0.7-0.7-1.6-1.1-3.1-1.3l-1.9-0.3
		c-0.6-0.1-1-0.3-1.3-0.6c-0.3-0.2-0.4-0.6-0.4-1c0-1.1,0.9-1.8,2.2-1.8c1,0,2.2,0.1,3.1,1l0.1,0.1l2.2-2.2l-0.1-0.1
		c-1.3-1.3-2.9-1.9-5.2-1.9c-3.4,0-5.6,1.9-5.6,4.9c0,1.4,0.4,2.5,1.2,3.2c0.7,0.7,1.7,1.1,3.1,1.3l1.9,0.3c0.8,0.1,1.1,0.2,1.3,0.5
		c0.3,0.3,0.4,0.7,0.4,1.2c0,1.5-1.4,1.8-2.6,1.8c-1.6,0-2.8-0.4-3.7-1.3l-0.1-0.1l-2.2,2.2l0.1,0.1c1.5,1.5,3.2,2.1,5.9,2.1
		c3.6,0,6-2,6-4.9C-244.2,509.7-244.6,508.6-245.4,507.8"/>
	<path id="path20501" inkscape:connector-curvature="0" class="st0" d="M-236.2,506.4h-2.8v-3.3h2.8c1.2,0,1.9,0.6,1.9,1.6
		S-235,506.4-236.2,506.4 M-239,509.4h3c1.2,0,1.9,0.7,1.9,1.7c0,0.9-0.5,1.8-1.9,1.8h-3V509.4z M-232.7,507.8
		c0.9-0.6,1.8-1.7,1.8-3.2c0-2.8-1.9-4.6-5-4.6h-6.5v16h6.7c3.1,0,5-1.8,5-4.7C-230.7,509.3-231.8,508.3-232.7,507.8"/>
	<path id="path20505" inkscape:connector-curvature="0" class="st0" d="M-221.4,510.3h-3.4l1.7-5L-221.4,510.3z M-224.5,500
		l-5.8,16.1h3.6l0.9-2.8h5.3l0.9,2.8h3.6l-5.9-16.1L-224.5,500L-224.5,500z"/>
	<path id="path20509" inkscape:connector-curvature="0" class="st0" d="M-211.2,503.1h2.7c1.2,0,2.1,0.8,2.1,1.9s-0.8,1.9-2.1,1.9
		h-2.7V503.1z M-203,505c0-2.9-2.2-5-5.3-5h-6.3v16h3.4v-6.3h1.9l3.1,6.3h3.9l-3.5-6.9C-204,508.5-203,506.9-203,505"/>
	<path id="path20513" inkscape:connector-curvature="0" class="st0" d="M-192.6,505c0,1.1-0.8,1.9-2.1,1.9h-2.7v-3.8h2.7
		C-193.4,503.1-192.6,503.8-192.6,505 M-189.2,505c0-2.9-2.2-5-5.3-5h-6.3v16h3.4v-6.3h1.9l3.1,6.3h3.9l-3.5-6.9
		C-190.2,508.5-189.2,506.9-189.2,505"/>
	<path id="path20517" inkscape:connector-curvature="0" class="st0" d="M-179,508c0,2.9-0.2,3.6-0.7,4.3c-0.5,0.5-1.1,0.8-1.8,0.8
		s-1.4-0.3-1.9-0.8c-0.5-0.6-0.7-1.3-0.7-4.3s0.2-3.7,0.7-4.3c0.5-0.5,1.1-0.8,1.9-0.8c0.7,0,1.4,0.3,1.8,0.8
		C-179.2,504.3-179,505.1-179,508 M-177.3,501.6c-1.1-1.1-2.6-1.7-4.3-1.7c-1.8,0-3.2,0.6-4.3,1.7c-1.6,1.6-1.6,3.6-1.6,6.5
		s0,4.8,1.6,6.5c1.1,1.1,2.6,1.7,4.3,1.7c1.8,0,3.2-0.6,4.3-1.7c1.6-1.6,1.7-3.3,1.7-6.5S-175.7,503.2-177.3,501.6"/>
	<path id="path20521" inkscape:connector-curvature="0" class="st0" d="M-202.4,518.8h-0.1h-0.1v0.3h0.1c0.1,0,0.1,0,0.1,0V519
		C-202.3,518.9-202.3,518.9-202.4,518.8 M-202.8,519.6v-0.9c0.1,0,0.1,0,0.3,0c0.1,0,0.2,0,0.2,0c0.1,0,0.1,0,0.2,0
		c0.1,0,0.1,0.1,0.1,0.2c0,0.1,0,0.1-0.1,0.2c0,0-0.1,0.1-0.2,0.1c0.1,0,0.1,0,0.1,0.1c0.1,0,0.1,0.1,0.1,0.2v0.1l0,0l0,0l0,0h-0.2
		v-0.1c0-0.1,0-0.1,0-0.1s0-0.1-0.1-0.1c0,0,0,0-0.1,0h-0.1h-0.1L-202.8,519.6L-202.8,519.6z M-202.9,518.6
		c-0.1,0.1-0.2,0.3-0.2,0.5s0.1,0.4,0.2,0.5c0.1,0.1,0.3,0.2,0.5,0.2s0.4-0.1,0.5-0.2c0.1-0.1,0.2-0.3,0.2-0.5s-0.1-0.4-0.2-0.5
		c-0.1-0.1-0.3-0.2-0.5-0.2C-202.6,518.4-202.8,518.5-202.9,518.6 M-201.8,519.7c-0.2,0.2-0.4,0.2-0.6,0.2c-0.2,0-0.4-0.1-0.6-0.2
		c-0.2-0.2-0.2-0.4-0.2-0.6c0-0.2,0.1-0.5,0.3-0.6c0.2-0.2,0.4-0.2,0.6-0.2c0.2,0,0.4,0.1,0.6,0.2c0.2,0.2,0.2,0.4,0.2,0.6
		C-201.6,519.4-201.7,519.6-201.8,519.7"/>
</g>
</svg>
