<?xml version="1.0" encoding="utf-8"?>
<!-- Generator: Adobe Illustrator 19.1.0, SVG Export Plug-In . SVG Version: 6.00 Build 0)  -->
<svg version="1.1" id="Layer_1" xmlns="http://www.w3.org/2000/svg" xmlns:xlink="http://www.w3.org/1999/xlink" x="0px" y="0px"
	 viewBox="895 33 2582 548" style="enable-background:new 895 33 2582 548;" xml:space="preserve">
<style type="text/css">
	.st0{fill:#A7A9AC;}
</style>
<g>
	<path class="st0" d="M2228.6,428.9h46.5v103.5h-46.5V428.9z M3143.3,429h46.5v103.3h-46.5V429z M2852.8,460.9v-26
		c-12.6-6.4-31-10.6-55.9-10.6c-49.6,0-56.2,21.2-56.2,32.1c0,18.3,11.2,26.7,29.9,33.3c21.9,7.7,40.3,5.2,40.3,14.4
		c0,2.7-3.5,5.4-12.8,5.4c-19.3,0-39.7-7.4-53.1-15.5v28.7c17,8.2,38.1,13.4,55.2,13.4c38.2,0,59-15.3,59-35.6
		c0-20-15.8-28.2-41.7-34.5c-16.7-4-27.6-4-27.6-10.5c0-3.5,4.7-6.2,13.7-6.2C2819.4,449.3,2837.6,454.1,2852.8,460.9 M3429.6,460.9
		v-26c-12.6-6.4-31-10.6-55.9-10.6c-49.6,0-56.2,21.2-56.2,32.1c0,18.3,11.2,26.7,29.9,33.3c21.9,7.7,40.3,5.2,40.3,14.4
		c0,2.7-3.6,5.4-12.8,5.4c-19.2,0-39.7-7.4-53.1-15.5v28.7c17.1,8.2,38.1,13.4,55.3,13.4c38.2,0,59-15.3,59-35.6
		c0-20-15.8-28.2-41.7-34.5c-16.6-4-27.6-4-27.6-10.5c0-3.5,4.7-6.2,13.7-6.2C3396.1,449.3,3414.1,454.1,3429.6,460.9 M2660.6,535.4
		c45.4,0,62.6-17.8,62.6-44.4v-62h-44.9v64.6c0,8.1-9.3,14.9-17.6,14.9c-8.4,0-17.6-6.8-17.6-14.9V429h-44.9v62
		C2598.1,517.6,2615.3,535.4,2660.6,535.4 M3300.1,532.4v-22.1H3254v-21.9h39.4v-21.3H3254V451h46.1v-22h-90.3v103.3L3300.1,532.4
		L3300.1,532.4z M2871.4,452h30.1v80.4h47.1V452h30.1v-23h-107.4L2871.4,452L2871.4,452z M2432.1,532.4V428.9h-47.3v47.9l-37.9-47.9
		h-51.9v103.5h47.3V482l38.9,50.4H2432.1z M2096.6,468.2l-21.9-39.2h-43.2l41.8,66.9v36.4h47.2v-37.2l41.3-66.1h-43.2L2096.6,468.2z
		 M1990.3,532.4l37.8-103.3h-43.7l-22.2,65.3l-22.1-65.3h-43.7l37.8,103.3H1990.3z M1819.1,429l-37.9,103.3h44.2l3.5-12.2h34.3
		l3.5,12.2h44.2L1873,429H1819.1z M1834.6,500.2l11.4-39.9l11.4,39.9H1834.6z M1773.8,532.4v-22.1h-46v-21.9h39.4v-21.3h-39.4V451
		h46v-21.9h-90.3v103.3H1773.8z M2515.3,532.4c45.8,0,68-21.6,68-51.8c0-33.9-28.1-51.6-65.7-51.6h-65.7v103.5L2515.3,532.4
		L2515.3,532.4z M2510.1,503.3h-10.8v-49.1h9.1c15.8,0,24.6,9.8,24.6,25.7C2532.9,492.1,2522.6,503.3,2510.1,503.3 M2996.9,429
		v103.3h50v-33.4l31,33.4h55.5l-41.3-40.6c18-0.7,32.3-12.6,32.3-30.5c0-20.9-16.1-32.2-35.4-32.2H2996.9L2996.9,429z M3062.8,474.9
		h-15.9v-26.1h16.9c6.1,0,12.7,4.6,12.7,13.6C3076.6,470.2,3070.3,474.9,3062.8,474.9 M1616.5,429v36.2h-33.2V429h-47v103.3h47
		v-37.1h33.2v37.1h46.9V429H1616.5z M1821.4,229.4h81v169.3h-81V229.4z M1696.4,229.4l-29.3,59.4l-29.3-59.4h-78l-23.4,169.3h75.7
		l6.8-70.7l48.3,70.7l48.2-70.7l6.8,70.7h75.7l-23.4-169.3L1696.4,229.4z M2097.9,229.4h-171.9v46.2h47v123.1h77.9V275.6h47V229.4z
		 M2303.3,296.8V248c-28-13.6-61.3-22.1-93-22.1c-59.6,0-92,20.1-92,53.4c0,28.7,18,39.7,48.5,51.2c35.3,13.3,57.8,6.7,57.8,17.5
		c0,4.2-1.3,7.4-15,7.4c-31.8,0-62.4-12.6-84.5-25.3v50.6c28.2,12.9,63,21.1,91.3,21.1c38.3,0,92.4-8.9,92.4-54.1
		c0-31.4-27.1-47.8-63.9-56.2c-27.5-6.3-46-4.3-46-14.4c0-5.1,7.2-7,19.3-7C2244.1,270.1,2280.8,282.4,2303.3,296.8 M2792.1,229.4
		h81v169.4h-81V229.4z M3354.9,229.4h81v169.4h-81V229.4z M3085.4,296.8V248c-28-13.6-61.3-22.1-93-22.1c-59.6,0-92,20.1-92,53.4
		c0,28.7,18,39.7,48.5,51.2c35.3,13.3,57.8,6.7,57.8,17.5c0,4.2-1.3,7.4-15,7.4c-31.8,0-62.4-12.6-84.5-25.3v50.6
		c28.2,12.9,63,21.1,91.3,21.1c38.3,0,92.4-8.9,92.4-54.1c0-31.4-27.1-47.8-63.8-56.2c-27.5-6.3-46-4.3-46-14.4c0-5.1,7.2-7,19.3-7
		C3026.3,270.1,3063.1,282.4,3085.4,296.8 M2438.1,401.8c52.6,0,104.7-21.3,104.7-70.3V229.4h-79v103.9c0,13.8-11.1,25.3-25.7,25.3
		c-14.5,0-25.7-11.5-25.7-25.3V229.4h-79.1v102.1C2333.3,380.4,2385.3,401.8,2438.1,401.8 M2704.3,398.7c46.8,0,62.4-21.8,62.4-45
		c0-22-12.6-36.5-30.7-43.4c13.5-6.7,21-20.1,21-35c0-27.4-24.6-45.9-50.7-45.9h-135.5v169.4L2704.3,398.7L2704.3,398.7z
		 M2672.6,265.4c9.1,0,14,6.4,14,13.5c0,7.9-6.4,12.6-13.8,12.6h-20v-26.1H2672.6z M2672.8,356.1h-20v-25.8h20.8
		c6.7,0,13.4,4.8,13.4,12.8C2687.1,350.2,2681.4,356.1,2672.8,356.1 M3244.6,229.4v59.7h-46v-59.7h-80.5v169.4h80.5v-60.4h46v60.4
		h80.5V229.4H3244.6z"/>
	<path class="st0" d="M1198.3,380.9l87.4-151.5l-87.5-151.5l-87.4,151.5L1198.3,380.9z M1198.3,380.9l87.4,151.5h174.9l-87.5-151.5
		H1198.3L1198.3,380.9z M1198.3,380.9h-174.9l-87.5,151.5h174.9L1198.3,380.9z"/>
</g>
</svg>
