<?xml version="1.0" encoding="utf-8"?>
<!-- Generator: Adobe Illustrator 19.1.0, SVG Export Plug-In . SVG Version: 6.00 Build 0)  -->
<svg version="1.1" id="图层_1" xmlns="http://www.w3.org/2000/svg" xmlns:xlink="http://www.w3.org/1999/xlink" x="0px" y="0px"
	 viewBox="-69 203.1 652 133" style="enable-background:new -69 203.1 652 133;" xml:space="preserve">
<style type="text/css">
	.st0{fill:#A7A9AC;}
</style>
<g id="XMLID_365_">
	<path id="XMLID_7_" class="st0" d="M-51.5,322.9h119c14.6,0,21.8-8.9,23.3-11.1c1.5-2.2,2.2-3.3,1.8-4.7c0,0-20.3-70.8-21-73.4
		s1.2-2.6,1.7-2.6h2.9c2,0,3.6,1.3,4.1,2.9c0.5,1.8,16.8,58.8,17.2,60.2s2.3,2.1,3.5-0.1c1.1-2.2,38.5-72.9,39.3-74.4
		c0.8-1.6-0.1-3.1-2.1-3.1H43H20.1c-14,0-21.7,8.7-23.2,10.4c0,0-1.2,1.4-1.9,2.7c-0.4,0.8-0.8,1.6-0.4,3c0,0,20.6,71.9,21,73.2
		c0.4,1.3-0.2,2.5-1.6,2.5h-3.5c-1.2,0-3-1-3.6-2.9c-0.5-1.9-16.8-58.5-17.2-59.9s-2.5-1.7-3.3-0.3c-0.8,1.4-39,73.8-39.6,75
		C-53.8,321.5-52.9,322.9-51.5,322.9"/>
	<path id="XMLID_6_" class="st0" d="M98,322.9h69.9c2.1,0,3.5-1.3,2.9-3.3c-0.6-2.1-14.6-51-15.1-52.8c-0.5-1.9-3.3-2.6-4.8-1
		s-52.8,53.1-54.1,54.4C95.7,321.1,95.8,322.9,98,322.9"/>
	<path id="XMLID_5_" class="st0" d="M182.1,322.9h71.4c1,0,1.9-0.8,1.6-2c-0.4-1.2-28.8-100.7-29.2-101.9c-0.4-1.3-1.6-2.5-3.4-2.5
		h-21.4c-1,0-1.7,0.3-2.3,0.9c-0.6,0.6-36.8,37-37.4,37.6c-0.6,0.6-0.8,1.3-0.4,2.5c0.4,1.3,17.8,62.3,18.1,63.3
		C179.4,322,180.5,322.9,182.1,322.9"/>
	<path id="XMLID_4_" class="st0" d="M289.1,216.5h140.3c1.8,0,2.8,1.1,1.6,3.4c-1.1,2.2-28.4,55.2-29.1,56.6
		c-0.9,1.8-2.4,1.9-3.1-0.1c-0.7-2.1-12.9-40.8-13.5-42.4c-0.6-1.8-2.3-1.9-3-0.4c-0.8,1.5-44.5,86.5-45,87.5s-1.3,1.8-2.5,1.8
		h-58.9c-1.6,0-2.5-1.3-1.6-2.9c0.7-1.3,43.1-83.8,43.7-85.1c1-2-0.3-3.4-2.6-1.7c-1.9,1.4-55.1,43.2-56.1,43.9
		c-2.2,1.6-3.8,0.3-2.6-2.1c1-2,28.2-54.8,29.1-56.5C286.7,216.9,287.4,216.5,289.1,216.5"/>
	<path id="XMLID_3_" class="st0" d="M503.9,216.5c2,0,3.3,1.6,2.3,3.8c-1.1,2.2-49.8,98.6-50.6,100.1c-0.7,1.5-1.8,2.5-3.6,2.5
		h-20.1c-11.2,0-19.5-3.4-24.2-10.4c-4.7-6.9-5.7-16.4-0.7-26.4c5.1-10,6.4-12.6,13.5-26.7c9.4-18.7,19.6-28,27-33
		c7.5-5.1,18.1-9.8,35.3-9.8L503.9,216.5L503.9,216.5z"/>
	<path id="XMLID_2_" class="st0" d="M470.1,322.9c-2,0-3.3-1.6-2.2-3.8c1.1-2.2,49.9-98.6,50.6-100.1c0.7-1.5,1.8-2.5,3.6-2.5h20
		c11.2,0,19.5,3.4,24.2,10.4c4.7,6.9,5.7,16.4,0.7,26.4c-5.1,10-6.4,12.6-13.5,26.7c-9.4,18.7-19.6,28-27,33
		c-7.5,5.1-18.1,9.8-35.3,9.8h-21.1V322.9z"/>
</g>
</svg>
