<?xml version="1.0" encoding="utf-8"?>
<!-- Generator: Adobe Illustrator 19.1.0, SVG Export Plug-In . SVG Version: 6.00 Build 0)  -->
<svg version="1.1" id="layer" xmlns="http://www.w3.org/2000/svg" xmlns:xlink="http://www.w3.org/1999/xlink" x="0px" y="0px"
	 viewBox="-69 222 652 169" style="enable-background:new -69 222 652 169;" xml:space="preserve">
<style type="text/css">
	.st0{fill:#A7A9AC;}
</style>
<g>
	<path class="st0" d="M48.1,237.4v27.3H24.6c-27.8,0-32.7,19.1-32.7,39.4s1.2,44.3,29.4,44.3h27.1v26.8H15.8
		c-42.3,0-58.8-31.6-58.8-69.2c0-47.8,25.9-68.5,64.3-68.5"/>
	<rect x="59.2" y="238.1" class="st0" width="30.7" height="137.3"/>
	<rect x="439.1" y="238.1" class="st0" width="30.8" height="137.3"/>
	<path class="st0" d="M134,275h-27.1v24h24.2c8.3,0,10.2,4,10.2,10.5h-11.4c-24,0-31.6,16.6-31.6,33.3c0,16.7,7.6,32.1,28.7,32.1
		h44.5v-68.4C171.1,289.3,160,275,134,275 M141.4,353.5h-6c-5.7,0-8.4-5.1-8.4-11.6s2-11.5,8.2-11.5h6.2V353.5z"/>
	<path class="st0" d="M240.8,275.1h-27.7c-15.4,0-31.2,9.8-31.2,26.9c0,5.4,1.6,12.9,8.8,19.9l19.5,19.3c3.2,3.1,1.6,10.1-4.9,10.1
		h-23.5v24.1h28.9c15.4,0,33-10.3,33-29.4c0-8.3-4.1-14.5-9.2-19.9l-18.1-18c-4.8-5-2.1-9.5,3.3-9.5H241"/>
	<path class="st0" d="M309,275.1h-27.8c-15.4,0-31.2,9.8-31.2,26.9c0,5.4,1.6,12.9,8.8,19.9l19.5,19.3c3.2,3.1,1.6,10.1-4.9,10.1
		h-23.5v24.1h28.9c15.4,0,32.9-10.3,32.9-29.4c0-8.3-4.1-14.5-9.2-19.9l-18.1-18c-4.9-5-2.1-9.5,3.3-9.5H309"/>
	<path class="st0" d="M321.7,238.1v137h31v-49.6c0-11.1-4.4-42.6-4.4-42.6l31.1,77.3c4.3,8.4,8.8,15.4,24.9,15.4h18.9V238.3h-31V292
		c0,11,4.1,37.5,4.1,37.5l-30.8-75.6c-6.2-14.1-14.3-15.9-24-15.9"/>
	<path class="st0" d="M546.9,238.2h-19.6c-13.2,0-18.6,6.1-22.9,12.3l-29.7,49l37.7,62.1c6.5,9.2,11.7,13.9,22,13.9H557l-49.7-76.3"
		/>
</g>
</svg>
