<?xml version="1.0" encoding="utf-8"?>
<!-- Generator: Adobe Illustrator 26.3.1, SVG Export Plug-In . SVG Version: 6.00 Build 0)  -->
<svg version="1.1" id="Layer_1" xmlns="http://www.w3.org/2000/svg" xmlns:xlink="http://www.w3.org/1999/xlink" x="0px" y="0px"
	 viewBox="0 0 256 256" style="enable-background:new 0 0 256 256;" xml:space="preserve">
<style type="text/css">
	.st0{fill:#CABBA9;}
</style>
<path class="st0" d="M212.56,255.25H43.44c-23.58,0-42.69-19.11-42.69-42.69V43.44c0-23.58,19.11-42.69,42.69-42.69h169.12
	c23.58,0,42.69,19.11,42.69,42.69v169.12C255.25,236.14,236.14,255.25,212.56,255.25z"/>
<g>
	<path d="M112.93,150.44c0,22.37-15.14,33.62-45.41,33.62c-17.28,0-29.74-4.02-37.37-12.06c-5.22-5.63-7.77-12.86-7.77-21.57
		c0-8.71,2.54-15.94,7.77-21.57c7.63-8.04,20.09-12.06,37.37-12.06c10.31,0,17.15-1.34,20.49-4.29c2.01-1.61,2.95-3.88,2.95-7.23
		s-0.94-5.89-2.95-7.37c-3.35-2.81-10.18-4.29-20.49-4.29c-10.18,0-16.88,1.47-20.23,4.29c-2.01,1.61-2.95,4.02-2.95,7.37H22.38
		c0-8.71,2.54-15.81,7.77-21.43c7.63-7.9,20.09-11.92,37.37-11.92c30.27,0,45.41,11.12,45.41,33.35L112.93,150.44L112.93,150.44z
		 M90.96,150.57V135.7c-6.43,2.28-14.33,3.35-23.44,3.35c-10.18,0-16.88,1.34-20.23,4.02c-2.01,1.61-2.95,4.02-2.95,7.5
		c0,3.35,0.94,5.89,2.95,7.5c3.35,2.81,10.18,4.29,20.23,4.29c10.31,0,17.15-1.47,20.49-4.29
		C89.89,156.33,90.96,153.92,90.96,150.57z"/>
	<path d="M233.62,183.92h-21.97v-55.99c0-11.39-1.88-19.69-5.76-24.65c-4.69-6.3-12.86-9.51-24.51-9.51s-19.96,3.21-24.65,9.51
		c-3.75,5.09-5.76,13.26-5.76,24.65v55.99H129v-55.86c0-37.37,17.41-55.99,52.37-55.99c34.83,0,52.11,18.62,52.11,55.99v55.86
		H233.62z"/>
</g>
<g>
</g>
<g>
</g>
<g>
</g>
<g>
</g>
<g>
</g>
<g>
</g>
<g>
</g>
<g>
</g>
<g>
</g>
<g>
</g>
<g>
</g>
<g>
</g>
<g>
</g>
<g>
</g>
<g>
</g>
</svg>
