<?xml version="1.0" encoding="utf-8"?>
<!-- Generator: Adobe Illustrator 19.1.0, SVG Export Plug-In . SVG Version: 6.00 Build 0)  -->
<svg version="1.2" baseProfile="tiny" id="Layer_1" xmlns="http://www.w3.org/2000/svg" xmlns:xlink="http://www.w3.org/1999/xlink"
	 x="0px" y="0px" viewBox="-281 180.7 713 132" xml:space="preserve">
<g>
	<path fill="#FFFFFF" d="M-192.7,272.9c0,16.7-11.3,25.1-33.9,25.1c-12.9,0-22.2-3-27.9-9c-3.9-4.2-5.8-9.6-5.8-16.1
		c0-6.5,1.9-11.9,5.8-16.1c5.7-6,15-9,27.9-9c7.7,0,12.8-1,15.3-3.2c1.5-1.2,2.2-2.9,2.2-5.4c0-2.5-0.7-4.4-2.2-5.5
		c-2.5-2.1-7.6-3.2-15.3-3.2c-7.6,0-12.6,1.1-15.1,3.2c-1.5,1.2-2.2,3-2.2,5.5h-16.4c0-6.5,1.9-11.8,5.8-16c5.7-5.9,15-8.9,27.9-8.9
		c22.6,0,33.9,8.3,33.9,24.9V272.9z M-209.1,273v-11.1c-4.8,1.7-10.7,2.5-17.5,2.5c-7.6,0-12.6,1-15.1,3c-1.5,1.2-2.2,3-2.2,5.6
		c0,2.5,0.7,4.4,2.2,5.6c2.5,2.1,7.6,3.2,15.1,3.2c7.7,0,12.8-1.1,15.3-3.2C-209.9,277.3-209.1,275.5-209.1,273z"/>
	<path fill="#FFFFFF" d="M-102.6,297.9H-119v-41.8c0-8.5-1.4-14.7-4.3-18.4c-3.5-4.7-9.6-7.1-18.3-7.1c-8.7,0-14.9,2.4-18.4,7.1
		c-2.8,3.8-4.3,9.9-4.3,18.4v41.8h-16.4v-41.7c0-27.9,13-41.8,39.1-41.8c26,0,38.9,13.9,38.9,41.8V297.9z"/>
	<path fill="#FFFFFF" d="M-18.3,297.9h-19.5l-18.4-27.7l-18.4,27.7h-19.7l28.2-42.6l-27-40.9h19.7l17.2,26l17.2-26h19.7l-27.1,40.9
		L-18.3,297.9z"/>
	<path fill="#FFFFFF" d="M34.7,298.1c-27.8,0-41.8-10.1-41.8-30.4v-86.2H9.3v32.9h25.4v16.2H9.3v37.1c0,4.4,1.4,7.7,4.3,9.8
		c3.9,2.9,10.9,4.3,21.1,4.3V298.1z"/>
	<path fill="#FFFFFF" d="M86.5,230.6c-10.2,0-17.2,1.4-21.1,4.3c-2.8,2.1-4.3,5.4-4.3,9.8v53.3H44.8v-53.2
		c0-20.2,13.9-30.4,41.8-30.4V230.6z"/>
	<path fill="#FFFFFF" d="M173.1,297.9h-38.9c-26.1,0-39.1-13.9-39.1-41.7c0-27.9,13-41.8,39.1-41.8c26,0,38.9,13.9,38.9,41.8v8.2
		h-61.2c1.7,11.6,9.1,17.3,22.2,17.3h38.9V297.9z M156.2,248.1c-1.7-11.7-9-17.5-22.1-17.5c-13.1,0-20.5,5.8-22.2,17.5H156.2z"/>
	<path fill="#FFFFFF" d="M253,272.9c0,16.7-11.3,25.1-33.9,25.1c-12.9,0-22.2-3-27.9-9c-3.9-4.2-5.8-9.6-5.8-16.1
		c0-6.5,1.9-11.9,5.8-16.1c5.7-6,15-9,27.9-9c7.7,0,12.8-1,15.3-3.2c1.5-1.2,2.2-2.9,2.2-5.4c0-2.5-0.7-4.4-2.2-5.5
		c-2.5-2.1-7.6-3.2-15.3-3.2c-7.6,0-12.6,1.1-15.1,3.2c-1.5,1.2-2.2,3-2.2,5.5h-16.4c0-6.5,1.9-11.8,5.8-16c5.7-5.9,15-8.9,27.9-8.9
		c22.6,0,33.9,8.3,33.9,24.9V272.9z M236.6,273v-11.1c-4.8,1.7-10.7,2.5-17.5,2.5c-7.6,0-12.6,1-15.1,3c-1.5,1.2-2.2,3-2.2,5.6
		c0,2.5,0.7,4.4,2.2,5.6c2.5,2.1,7.6,3.2,15.1,3.2c7.7,0,12.8-1.1,15.3-3.2C235.8,277.3,236.6,275.5,236.6,273z"/>
	<path fill="#FFFFFF" d="M405,297.9h-16.4v-41.8c0-8.5-1.4-14.7-4.3-18.4c-3.6-4.7-9.7-7.1-18.4-7.1c-8.7,0-14.8,2.4-18.3,7.1
		c-2.8,3.8-4.3,9.9-4.3,18.4v41.8H327v-41.8c0-8.5-1.4-14.7-4.3-18.4c-3.6-4.7-9.7-7.1-18.4-7.1c-8.7,0-14.8,2.4-18.3,7.1
		c-2.8,3.8-4.3,9.9-4.3,18.4v41.8h-16.4v-41.7c0-27.9,13-41.8,38.9-41.8c13.9,0,24.2,4.2,30.9,12.6c6.6-8.4,16.9-12.6,30.7-12.6
		c26.1,0,39.1,13.9,39.1,41.8V297.9z"/>
</g>
</svg>
